<?xml version="1.0" encoding="UTF-8"?>
<svg width="17px" height="16px" viewBox="0 0 17 16" version="1.1" xmlns="http://www.w3.org/2000/svg" xmlns:xlink="http://www.w3.org/1999/xlink">
    <title>位置</title>
    <g id="页面-1" stroke="none" stroke-width="1" fill="none" fill-rule="evenodd">
        <g id="聊城登录首页" transform="translate(-607, -2757)" fill-rule="nonzero">
            <g id="服务网点" transform="translate(-1, 2561)">
                <g id="编组" transform="translate(385, 128)">
                    <g id="位置" transform="translate(223.4212, 68)">
                        <rect id="矩形" fill="#000000" opacity="0" x="0" y="0" width="15.9586563" height="16"></rect>
                        <path d="M13.08453,1.97895313 L13.0418732,1.93684375 C11.8475929,0.71578125 10.2694487,0 8.47803618,0 C6.68662367,0 5.10847946,0.71578125 3.91419919,1.89473438 L3.87154236,1.97895313 C2.71993474,3.15789062 1.99483204,4.8 1.99483204,6.61051562 C1.99483204,8.42103125 2.71991891,10.0631719 3.87154236,11.2421094 L3.91419919,11.2842031 L8.47803618,16 L13.0418732,11.3263125 L13.08453,11.2842031 C14.2361376,10.1052656 14.9612403,8.46315625 14.9612403,6.61053125 C14.9612403,4.8 14.2361534,3.15789062 13.08453,1.97895313 Z M8.47803618,8.50526562 C7.2411149,8.50526562 6.21744609,7.452625 6.21744609,6.18948437 C6.21744609,5.64210937 6.38805756,5.17895312 6.68662367,4.8 C7.11314443,4.252625 7.75293348,3.8736875 8.47803618,3.8736875 C9.71495745,3.8736875 10.7386263,4.9263125 10.7386263,6.18946875 C10.7386263,7.452625 9.71495745,8.50526562 8.47803618,8.50526562 L8.47803618,8.50526562 Z" id="形状" fill="#1172E0"></path>
                    </g>
                </g>
            </g>
        </g>
    </g>
</svg>