<?xml version="1.0" encoding="UTF-8"?>
<svg width="32px" height="32px" viewBox="0 0 32 32" version="1.1" xmlns="http://www.w3.org/2000/svg" xmlns:xlink="http://www.w3.org/1999/xlink">
    <title>单箭头</title>
    <g id="页面-1" stroke="none" stroke-width="1" fill="none" fill-rule="evenodd">
        <g id="财务帐套选择" transform="translate(-1813.000000, -523.000000)" fill-rule="nonzero">
            <g id="单箭头" transform="translate(1813.000000, 523.000000)">
                <rect id="矩形" fill="#000000" opacity="0" x="0" y="0" width="32" height="32"></rect>
                <path d="M30,18 L30,17.9375 C29.99875,17.9166667 29.9971875,17.8958333 29.9953125,17.875 L29.9953125,17.8665625 C29.9934375,17.8490625 29.99125,17.83125 29.98875,17.8134375 L29.986875,17.8025 C29.9840625,17.785625 29.98125,17.7690625 29.9778125,17.7521875 C29.9778125,17.74875 29.97625,17.7453125 29.975625,17.7415625 C29.971875,17.725 29.968125,17.708125 29.9640625,17.6915625 C29.9640625,17.68875 29.9640625,17.6859375 29.9615625,17.6828125 C29.9571875,17.665625 29.9521875,17.64875 29.9471875,17.6315625 L29.9453125,17.62625 C29.9396875,17.608125 29.93375,17.5903125 29.9271875,17.5725 C29.8787434,17.4401246 29.8080387,17.316999 29.718125,17.2084375 L29.718125,17.2065625 C29.7059375,17.191875 29.69375,17.1775 29.6809375,17.1634375 C29.6740625,17.1559375 29.666875,17.14875 29.66,17.1415625 C29.653125,17.134375 29.646875,17.1275 29.64,17.120625 L20.879375,8.3615625 C20.3927157,7.87505567 19.6038468,7.87505567 19.1171875,8.3615625 L19.1115625,8.3671875 C18.6250557,8.85384679 18.6250557,9.64271571 19.1115625,10.129375 L25.7321875,16.75 L3.25,16.75 C2.55964406,16.75 2,17.3096441 2,18 C2,18.6903559 2.55964406,19.25 3.25,19.25 L28.8084375,19.25 C29.4536631,19.220494 29.9701555,18.7042725 30,18.0590625 L30,18.0240625 L30,18 Z" id="路径" fill="#333333"></path>
            </g>
        </g>
    </g>
</svg>