<!-- Generator: Adobe Illustrator 25.0.0, SVG Export Plug-In  -->
<svg version="1.1" xmlns="http://www.w3.org/2000/svg" xmlns:xlink="http://www.w3.org/1999/xlink" x="0px" y="0px"
	 width="310.32px" height="58.53px" viewBox="0 0 310.32 58.53" style="overflow:visible;enable-background:new 0 0 310.32 58.53;"
	 xml:space="preserve">
<style type="text/css">
	.st0{fill:#319C8B;}
	.st1{fill-rule:evenodd;clip-rule:evenodd;fill:#009C96;}
	.st2{fill-rule:evenodd;clip-rule:evenodd;fill:#319C8B;}
	.st3{fill:#231815;}
</style>
<defs>
</defs>
<g>
	<path class="st0" d="M78.99,50.82c0.61,1.1,0.92,2.58,1.34,3.8c-0.9,0-1.8,0-2.69,0C78.09,53.36,78.54,52.09,78.99,50.82
		 M77.04,56.28c0.97,0,1.95,0,2.93,0c1.01,0,1.01,0.1,1.31,1c0.25,0.72,0.19,0.93,0.94,1c0.59,0.05,1.21,0,1.8,0
		c-0.77-2.01-1.55-4.01-2.33-6.01c-0.39-1-0.72-2.03-1.17-3c-0.35-0.78-0.68-0.6-1.5-0.6s-1.15-0.18-1.51,0.6
		c-0.44,0.97-0.79,2.01-1.18,3c-0.78,2-1.57,4.01-2.36,6.01c0.47,0,1.96,0.25,2.33,0C76.64,58.04,76.9,56.68,77.04,56.28"/>
	<path class="st0" d="M90.39,53.09c1.1,0,2.21,0,3.31,0c0.21,0,0.64-0.08,0.83,0c0.38,0.17,0.23,0.16,0.27,0.65
		c0.06,0.63,0,1.31,0,1.94c0,0.64,0.05,1.3,0,1.94c-0.05,0.71-0.04,0.65-0.73,0.65c-0.52,0-0.57,0.07-0.79-0.31
		c-0.13-0.22-0.12-0.66-0.17-0.91c-1.03,1.07-2.26,1.59-3.78,1.44c-2.88-0.18-4.59-2.74-4.37-5.48c0.2-2.65,2.2-4.49,4.83-4.59
		c2.04-0.07,4.78,0.82,4.97,3.23c-0.54,0-1.12,0.07-1.66,0c-0.51-0.06-0.43,0.07-0.69-0.41c-0.43-0.76-1.33-1.17-2.17-1.17
		c-2.91,0-4.23,4.21-2.07,6.07c1.61,1.34,4.18,0.63,4.67-1.43c-0.39,0-2.21,0.25-2.46,0C90.23,54.55,90.39,53.35,90.39,53.09"/>
	<path class="st0" d="M99.06,52.87c0-0.4-0.26-2.3,0-2.55c0.26-0.26,2.34-0.03,2.75,0c2.13,0,1.91,2.55-0.16,2.55
		C100.79,52.91,99.92,52.87,99.06,52.87 M96.89,58.27c0.56,0,1.13,0,1.69,0c0.52,0,0.47-0.05,0.47-0.59c0-0.51,0-1.02,0-1.53
		c0-0.34-0.15-1.12,0-1.41c0.16-0.32,0.33-0.24,0.78-0.24c0.79,0,1.69-0.09,2.45,0.1c1.2,0.38,0.7,2.41,0.92,3.41
		c0.12,0.47,1.29,0.26,1.76,0.26c0.38,0,0.74,0.16,0.76-0.24c0-0.02-0.44-0.65-0.46-0.9c-0.04-0.89,0.17-2.01-0.36-2.8
		c-0.23-0.36-0.62-0.52-1-0.68c1.01-0.3,1.64-1.24,1.64-2.28c0-1.82-1.7-2.71-3.33-2.71c-0.89-0.04-1.78,0-2.67,0
		c-0.4,0-2.44-0.26-2.67,0c-0.25,0.28,0,2,0,2.41c0,0.8,0,1.6,0,2.4C96.89,55.07,96.89,56.67,96.89,58.27"/>
	<path class="st0" d="M109.55,58.27c-0.53,0-1.14,0.09-1.66,0c-0.59-0.1-0.48,0.12-0.55-0.6c-0.06-0.59,0-1.21,0-1.8
		c0-1.2,0-2.41,0-3.61c0-0.57-0.37-3.24,0-3.61c0.13-0.14,1.44-0.04,1.66,0c0.59,0.1,0.48-0.12,0.55,0.6c0.06,0.59,0,1.21,0,1.8
		C109.55,53.46,109.55,55.87,109.55,58.27"/>
	<path class="st0" d="M118.34,51.81c-0.53-1.71-2.71-2.23-4.05-0.99c-1.77,1.67-1.1,5.95,1.71,5.95c0.8,0,1.62-0.31,2.04-1.03
		c0.39-0.65,0.18-0.68,0.86-0.77c0.53-0.08,1.12,0,1.65,0c-0.53,2.46-2.67,3.74-5.11,3.52c-2.74-0.22-4.31-2.37-4.31-5.01
		c0-2.65,1.62-4.8,4.35-5.04c2.18-0.16,4.86,0.89,5.07,3.37C119.82,51.81,119.08,51.81,118.34,51.81"/>
	<path class="st0" d="M130.7,54.9c0,3.3-3.58,4.2-6.25,3.32c-1.64-0.57-2.26-1.84-2.26-3.49c0-1.09,0-2.19,0-3.28
		c0-0.53,0-1.06,0-1.59c0-0.57-0.15-1.01,0.28-1.19c0.41-0.18,1.3,0,1.76,0c0.39,0,0.21,2.35,0.21,2.83c0,1.1,0,2.2,0,3.3
		c0,1.8,2.1,2.78,3.52,1.55c0.98-0.86,0.5-3.6,0.5-4.81c0-0.73,0-1.46,0-2.18c0-0.79,0.12-0.69,0.84-0.69c0.4,0,0.8,0,1.19,0
		c0.39,0,0.21,1.45,0.21,1.85C130.7,51.97,130.7,53.43,130.7,54.9"/>
	<path class="st0" d="M135.09,56.53c1.37,0,2.74,0,4.11,0c0.41,0,1.15-0.21,1.15,0.27c0,0.24,0,0.47,0,0.71c0,0.13,0.07,0.56,0,0.65
		c-0.19,0.26-1.33,0.11-1.74,0.11c-1.28,0-2.57,0-3.86,0c-0.28,0-1.7,0.18-1.87,0c-0.2-0.21,0-1.58,0-1.9c0-1.27,0-2.54,0-3.81
		c0-1.27,0-2.54,0-3.81c0-0.14,1.42-0.14,1.66-0.09c0.7,0.13,0.55,0.16,0.55,0.98c0,0.78,0,1.55,0,2.33
		C135.09,53.49,135.09,55.01,135.09,56.53"/>
	<path class="st0" d="M145.26,58.27c-0.58,0-1.15,0-1.73,0c-0.63,0-0.48-0.24-0.48-0.86c0-0.7,0-1.4,0-2.1c0-1.36,0-2.72,0-4.08
		c0-0.78,0.07-0.86-0.7-0.86c-0.43,0-0.86,0-1.3,0c-0.19,0-1.08,0.12-1.2,0c-0.07-0.07,0-0.58,0-0.69c0-0.21,0-0.42,0-0.64
		c0-0.6,0.54-0.37,1.07-0.37c1.48,0,2.96,0,4.44,0c0.72,0,1.44,0,2.15,0c0.72,0,0.78-0.14,0.93,0.43c0.11,0.41,0.04,1.15-0.2,1.28
		c-0.64,0.35-1.88-0.21-2.59,0c-0.37,0.1-0.4-0.15-0.4,0.37c0,0.37,0,0.75,0,1.12c0,0.7,0,1.4,0,2.11
		C145.26,55.39,145.26,56.83,145.26,58.27"/>
	<path class="st0" d="M158.23,54.9c0,3.31-3.58,4.19-6.25,3.32c-1.64-0.57-2.27-1.84-2.27-3.49c0-1.09,0-2.19,0-3.28
		c0-0.53,0-1.06,0-1.59c0-0.57-0.15-1.01,0.28-1.19c0.41-0.18,1.3,0,1.75,0c0.39,0,0.21,2.34,0.21,2.83c0,1.1,0,2.2,0,3.3
		c0,1.82,2.09,2.75,3.52,1.55c0.98-0.85,0.5-3.6,0.5-4.81c0-0.73,0-1.46,0-2.18c0-0.79,0.12-0.69,0.85-0.69c0.4,0,0.79,0,1.19,0
		c0.39,0,0.21,1.45,0.21,1.85C158.23,51.97,158.23,53.43,158.23,54.9"/>
	<path class="st0" d="M162.58,52.87c0-0.4-0.26-2.3,0-2.55c0.27-0.26,2.34-0.03,2.75,0c2.13,0,1.9,2.55-0.16,2.55
		C164.31,52.91,163.44,52.87,162.58,52.87 M160.42,58.27c0.56,0,1.13,0,1.69,0c0.52,0,0.47-0.05,0.47-0.59c0-0.51,0-1.02,0-1.53
		c0-0.34-0.15-1.12,0-1.41c0.16-0.32,0.33-0.24,0.78-0.24c0.79,0,1.68-0.09,2.45,0.1c1.2,0.37,0.7,2.42,0.92,3.41
		c0.11,0.47,1.29,0.26,1.76,0.26c0.37,0,0.74,0.16,0.76-0.24c0-0.03-0.44-0.64-0.46-0.9c-0.04-0.89,0.16-2.01-0.36-2.8
		c-0.23-0.36-0.62-0.52-1-0.68c1.01-0.3,1.64-1.24,1.64-2.28c0-1.82-1.7-2.71-3.33-2.71c-0.89-0.04-1.78,0-2.67,0
		c-0.4,0-2.44-0.26-2.67,0c-0.25,0.28,0,2,0,2.41c0,0.8,0,1.6,0,2.4C160.42,55.07,160.42,56.67,160.42,58.27"/>
	<path class="st0" d="M172.55,58.27c-0.78,0-1.55,0-2.33,0c0.78-2.01,1.57-4.01,2.35-6.01c0.39-1,0.74-2.03,1.18-3
		c0.36-0.78,0.69-0.6,1.51-0.6c0.82,0,1.15-0.18,1.5,0.6c0.44,0.97,0.78,2.01,1.16,3c0.77,2,1.54,4.01,2.33,6.01
		c-0.47,0-2.04,0.26-2.4,0c-0.46-0.34-0.21-1.66-0.68-1.99c-0.29-0.21-3.61-0.2-3.9,0C172.95,56.51,172.69,57.87,172.55,58.27
		 M173.87,54.62c0.9,0,1.79,0,2.69,0c-0.13-0.38-1.1-3.8-1.32-3.8C175.01,50.82,174.01,54.24,173.87,54.62"/>
	<path class="st0" d="M183.89,56.53c1.37,0,2.73,0,4.11,0c0.41,0,1.15-0.21,1.15,0.27c0,0.24,0,0.47,0,0.71c0,0.13,0.07,0.56,0,0.65
		c-0.19,0.26-1.33,0.11-1.74,0.11c-1.29,0-2.57,0-3.86,0c-0.27,0-1.7,0.18-1.87,0c-0.19-0.21,0-1.58,0-1.9c0-1.27,0-2.54,0-3.81
		c0-1.27,0-2.54,0-3.81c0-0.14,1.42-0.14,1.66-0.09c0.7,0.13,0.56,0.16,0.56,0.98c0,0.78,0,1.55,0,2.33
		C183.89,53.49,183.89,55.01,183.89,56.53"/>
	<path class="st0" d="M196.08,54.03c0.93,0,1.88-0.06,2.8,0c2.13,0,1.97,2.58-0.1,2.58c-0.4,0.02-2.46,0.25-2.71,0
		C195.81,56.34,196.08,54.45,196.08,54.03 M193.96,58.27c2.11,0,4.71,0.37,6.73-0.23c2.3-0.66,2.79-4.11,0.36-4.95
		c0.83-0.38,1.29-1.02,1.29-1.96c0-1.76-1.74-2.46-3.25-2.46c-0.85-0.03-1.71,0-2.57,0c-0.39,0-2.33-0.25-2.56,0
		c-0.25,0.27,0,2,0,2.41c0,0.8,0,1.6,0,2.4C193.96,55.07,193.96,56.67,193.96,58.27 M196.08,50.32c0.84,0,1.69-0.04,2.53,0
		c2,0,2.04,2.09,0.05,2.09c-0.38,0.02-2.34,0.24-2.58,0C195.87,52.2,196.08,50.65,196.08,50.32"/>
	<path class="st0" d="M208.77,50.82c0.6,1.1,0.92,2.58,1.34,3.8c-0.9,0-1.8,0-2.69,0C207.87,53.36,208.32,52.09,208.77,50.82
		 M206.82,56.28c0.97,0,1.95,0,2.92,0c1.01,0,1.01,0.1,1.31,1c0.25,0.72,0.19,0.93,0.94,1c0.59,0.05,1.21,0,1.79,0
		c-0.78-2-1.55-4.01-2.32-6.01c-0.39-1-0.73-2.03-1.17-3c-0.35-0.78-0.68-0.6-1.5-0.6s-1.15-0.18-1.51,0.6
		c-0.45,0.97-0.79,2.01-1.18,3c-0.78,2-1.57,4.01-2.36,6.01c0.47,0,1.96,0.25,2.33,0C206.42,58.04,206.68,56.68,206.82,56.28"/>
	<path class="st0" d="M221.66,48.65c0.48,0,1.07-0.09,1.55,0c0.57,0.11,0.45-0.12,0.51,0.6c0.05,0.59,0,1.21,0,1.8
		c0,1.2,0,2.41,0,3.61c0,0.58,0.37,3.24,0,3.61c-0.14,0.14-1.43,0.03-1.66,0c-0.55-0.08-0.54,0.01-0.89-0.54
		c-0.36-0.57-0.72-1.14-1.08-1.71c-0.95-1.51-1.83-3.23-2.93-4.6c0,1.18,0,2.36,0,3.54c0,0.62,0.27,3.06-0.13,3.32
		c-0.28,0.18-1.27,0-1.61,0c-0.54,0-0.32-0.64-0.32-1.11c0-0.63,0-1.26,0-1.9c0-1.23,0-2.47,0-3.7c0-0.6,0-1.2,0-1.8
		c0-0.34,0-0.68,0-1.01c0-0.19,0.29-0.06,0.44-0.09c0.53-0.13,1.27,0,1.82,0c0.47,0,1.88,2.88,2.18,3.35
		c0.69,1.09,1.33,2.37,2.13,3.35C221.66,53.12,221.66,50.89,221.66,48.65"/>
	<path class="st0" d="M228.22,58.27c-0.46,0-0.92,0-1.38,0c-0.15,0-0.57,0.08-0.69,0c-0.24-0.16-0.14-0.83-0.14-1.2
		c0-2,0-4.01,0-6.01c0-0.5,0-1,0-1.5c0-0.52-0.12-0.73,0.27-0.9c0.27-0.12,1.08-0.05,1.38,0c0.43,0.07,0.38-0.11,0.55,0.24
		c0.13,0.26,0,0.93,0,1.22c0,0.82,0,1.63,0,2.45c0.67-0.66,1.34-1.31,2.02-1.96c0.54-0.52,1.34-1.68,2.02-1.95
		c0.69-0.28,2.1,0,2.86,0c-0.9,0.82-1.8,1.64-2.7,2.46c-0.38,0.35-1.09,0.78-1.35,1.23c-0.26,0.45-0.2,0.11,0.02,0.6
		c0.09,0.2,0.35,0.44,0.5,0.62c1.26,1.57,2.53,3.14,3.79,4.71c-0.72,0-2.21,0.29-2.85,0c-0.56-0.26-1.24-1.61-1.63-2.11
		c-0.54-0.7-1.09-1.41-1.63-2.11c-0.67,0.62-1.03,0.84-1.03,1.78C228.22,56.64,228.22,57.46,228.22,58.27"/>
	<path class="st0" d="M242.3,53.46c0-4.33,5.74-4.33,5.74,0C248.04,57.79,242.3,57.79,242.3,53.46 M240.09,53.46
		c0,2.86,1.87,4.9,4.79,5.04c2.91,0.14,5.2-1.71,5.36-4.63c0.16-3-1.68-5.3-4.78-5.45C242.35,48.27,240.09,50.38,240.09,53.46"/>
	<path class="st0" d="M254.23,58.27c-0.57,0-1.15,0-1.72,0s-0.48-0.1-0.48-0.69c0-0.67,0-1.34,0-2.01c0-1.27,0-2.54,0-3.81
		c0-0.6,0-1.2,0-1.8c0-0.76-0.27-1.3,0.59-1.3c1.33,0,2.66,0,3.99,0c0.63,0,1.25,0,1.88,0c0.61,0,0.88-0.15,1.06,0.32
		c0.13,0.33,0,0.97,0,1.33c0,0.09-3.59,0.05-3.99,0.05c-0.4,0-1.16-0.12-1.33,0.14c-0.08,0.12,0,0.59,0,0.74
		c0,0.58-0.14,1.1,0.29,1.29c0.72,0.31,2.26,0,3.05,0c0.17,0,1.31-0.05,1.31,0.05c0,0.19-0.02,0.4,0,0.59
		c0.02,0.25,0.09,1.06-0.15,1.06c-1.02,0-2.04,0-3.05,0c-0.24,0-1.3-0.15-1.46,0c-0.14,0.14,0,1.17,0,1.39
		C254.23,56.5,254.23,57.39,254.23,58.27"/>
	<path class="st0" d="M271.85,51.81c-0.53-1.72-2.71-2.22-4.05-0.99c-1.78,1.67-1.1,5.95,1.71,5.95c0.8,0,1.62-0.31,2.03-1.03
		c0.41-0.65,0.17-0.68,0.86-0.77c0.53-0.07,1.12,0,1.65,0c-0.53,2.46-2.67,3.74-5.11,3.52c-2.74-0.22-4.31-2.37-4.31-5.01
		c0-2.65,1.62-4.8,4.35-5.04c2.2-0.17,4.84,0.89,5.07,3.37C273.32,51.81,272.59,51.81,271.85,51.81"/>
	<path class="st0" d="M277.88,53.95c0,1.12,0,2.25,0,3.37c0,0.48,0.19,0.95-0.35,0.95c-0.3,0-0.6,0-0.9,0c-0.17,0-0.69,0.09-0.83,0
		c-0.28-0.19-0.14-1.27-0.14-1.71c0-1.23,0-2.46,0-3.7c0-1.23,0-2.47,0-3.7c0-0.61,0.09-0.51,0.62-0.51c0.3,0,0.6,0,0.9,0
		c0.43,0,0.52-0.07,0.69,0.23c0.16,0.29,0,1.14,0,1.48c0,0.45,0,0.91,0,1.36c0,0.76,0.33,0.57,1.03,0.57c0.39,0,3.09,0.09,3.09-0.11
		c0-0.95-0.05-1.9,0-2.84c0.03-0.62-0.09-0.54,0.41-0.68c0.26-0.07,0.63,0,0.9,0c0.27,0,0.55,0,0.83,0c0.13,0,0.07,1.58,0.07,1.8
		c0,2.5,0,5.01,0,7.51c0,0.5-1.11,0.3-1.59,0.3c-0.46,0-0.62,0.11-0.62-0.4c0-0.58,0-1.17,0-1.76c0-0.51,0.1-1.12,0-1.62
		c-0.09-0.45,0.11-0.36-0.26-0.54c-0.16-0.08-0.58,0-0.77,0C279.94,53.95,278.91,53.95,277.88,53.95"/>
	<path class="st0" d="M288.41,58.27c-0.52,0-1.14,0.09-1.65,0c-0.6-0.1-0.48,0.12-0.55-0.6c-0.06-0.59,0-1.21,0-1.8
		c0-1.2,0-2.41,0-3.61c0-0.57-0.36-3.24,0-3.61c0.14-0.14,1.44-0.04,1.66,0c0.59,0.1,0.48-0.12,0.55,0.6c0.06,0.59,0,1.21,0,1.8
		C288.41,53.46,288.41,55.87,288.41,58.27"/>
	<path class="st0" d="M296.92,48.65c0.47,0,0.95-0.03,1.42,0c0.16,0.01,0.64-0.08,0.64,0.09c0,0.57,0,1.14,0,1.71
		c0,2.2,0,4.41,0,6.61c0,0.34,0.18,1.2-0.21,1.2c-0.25,0-0.51,0-0.76,0c-0.77,0-1.15,0.15-1.59-0.54c-1.34-2.1-2.65-4.22-3.99-6.32
		c0,0-0.01,0-0.01,0c-0.06,0.94-0.01,1.94-0.01,2.89c0,1.07,0.25,2.5,0,3.54c-0.12,0.5-0.03,0.43-0.58,0.43
		c-0.28,0-0.56,0.02-0.84,0c-0.38-0.03-0.65,0.15-0.65-0.3c0-0.67,0-1.34,0-2.01c0-0.69-0.06-7.31,0.07-7.31
		c0.57,0,1.26-0.11,1.82,0c0.58,0.12,0.61,0.28,0.96,0.83c0.38,0.6,0.75,1.19,1.12,1.79c0.84,1.36,1.66,2.77,2.57,4.08h0.02
		C296.94,53.12,296.92,50.89,296.92,48.65"/>
	<path class="st0" d="M305.29,50.82L305.29,50.82c0,0,0.01,0,0.02,0c0.47,1.24,0.88,2.54,1.31,3.8c-0.9,0-1.79,0-2.69,0
		C304.38,53.35,304.84,52.09,305.29,50.82 M303.35,56.28c0.97,0,1.95,0,2.92,0c1.01,0,1.01,0.1,1.31,1c0.24,0.72,0.19,0.93,0.94,1
		c0.59,0.05,1.21,0,1.8,0c-0.78-2-1.56-4.01-2.33-6.01c-0.38-1-0.72-2.03-1.16-3c-0.36-0.78-0.69-0.6-1.51-0.6
		c-0.82,0-1.15-0.18-1.51,0.6c-0.44,0.97-0.79,2.01-1.18,3c-0.79,2-1.57,4.01-2.36,6.01c0.47,0,1.96,0.25,2.33,0
		C302.94,58.04,303.2,56.68,303.35,56.28"/>
	<path class="st1" d="M27.17,17.96c1.07,0,2.15,0,3.22,0c0.54,0,1.59,0.12,1.9-0.51c0.12-0.18,0.22-0.51,0.22-0.73
		c0.16-0.37,0-1.17,0-1.58c0-0.74,0-1.48,0-2.22c0-2.91,0-5.83,0-8.74c0-0.47,0.09-4.17-0.1-4.17c-0.85,0-1.7,0-2.54,0
		c-0.85,0-1.7,0-2.55,0c-0.41,0-0.81,0-1.22,0c-0.19,0-0.1,1.79-0.1,2.08c0,2.91,0,5.82,0,8.72c0,2.02-0.19,4.13,0.01,6.14
		C26.1,17.52,26.6,17.91,27.17,17.96"/>
	<path class="st2" d="M36.42,0.6c-0.01,3.04-0.02,6.08-0.03,9.12c-0.02,2.8,0.35,5.87-0.04,8.64c-0.24,1.77-4.47,0.62-5.69,1.01
		c-1.28,0.41-0.76,2.82-0.76,3.77c0,1.96,0,3.91,0,5.87c0.52-1.08,2.05-0.71,3.01-0.71c1.62,0,3.53,0.28,5.12-0.03
		c0.65-0.13,0.96-0.7,0.96-1.32C38.79,26.79,39,24.95,39,24.63c0-1.21,0-2.43,0-3.64c0-4.34,0-8.67,0-13.01
		c8.12,3.77,13.42,12.14,13.42,21.08c0,11.39-8.67,21.43-19.99,22.96c0-2.32,0-4.64,0-6.96c0-1.15,0-2.29,0-3.43
		c0-0.56,0-1.11,0-1.67c0-0.24-0.06-0.6,0-0.83c0.15-0.52-0.08-0.26,0.34-0.42c0.71-0.27,7.06,0.77,6.24-1.28
		C38.67,36.87,39,35.21,39,34.55c0-2.03,0.01-4.07-0.01-6.1c0.08,1.61-1.87,1.25-2.92,1.25c-1.59,0-3.35-0.22-4.92,0
		c-1.63,0-1.24,2.1-1.24,3.14c0,1.95,0,3.9,0,5.85c-0.27-0.01-0.79,0.07-1.03-0.04c-0.35-0.16-0.29-0.1-0.29-0.61
		c0-0.53,0-1.05,0-1.58c0-1.01,0-2.02,0-3.03c0-0.87,0.17-1.95-0.03-2.79c-0.25-1.41-2.5-0.95-3.47-0.94
		c-1.51,0.01-3.35,0.31-4.81-0.03c-0.56-0.15-0.81-0.58-0.78-1.15c0,2.29,0,4.58,0,6.87c0,0.74-0.14,1.61,0.02,2.34
		c0.24,1.33,2.05,0.97,3,0.97c0.69,0,1.38,0,2.06,0c0.33,0,0.66,0,0.99,0c0.64,0,0.41,0.57,0.41,1.14c0,4.05,0,8.11,0,12.16
		C14.68,50.48,6.01,40.45,6.01,29.06c0-8.95,5.35-17.35,13.49-21.08c0,4.93,0,9.86,0,14.79c0,1.41,0,2.83,0,4.24
		c0.08,0.78,0.44,1.19,1.24,1.3c1.28,0,2.56,0,3.83,0c1.1,0,3.42-0.54,4.02,0.71c0-2.22,0-4.45,0-6.67c0-1.44,0.32-2.95-1.48-3.06
		c-1.01-0.06-2.05,0-3.07,0c-1.99,0-1.9-0.89-1.9-2.74c0-5.32,0.01-10.64,0.01-15.96C8.57,3.97-0.89,16.98,0.07,30.95
		c1.15,16.66,16.59,29.2,33.13,26.96c14.94-2.02,26.08-15.64,25.22-30.66C57.69,14.67,48.64,3.69,36.42,0.6"/>
	<path class="st3" d="M84.93,24.78c-0.97,0.17-1.83,0.67-2.8,0.83c-0.62,0.08-0.43-0.26-0.68-0.6c-0.42-0.58-0.69-0.96-0.88-1.8
		c-0.13-0.65-0.45-2.4,0.01-2.96c0.55-0.78,2.16-0.98,3.05-1.29c0.62-0.21,1.26-0.66,1.93-0.51c0.54,0.08,0.35,1.75,0.35,2.17
		c0.01,0.8,0.1,1.58,0.09,2.38C85.98,23.96,86.07,24.59,84.93,24.78 M90.84,8.8c-0.2-0.42-0.46-0.57-0.9-0.73
		c-0.97-0.35-2.44-1.12-3.51-1.01c-0.94,0.06-0.83,1.43-0.86,2.13c-0.07,1.56-0.02,3.32,0.15,4.88c0.12,1.68-2.32,1.77-3.55,2.11
		c-1.81,0.5-3.28,1-5.17,1.11c-0.68,0.03-1.69,0.01-1.9,0.82c-0.3,1.29,0.3,2.76,0.79,3.93c0.71,1.74,1.84,3.03,2.94,4.49
		c0.52,0.71,0.87,1.54,1.37,2.26c0.47,0.59,1.41-0.09,1.99-0.29c0.69-0.25,3.64-1.31,3.9-0.38c0.09,0.72,0.32,7.19,0.59,7.19
		c0.01-0.04,0-0.1,0.02-0.13c-0.04,1.17-0.03,2.34-0.03,3.51c0,0.76,0.08,1.65-0.31,2.33c-0.2,0.36-0.66,0.82-0.5,1.28
		c0.09,0.48,1.02,0.79,1.43,0.66c0.49,0,2.29-0.18,2.44-0.77c0.14-0.35-0.12-0.97-0.2-1.34c-0.44-2.11-0.39-4.34-0.41-6.49
		c0.02,0.2,0.02,0.41,0.02,0.61c-0.19-0.53,0.06-1.42,0.1-2c0.11-1.33,0.21-2.66,0.32-3.99c0.04-0.52-0.04-1.29,0.24-1.76
		c0.39-0.55,1.87-0.46,2.48-0.53c1.18-0.15,2.37-0.17,3.56-0.19c0.73-0.01,1.76,0.29,1.92-0.65c0.24-0.86,0-1.83,0.59-2.6
		c0.25-0.4,0.69-0.66,0.96-1.05c0.54-0.79,1.03-1.63,1.67-2.34c0.48-0.56,0.96-0.8,1.53-1.2c1.46-0.97-2.29-2.92-2.68-3.14
		c-1.52-0.84-3.04-1.45-4.79-1.39c-1.05,0.04-2.1,0.07-3.14,0.21c-1.07,0.15-2.13,0.66-2.41-0.63c-0.23-1.06,0-2.53,0.3-3.55
		C89.94,9.64,90.58,9.28,90.84,8.8 M89.77,23.18c-0.39-0.59-0.12-1.63-0.12-2.27c0-0.96-0.15-2.03-0.01-2.98
		c0.17-1.48,5.63-1.52,6.29-0.23c0.38,0.69,0.07,2.1-0.13,2.81c-0.37,1.32-0.83,2.46-2.25,2.61c-0.82,0.09-1.58,0.15-2.39,0.34
		C90.59,23.58,89.46,24.15,89.77,23.18"/>
	<path class="st3" d="M126.5,25.43c-1.92-0.91,0.73-3.82,1.27-1.44c0.07,0.35,1.03,1.42,0.48,1.52
		C127.62,25.62,127.09,25.7,126.5,25.43 M113.84,14.36c-0.92,1.57-0.53,4.14-0.53,5.93c0,1.43-0.08,2.86-0.08,4.29
		c0,1.87-0.03,3.77,0.01,5.64c0.03,1.56,0.28,8.67,2.55,6.28c1.23-1.19,2.82-1.32,4.39-1.49c1.11-0.12,2.19-0.47,3.3-0.7
		c1.61-0.33,3.47-0.64,5.14-0.61c0.89,0.02,1.74,0.38,2.65,0.38c1.11,0,0.88-1.11,0.76-1.96c-0.19-0.94-0.35-1.35-1.35-1.49
		c-0.75-0.12-1.52-0.03-2.28,0.01c-3.16,0.13-6.13,0.9-9.19,1.63c-0.61,0.16-2.25,0.7-2.76,0.13c-1.3-1.18-0.56-3.69-0.45-5.2
		c0.08-1.69,0.38-3.36,0.64-5.04c0.28-1.79,0.44-3.7,0.97-5.43c0.44-1.41,2.26-2.24,3.5-2.88c1.54-0.84,3.52-1.38,5.26-1.57
		c1.04-0.11,2.76-0.5,3.82-0.2c1.3,0.3,1.96,1.53,2.43,2.66c0.56,1.33,0.48,3.31,0.62,4.76c0,4.42,0.59,8.86,0.96,13.25
		c0.16,1.76,0.03,3.24-2.08,3c-0.96-0.06-1.58-0.24-2.38-0.76c-0.55-0.38-1.03-0.42-0.74,0.34c0.91,2.06,3.37,2.95,5.19,4.04
		c0.97,0.58,2.11,1.39,3.32,1.11c1.22-0.3,0.48-1.97,0.48-2.78c0-1.22-0.39-2.42-0.39-3.67c0-2.44,0.02-4.79-0.14-7.23
		c-0.14-2.01,0.19-4.02,0.1-6.04c-0.12-2.71-0.9-5.28,0.12-7.87c0.19-0.48,0.51-1.09-0.07-1.47c-1.56-1.19-4.04-1.5-5.93-1.48
		c-1.92,0.02-3.7,0.19-5.61,0.44c-1.92,0.25-4.12,0.44-5.92,1.18c-1.05,0.46-2.13,0.8-3.22,1.15
		C115.87,13.11,114.48,13.32,113.84,14.36 M116.66,28.52c0,0.37,0.29,1,0.46,1.33c0.38,0.77,1.29,0.14,1.87-0.05
		c1.96-0.68,3.98-0.94,6.04-1.14c1.92-0.19,3.7-0.45,5.62-0.45c1.34,0,2.3,0.05,2.3-1.62c0-1.58-1.09-0.73-1.72-1.43
		c-0.39-0.32-0.48-1.08-0.84-1.48c-0.29-0.34-0.61-0.63-0.69-1.1c-0.21-0.69,0.59-0.85,0.9-1.29c0.21-0.25,0.17-0.28,0.17-0.71
		c0.02-1.58-1.77-1.14-2.9-0.9c-0.93,0.15-1.46,0.15-1.38-0.9c0.03-0.72,0.16-0.76,0.84-0.99c0.77-0.26,1.7-0.43,2.4-0.83
		c0.32-0.11,0.28-0.64,0.62-0.44c0-0.31,0-0.61,0-0.92c0,0.03,0.01,0.25,0.01,0.25c0.17-0.16,0-1.01-0.13-1.19
		c-0.29-0.45-1.31-0.33-1.74-0.31c-1.62,0.05-3.32,0.6-4.84,1.11c-1.32,0.44-3,0.7-4.22,1.36c-0.58,0.32-0.12,1.16-0.12,1.62
		c0,1.34,1.27,0.74,2.16,0.72c0.95-0.05,1.73,0.23,1.54,1.3c-0.16,0.72-1.69,0.68-2.32,0.84c-0.79,0.2-2.28-0.23-2.62,0.72
		c-0.22,0.68,0.12,0.68,0.12,1.02c0,2.14,1.92,1.01,3.24,0.85c0.5-0.06,0.89-0.2,0.89,0.48c0,0.66-0.15,1.63-0.7,2.06
		c-1.14,0.88-3.03,0.99-4.39,1.29C116.76,27.79,116.66,28.08,116.66,28.52"/>
	<path class="st3" d="M161.28,32.8c0.46-2,0.45-3.96,0.8-5.97c0.1-0.88,1.3-0.06,1.78,0.11c1.43,0.34,2.16,0.87,3.31,1.76
		c0.35,0.32,1.35,0.62,1.1,1.25c-0.3,0.56-0.71,1.03-1.14,1.5c-1.19,1.34-3.01,3.51-4.84,3.75
		C160.37,35.47,161.23,33.87,161.28,32.8 M148.69,34.96c1.72,0.54,4.31-0.83,5.71-1.82c0.46-0.33,1.01-0.66,1.41-1.03
		c0.59-0.54,0.52-1.27,0.92-1.96c0.25-0.42,1.94-3.51,2.72-3.09c0.58,0.3,0.06,2.56,0.02,3c-0.12,1.32-0.16,2.59-0.11,3.91
		c0.04,0.97-0.04,3.27,0.65,4.1c0.35,0.63,0.91,1.93,1.7,1.93c0.52-0.07,1.25-1.18,1.75-1.49c2.95-1.86,5.27-5.04,6.15-8.4
		c0.4-0.31,1.48,0.25,1.88,0.45c1.03,0.51,1.69,1.59,2.11,2.62c0.24,0.54,0.38,1.05,0.96,1.26c0.68,0.18,1.47,0.09,2.17,0.09
		c1.36,0.01,2.79,0.07,4.14-0.13c1.19-0.18,2.55-0.45,3.62-1.04c1.4-0.8-1-1.64-1.63-1.83c-2.12-0.65-4.34-1.08-6.54-1.28
		c-1.27-0.08-2.62-1.01-3.79-1.47c-0.81-0.32-1.55-0.68-2.29-1.16c-0.56-0.36-1.52-0.77-1.79-1.42c-0.33-0.72,0.47-0.8,1.05-1.06
		c1.47-0.67,2.58-1.85,3.97-2.64c0.64-0.36,2.69-1.23,2.54-2.08c-0.12-0.67-1.25-1.93-2.03-1.52c-0.77,0.32-1.5,1.42-2.1,1.98
		c-0.9,0.85-1.88,1.61-2.89,2.31c-0.65,0.43-2.32,1.52-3.07,1.27c-0.71-0.22-3.16-1.5-2.95-2.55c0.07-0.51,0.41-1.07,0.65-1.52
		c0.67-1.58,1.07-3.3,1.77-4.84c0.3-0.92,2.54-1.66,3.45-1.66c1.11,0.03,1.85,1.25,1.26,2.21c-0.64,1.08-1.84,1.86-2.82,2.62
		c-0.21,0.16-1.46,0.8-1.22,1.26c0.34,0.66,3.61-0.6,4.03-0.71c1.22-0.34,2.27-1.02,3.26-1.79c0.69-0.55,1.57-0.89,2.2-1.49
		c0.52-0.45-0.42-0.91-0.72-1.1c-0.68-0.43-1.21-1.02-1.88-1.45c-1.33-0.92-2.64-1.34-4.28-1.3c-0.78,0.02-1.47,0.22-2.21,0.46
		c-0.22,0.07-0.56,0.27-0.77,0.17c-0.89-0.43-0.25-2.85-0.14-3.56c0.15-0.95,0.34-1.7,0.63-2.6c0.17-0.58-0.89-0.52-1.21-0.57
		c-1.09-0.17-1.92,0.09-1.94,1.31c-0.02,1.14-0.23,2.24-0.34,3.38c-0.09,0.98,0.23,2.74-0.42,3.56c-0.58,0.67-1.74,0.38-2.32,0.93
		c-0.32,0.3-0.25,0.96-0.19,1.39c0.07,0.48,0.27,0.92,0.82,0.92c0.2,0,0.56-0.33,0.7-0.23c0.43,0.29-0.64,2.59-0.78,2.96
		c-0.82,2-1.89,3.79-3.25,5.47c-0.93,1.15-1.79,2.37-2.82,3.43c-1.62,1.82-3.64,3.19-5.27,5C148.94,34.34,148.74,34.61,148.69,34.96
		 M153.7,21.38c0.96,0.54,2.47,0.55,3.55,0.78c1.1,0.24,1.12-0.31,0.93-1.16c-0.34-1.64-0.08-2.85,0.13-4.45
		c0.12-0.55-0.2-0.96-0.8-0.85c-0.74,0.13-1.6,1.22-2.1,1.73c-0.65,0.67-1.17,1.49-1.72,2.24C153.21,20.32,152.7,20.91,153.7,21.38"
		/>
	<path class="st3" d="M203.05,26.13c-0.34,0.3-0.46,0.75-0.76,1.07c-0.2,0.21-0.43,0.3-0.61,0.55c-0.44,0.63-0.91,1.23-1.36,1.85
		c-0.59,1.23-4.4-2.34-3.59-3.79c0.54-0.92,1.81-0.3,2.69-0.48c1.07-0.25,2.33-0.97,3.15-1.74c0.72-0.67,0.32-1.88,0.25-2.81
		c-0.08-1.03-0.19-2.08-0.19-3.11c-0.03-0.63-0.15-1.64,0.07-2.23c0.7-1.41,2.4-0.47,3.51-0.09c0.92,0.32,1.38,0.48,1.14,1.43
		c-0.25,0.94-0.49,1.58-0.52,2.56c-0.08,2.2-0.06,4.4,0.02,6.6c0.04,0.91,0.17,1.81,0.17,2.72c0.01,0.15-0.05,0.89,0.04,1.02
		c0,0.72,0.8,0.74,1.34,0.59c0.54-0.15,0.83-0.61,1.01-1.11c0.42-1.21,0.5-2.68,0.6-3.97c0.15-1.96,0.19-3.92,0.29-5.88
		c0.12-2.15,0.27-4.3,0.55-6.44c0.15-1.15-0.01-3.06,0.88-3.87c0.92-0.85,3.15,0.53,3.56,1.36c-0.15,0.21-0.34,0.36-0.5,0.56
		c-0.62,0.76-0.75,1.6-0.9,2.58c-0.12,0.81-0.26,1.62-0.32,2.43c-0.12,1.62-0.22,3.26-0.34,4.88c-0.03,0.46-0.46,2.08-0.05,2.47
		c0.34,0.33,1.42-1.14,1.74-1.55c0.51-0.72,1.06-1.42,1.55-2.15c0.44-0.65,0.9-1.6,1.51-2.1c0.44-0.39,1.07-0.11,1.49,0.2
		c0.36,0.27,2.05,1.85,1.78,2.41c-0.32,0.75-1.61,1.11-2.21,1.73c-0.97,1.01-1.93,2.04-2.89,3.05c-0.72,0.7-1.38,1.47-2.3,1.92
		c-0.4,0.21-1.03,0.4-1.26,0.83c-0.23,0.4-0.2,1.5-0.05,1.9c0.34,0.98,1.62,0.14,2.51,0.41c0.71,0.2,1.88-0.18,2.65-0.23
		c0.77-0.05,1.56-0.02,2.32-0.13c1.76,0,3.55-1.62,4.78,0.42c0.68,1.13,1.04,2.69,1.25,3.97c0.08,0.5,0.14,1.14-0.41,1.43
		c-0.51,0.27-1.24-0.26-1.76-0.43c-2.6-0.82-5.12-1.41-7.83-1.19c-2.26,0.18-4.59,0.13-6.83,0.5c-1.8,0.3-3.57,0.77-5.39,1.03
		c-2.33,0.33-4.46,0.89-6.72,1.51c-1.11,0.3-1.97,0.88-2.99,1.38c-0.23,0.13-0.8,0.52-1.08,0.26c-0.52-0.22-1.19-2.08-1.26-2.57
		c-0.17-0.89,1.27-0.8,1.8-0.86c1.11-0.19,2.2-0.44,3.27-0.74c0.89-0.25,1.78-0.53,2.68-0.76c1.4-0.38,3.67-0.85,4.23-2.38
		C204.04,30.44,203.77,26.13,203.05,26.13"/>
	<path class="st3" d="M252.1,31.11c0.27-1.57,1.18-1.85,2.56-1.11c0.81,0.44,1.67,0.64,2.43,1.19c0.83,0.61-0.98,2.46-1.46,2.9
		c-0.42,0.43-3.39,2.4-3.59,0.95C251.84,33.85,251.9,32.28,252.1,31.11 M235.72,24.79c-0.51,0.59-1.71,2.11-1.42,3
		c0.34,1.06,3.62-1.11,4.06-1.47c1.69-1.4,1.21-1.49,2.47,0.4c0.46,0.64,1.35,1.02,0.45,1.8c-0.54,0.5-1.34,0.98-2.1,0.98
		c-0.39,0-0.93-0.11-1.31-0.01c-1.24,0.32-0.55,2.64-0.11,3.46c0.35,0.77,1.35-0.03,1.88-0.21c0.87-0.25,1.63-0.57,1.63,0.56
		c0,0.4,0,0.79,0,1.19c0,0.8,0.12,5.27,1.31,4.77c0.35,0,0.82-0.58,1.1-0.76c0.52-0.32,1.03-0.52,1.46-0.98
		c1.13-1.19,2.34-2.9,2.96-4.46c0.35-0.74,1.35-2.48,0.86-3.21c-0.18-0.46-2.59,2.74-2.82,2.98c-0.65,0.7-2.67,2.25-2.67,0.25
		c0-1.3,0.98-1.78,1.81-2.53c0.91-0.82,2-1.81,2.28-3.04c0.07-0.5,0-1.31-0.67-1.31c-0.66-0.12-1.63,0.72-1.43-0.48
		c0.23-0.89,0.99-1.43,1.28-2.28c0.21-0.53,0.31-1.18,0.15-1.73c-0.5-1.33-2.23-0.69-3.11-0.17c-0.32,0.19-3.09,2.2-3.09,0.69
		c-0.08-1.3,2.24-4.69,3.86-4.19c0.92,0.28,1.49,1.46,2.49,1.24c1.19-0.28,2.68-1.87,2.32-3.18c-0.54-1.53-1.53-0.8-2.72-0.64
		c-1.47,0.33-0.38-1.35-0.03-1.78c0.63-0.79,1.75-1.54,1.25-2.59c-0.52-1.08-3.14-3.24-3.33-0.96c-0.24,1.89-1.63,4.09-2.65,5.64
		C239.87,18.83,237.94,21.89,235.72,24.79 M254.92,26.26c0.08-0.46,0.69-0.83,1.04-1.09c0.99-0.68,2.09-1.27,2.97-2.1
		c0.68-0.71,1.03-1.72,1.33-2.64c0.6-1.87,0.89-3.82,1.54-5.68c0.56-1.61,1.1-2.09-0.92-2.98c-1.75-0.84-3.72-0.05-5.36,0.65
		c-0.7,0.3-1.46,0.48-2.12,0.88c-0.53,0.3-1.04,0.67-1.54,1.01c-0.51,0.34-1.27,0.55-1.69,1c-0.24,0.27-0.17,0.63-0.09,0.96
		c0.25,1.15,0.32,2.24,0.3,3.43c-0.05,2.77-0.35,5.49-0.53,8.25c-0.15,2.37,0.14,4.94,0.44,7.3c0.11,0.87,0.4,5.72,1.76,5.72
		c1.17,0,2-1.36,2.72-2.1c0.6-0.65,1.41-1.48,1.84-2.23c0.57-0.61,0.97-1.61,1.39-2.34c0.27-0.51,0.44-2.31,1.35-2.01
		c1.46,0.23,2.61,1.05,3.31,2.37c0.36,0.63,0.26,1.9,1.1,2.09c0.32,0.07,0.71,0,1.05,0c0.95,0,1.89,0.25,2.85,0.25
		c1.35,0,3.53-0.27,4.41-1.58c0.72-1.21-6.79-2.8-7.89-3.28c-1.42-0.62-2.82-1.26-4.23-1.89c-0.71-0.33-2.74-1.17-1.38-2.01
		c1.49-0.93,2.94-2.05,4.03-3.45c1.12-1.44,2.97-2.33,1.04-4.13c-0.43-0.44-0.83-0.05-1.16,0.29c-0.72,0.8-1.48,1.52-2.29,2.22
		c-0.92,0.8-1.79,1.6-2.9,2.13C256.75,25.51,255.55,26.42,254.92,26.26 M253.57,21.52c0.6-0.43,1.13-0.83,1.62-1.37
		c0.37-0.41,1-0.77,1.28-1.23c0.32-0.45,0.42-1.42-0.19-1.68c-0.72-0.33-1.56,0.17-2.15,0.53c-1.12,0.7-0.81-0.19-0.41-0.86
		c0.31-0.62,1.1-1.48,1.6-1.95c0.84-0.79,1.99-0.58,2.03,0.68c0.07,1.26-0.15,2.45-0.41,3.67c-0.25,1.18-0.28,2.03-1.35,2.72
		c-0.78,0.46-1.61,1.38-2.53,1.49C252.37,23.56,253.28,21.74,253.57,21.52"/>
	<path class="st3" d="M288.02,19.84c0.57,0,2.27,0.97,2.01,1.74c-0.15,0.65-0.9,1.15-1.3,1.64c-0.45,0.62-0.3,1.38-0.48,2.1
		c-0.27,1.08-0.3,2.09-0.44,3.19c-0.14,1.01-0.4,2.08-0.34,3.1c0.03,0.53-0.2,3.23-0.02,3.37c0.06,0.68,0.41,1.44,0.29,2.14
		c-0.12,1.1-2.03,1.54-2.56,0.55c-0.35-0.55,0.03-1.62,0.03-2.26c0-0.84,0.14-1.72,0.19-2.55c0.09-1.39,0.24-2.72,0.08-4.12
		c-0.07-0.6-0.26-2.16-0.97-1.2c-0.66,0.71-1.2,1.62-1.2,2.6c0,0.98-2.56,2.4-3.19,2.63c-0.99,0.48-3.22,0.82-2.03-0.7
		c0.47-0.61,1.11-1.07,1.64-1.64c2.11-2.39,4.14-4.82,5.77-7.56C285.97,22.1,286.93,19.84,288.02,19.84 M282.93,20.51
		c0.52-2.84,2.94-5.16,4.23-7.65c0.75-1.56,2.36,0.17,3.12,0.89c1.08,0.99-0.01,1.75-0.78,2.53c-1.04,1.06-2.17,1.96-3.31,2.92
		C285.98,19.38,282.93,22.4,282.93,20.51 M297.08,21.11c1.17-0.4,2.33-0.81,3.53-1.12c1.06-0.27,2.11-0.25,3.17-0.44
		c1.32-0.23,2.63-0.5,3.98-0.44c1.99,0.09,3.42,4.87,1.41,4.44c-1.79-0.22-4.42-1.15-5.14,1.15c-0.26,0.84-0.14,1.72-0.14,2.58
		c0,0.35,0.09,1.13-0.05,1.42c-0.29,0.48-0.03,1.57,0,2.11c0.03,0.63-0.23,1.61-0.01,2.18c0.18,0.67,0.05,1.86,0.05,2.59
		c0,1.03,1.39,5.44-0.01,5.44c-0.6,0-1.64-0.25-2.19-0.48c-0.57,0-1.34-0.45-1.9-0.62c-0.65-0.2-1.31-0.38-1.95-0.59
		c-1.46-0.43-2.32-1.24-3.5-2.08c-0.19-0.13-2.63-1.82-2-2.09c0.38-0.19,1.26,0.38,1.58,0.52c1.58,0.49,3.34,0.99,4.98,1.06
		c1.65,0.07,2.22-0.51,2.11-2.1c-0.08-0.84-0.08-1.7-0.14-2.55c-0.14-1.92-0.13-3.89-0.42-5.8c-0.24-1.52-0.42-2.5-2.13-2.42
		c-1.18,0.04-2.39,0.24-3.5,0.63c-0.85,0.26-1.55,0.59-2.36,0.96c-0.64,0.35-1-0.5-1.28-0.93c-0.34-0.54-1.11-1.3-0.63-1.97
		c0.21-0.25,0.69-0.23,0.97-0.29c1.04-0.29,2.1-0.49,3.17-0.62C295.49,21.55,296.31,21.39,297.08,21.11 M293.93,15.58
		c0-0.83,1.27-0.71,1.84-0.76c1.88-0.36,3.64-1.32,5.5-1.78c1.01-0.24,2.52-0.98,3.13,0.28c0.3,0.61,0.86,1.71,0.13,2.23
		c-1.74,1.15-3.81,2.48-5.94,2.61c-0.83,0.05-1.68,0.2-2.51,0.2c-0.41,0-0.87,0.45-1.21-0.03C294.69,18.05,293.65,15.9,293.93,15.58
		"/>
</g>
</svg>
