<?xml version="1.0" standalone="no"?><!DOCTYPE svg PUBLIC "-//W3C//DTD SVG 1.1//EN" "http://www.w3.org/Graphics/SVG/1.1/DTD/svg11.dtd"><svg t="1655189884363" class="icon" viewBox="0 0 1024 1024" version="1.1" xmlns="http://www.w3.org/2000/svg" p-id="7887" xmlns:xlink="http://www.w3.org/1999/xlink" width="32" height="32"><defs><style type="text/css">@font-face { font-family: feedback-iconfont; src: url("//at.alicdn.com/t/font_1031158_u69w8yhxdu.woff2?t=1630033759944") format("woff2"), url("//at.alicdn.com/t/font_1031158_u69w8yhxdu.woff?t=1630033759944") format("woff"), url("//at.alicdn.com/t/font_1031158_u69w8yhxdu.ttf?t=1630033759944") format("truetype"); }
</style></defs><path d="M789.344 627.2l8.544 12.8 46.944 85.344 8.544 12.8-8.544 12.8-46.944 85.344-8.544 12.8h-132.256l-8.544-12.8-46.944-85.344-4.256-12.8 8.544-12.8L652.832 640l8.544-12.8h128z m21.312-132.256c-8.544 0-12.8 4.256-17.056 12.8l-21.344 34.144h-98.144l-21.344-34.144c-4.256-8.544-12.8-12.8-17.056-12.8s-8.544 0-12.8 4.256l-59.744 38.4c-8.544 4.256-12.8 17.056-8.544 29.856l21.344 34.144-46.944 85.344h-38.4c-12.8 0-21.344 8.544-21.344 21.344v68.256c0 12.8 8.544 21.344 21.344 21.344h38.4l46.944 85.344-21.344 34.144a22.496 22.496 0 0 0 8.544 29.856l59.744 38.4c4.256 0 8.544 4.256 12.8 4.256 8.544 0 12.8-4.256 17.056-12.8l21.344-34.144h98.144l21.344 34.144c4.256 8.544 12.8 12.8 17.056 12.8s8.544 0 12.8-4.256l59.744-38.4c8.544-4.256 12.8-17.056 8.544-29.856l-21.344-34.144 46.944-85.344h38.4c12.8 0 21.344-8.544 21.344-21.344v-68.256c0-12.8-8.544-21.344-21.344-21.344h-38.4L870.4 601.6l21.344-34.144a22.496 22.496 0 0 0-8.544-29.856l-59.744-38.4c-4.256-4.256-8.544-4.256-12.8-4.256z" p-id="7888" fill="#ffffff"></path><path d="M810.656 738.144L768 814.944h-85.344L640 738.144l42.656-72.544H768z" p-id="7889" fill="#ffffff"></path><path d="M426.656 554.656v-128h-128v128h128zM512 29.856L17.056 435.2l55.456 64 55.456-42.656v524.8h371.2c-25.6-25.6-51.2-51.2-68.256-85.344h-217.6V384l298.656-243.2 443.744 362.656 51.2-68.256L511.968 29.856z" p-id="7890" fill="#ffffff"></path></svg>