<?xml version="1.0" encoding="UTF-8"?>
<svg width="26px" height="26px" viewBox="0 0 26 26" version="1.1" xmlns="http://www.w3.org/2000/svg" xmlns:xlink="http://www.w3.org/1999/xlink">
    <title>编组</title>
    <g id="页面-1" stroke="none" stroke-width="1" fill="none" fill-rule="evenodd">
        <g id="备案审核-待处理" transform="translate(-20.000000, -1030.000000)">
            <g id="编组" transform="translate(20.000000, 1030.000000)">
                <rect id="矩形" fill="#62DCF0" opacity="0.19069179" x="0" y="0" width="26" height="26" rx="8"></rect>
                <g id="信息变更" transform="translate(5.000000, 5.000000)" fill-rule="nonzero">
                    <rect id="矩形" fill="#000000" opacity="0" x="0" y="0" width="16" height="16"></rect>
                    <path d="M13.8571429,2 C14.5714286,2 15.1428571,2.57142858 15.1428571,3.28571428 L15.1428571,8.45714286 C14.4857143,7.82857144 13.5714286,7.42857144 12.5714286,7.42857142 C10.5142857,7.42857142 8.85714286,9.08571428 8.85714286,11.1428571 C8.85714286,12.2857143 9.37142858,13.3142857 10.2,14 L2.14285714,14 C1.42857142,14 0.857142859,13.4285714 0.857142859,12.7428571 L0.857142859,3.28571428 C0.857142859,2.6 1.42857142,2 2.14285714,2 L13.8571429,2 Z M14.4,11.3428571 L15.4,11.5428571 C15.1428571,12.8 14.0571429,13.7428571 12.7428571,13.7428571 C12.1714286,13.7428571 11.6285714,13.5714286 11.2,13.2571429 L11.0571429,13.4857143 C11.0285714,13.5142857 11,13.5428571 10.9714286,13.5428571 C10.8857143,13.5714286 10.8,13.5428571 10.7714286,13.4857143 L10.7714286,13.4571429 L10.2,12 L10.2,11.9428571 C10.2,11.8571429 10.2571429,11.8 10.3428571,11.7714286 L11.9142857,11.7714286 C11.9428571,11.7714286 11.9714286,11.7714286 12,11.8 C12.0571429,11.8571429 12.0857143,11.9428571 12.0571429,12 L12.0571429,12.0285714 L11.8571429,12.3142857 C12.1428571,12.5428571 12.4857143,12.6857143 12.8857143,12.6857143 C13.6285714,12.6857143 14.2857143,12.0857143 14.4,11.3428571 L14.4,11.3428571 Z M12.6571429,8.28571428 C13.2285714,8.28571428 13.7714286,8.45714286 14.2,8.77142858 L14.3428571,8.54285714 C14.3714286,8.51428572 14.4,8.48571428 14.4285714,8.48571428 C14.5142857,8.45714286 14.6,8.48571428 14.6285714,8.54285714 L14.6285714,8.57142858 L15.2,10.0285714 L15.2,10.0857143 C15.2,10.1714286 15.1428571,10.2285714 15.0571429,10.2571429 L13.4857143,10.2571429 C13.4571429,10.2571429 13.4285714,10.2571429 13.4,10.2285714 C13.3428571,10.1714286 13.3142857,10.0857143 13.3428571,10.0285714 L13.3428571,10 L13.5428571,9.71428572 C13.2571429,9.4857143 12.9142857,9.34285714 12.5142857,9.34285714 C11.7142857,9.34285714 11.0571429,9.91428572 10.9714286,10.6857143 L10,10.4857143 C10.2571429,9.22857142 11.3428571,8.28571428 12.6571429,8.28571428 L12.6571429,8.28571428 Z M4,7.34285714 L3.88571428,7.37142858 C3.77142856,7.4 3.62857142,7.45714286 3.51428572,7.48571428 L3.4,7.54285714 L2.42857142,7.97142858 C2.17142856,8.0857143 2,8.34285716 1.97142858,8.6 L1.97142858,8.91428572 C1.97142858,9.02857144 2.05714286,9.14285714 2.2,9.17142858 L7.37142858,9.17142858 C7.4857143,9.17142858 7.57142858,9.05714286 7.6,8.94285714 L7.6,8.65714286 C7.6,8.37142858 7.45714286,8.11428572 7.2,8 L7.14285714,7.97142858 L6.17142858,7.54285714 C6,7.45714286 5.82857144,7.4 5.65714286,7.37142858 L5.57142858,7.34285714 C5.0857143,7.22857142 4.54285716,7.22857142 4,7.34285714 Z M4.82857142,3.14285714 C3.82857142,3.14285714 3.02857142,3.94285714 3.02857142,4.91428572 C3.02857142,5.6 3.42857142,6.2 4,6.48571428 C4.25714286,6.6 4.51428572,6.68571428 4.82857142,6.68571428 C5.14285712,6.68571428 5.4,6.62857142 5.65714286,6.48571428 C6.22857144,6.2 6.62857142,5.6 6.62857142,4.91428572 C6.6,3.94285714 5.8,3.14285714 4.82857142,3.14285714 Z" id="形状" fill="#4BC1D4"></path>
                </g>
            </g>
        </g>
    </g>
</svg>