<?xml version="1.0" encoding="UTF-8"?>
<svg width="46px" height="46px" viewBox="0 0 46 46" version="1.1" xmlns="http://www.w3.org/2000/svg" xmlns:xlink="http://www.w3.org/1999/xlink">
    <title>编组 26</title>
    <defs>
        <linearGradient x1="50%" y1="0%" x2="50%" y2="100%" id="linearGradient-1">
            <stop stop-color="#FFB96F" offset="0%"></stop>
            <stop stop-color="#FE833C" offset="100%"></stop>
        </linearGradient>
        <path d="M3.36249934,14.485752 C5.2430319,13.3527024 6.85553124,14.2342021 6.85553124,14.2342021 C6.85553124,14.2342021 6.88656768,14.2566003 6.94609919,14.2984086 L7.0564501,14.3753051 C7.58079761,14.7381332 9.08522367,15.7459381 11.0207962,16.7532844 C13.4409786,18.1386005 15.1860612,17.6362173 15.1860612,17.6362173 C16.1248941,17.6362173 21.2304254,14.1087854 22.4401582,14.7394519 C23.5137244,15.2425516 23.3811412,16.3770345 22.840058,16.6278677 L22.840058,16.6278677 L14.9151613,22.1712821 C13.6709488,22.8720226 12.0826579,22.2750955 11.8541825,22.182817 L11.8263292,22.1712821 C11.8263292,22.1712821 7.25829775,20.154583 5.24374857,20.154583 C3.22633273,20.154583 1.75,21.791449 1.75,21.791449 L1.75,21.791449 L1.75,15.3679683 C2.3022608,15.1017193 2.84047068,14.8072587 3.36249934,14.485752 Z M14.1462327,1.16666667 C18.2176731,1.16666667 21.5900326,4.53980993 21.5900326,8.61046655 C21.5900326,12.6842581 18.2200243,16.0574013 14.1462327,16.0574013 C10.0716575,16.0574013 6.69929798,12.5439717 6.69929798,8.47096387 C6.69929798,4.39952353 10.0708738,1.16666667 14.1462327,1.16666667 Z" id="path-2"></path>
        <filter x="-32.6%" y="-23.4%" width="165.1%" height="165.6%" filterUnits="objectBoundingBox" id="filter-3">
            <feOffset dx="0" dy="2" in="SourceAlpha" result="shadowOffsetOuter1"></feOffset>
            <feGaussianBlur stdDeviation="2" in="shadowOffsetOuter1" result="shadowBlurOuter1"></feGaussianBlur>
            <feColorMatrix values="0 0 0 0 0.762304776   0 0 0 0 0.432182044   0 0 0 0 0.183739164  0 0 0 0.597193578 0" type="matrix" in="shadowBlurOuter1"></feColorMatrix>
        </filter>
        <filter x="-27.9%" y="-18.7%" width="155.8%" height="156.2%" filterUnits="objectBoundingBox" id="filter-4">
            <feGaussianBlur stdDeviation="1.5" in="SourceAlpha" result="shadowBlurInner1"></feGaussianBlur>
            <feOffset dx="0" dy="1" in="shadowBlurInner1" result="shadowOffsetInner1"></feOffset>
            <feComposite in="shadowOffsetInner1" in2="SourceAlpha" operator="arithmetic" k2="-1" k3="1" result="shadowInnerInner1"></feComposite>
            <feColorMatrix values="0 0 0 0 1   0 0 0 0 0.615686275   0 0 0 0 0.333333333  0 0 0 0.234549996 0" type="matrix" in="shadowInnerInner1"></feColorMatrix>
        </filter>
    </defs>
    <g id="首页" stroke="none" stroke-width="1" fill="none" fill-rule="evenodd">
        <g id="6月13右侧" transform="translate(-401.000000, -385.000000)">
            <g id="编组-17" transform="translate(391.000000, 385.000000)">
                <g id="编组-26" transform="translate(10.000000, 0.000000)">
                    <circle id="椭圆形" fill="url(#linearGradient-1)" cx="23" cy="23" r="23"></circle>
                    <g id="出纳付款-2" transform="translate(10.000000, 11.000000)" fill-rule="nonzero">
                        <g id="出纳付款">
                            <rect id="矩形" fill="#000000" opacity="0" x="0" y="0" width="24" height="24"></rect>
                            <g id="路径-2">
                                <use fill="black" fill-opacity="1" filter="url(#filter-3)" xlink:href="#path-2"></use>
                                <use fill="#FFFFFF" xlink:href="#path-2"></use>
                                <use fill="black" fill-opacity="1" filter="url(#filter-4)" xlink:href="#path-2"></use>
                            </g>
                            <path d="M13.9292347,10 L11.6792347,10 C11.2650212,10 10.9292347,9.66421356 10.9292347,9.25 C10.9292347,8.83578644 11.2650212,8.5 11.6792347,8.5 L12.8687347,8.5 L11.1489847,6.78025 C10.9540173,6.59194415 10.8758253,6.31309158 10.9444619,6.05086951 C11.0130985,5.78864743 11.2178822,5.58386371 11.4801043,5.51522713 C11.7423263,5.44659055 12.0211789,5.52478256 12.2094847,5.71975 L14.6792347,8.1895 L17.1489847,5.71975 C17.4432689,5.43552084 17.9110483,5.43958572 18.2003487,5.72888607 C18.489649,6.01818642 18.4937139,6.48596583 18.2094847,6.78025 L16.4897347,8.5 L17.6792347,8.5 C18.0934483,8.5 18.4292347,8.83578644 18.4292347,9.25 C18.4292347,9.66421356 18.0934483,10 17.6792347,10 L15.4292347,10 L15.4292347,10.75 L16.9292347,10.75 C17.3434483,10.75 17.6792347,11.0857864 17.6792347,11.5 C17.6792347,11.9142136 17.3434483,12.25 16.9292347,12.25 L15.4292347,12.25 L15.4292347,13 C15.4292347,13.4142136 15.0934483,13.75 14.6792347,13.75 C14.2650212,13.75 13.9292347,13.4142136 13.9292347,13 L13.9292347,12.25 L12.4292347,12.25 C12.0150212,12.25 11.6792347,11.9142136 11.6792347,11.5 C11.6792347,11.0857864 12.0150212,10.75 12.4292347,10.75 L13.9292347,10.75 L13.9292347,10 Z" id="路径" fill="#FEA55C"></path>
                        </g>
                    </g>
                </g>
            </g>
        </g>
    </g>
</svg>