<?xml version="1.0" encoding="UTF-8"?>
<svg width="562px" height="207px" viewBox="0 0 562 207" version="1.1" xmlns="http://www.w3.org/2000/svg" xmlns:xlink="http://www.w3.org/1999/xlink">
    <title>img/底座</title>
    <defs>
        <linearGradient x1="50.0012345%" y1="0.00894454383%" x2="50.0012345%" y2="100.008945%" id="linearGradient-1">
            <stop stop-color="#0027AA" stop-opacity="0" offset="0%"></stop>
            <stop stop-color="#11D1FF" offset="100%"></stop>
        </linearGradient>
        <linearGradient x1="50.0354782%" y1="-2.21919408%" x2="50.0354782%" y2="102.822659%" id="linearGradient-2">
            <stop stop-color="#0027AA" stop-opacity="0" offset="0%"></stop>
            <stop stop-color="#053DB5" stop-opacity="0.13" offset="15%"></stop>
            <stop stop-color="#1375D2" stop-opacity="0.47" offset="50%"></stop>
            <stop stop-color="#29CDFF" offset="100%"></stop>
        </linearGradient>
        <linearGradient x1="50%" y1="0%" x2="50%" y2="100%" id="linearGradient-3">
            <stop stop-color="#53E8FF" stop-opacity="0.140981821" offset="0%"></stop>
            <stop stop-color="#29CDFF" offset="100%"></stop>
        </linearGradient>
        <radialGradient cx="49.9675673%" cy="100.000226%" fx="49.9675673%" fy="100.000226%" r="100.000452%" gradientTransform="translate(0.499676,1.000002),scale(0.249937,1.000000),rotate(-90.000000),scale(1.000000,2.149175),translate(-0.499676,-1.000002)" id="radialGradient-4">
            <stop stop-color="#0092FF" stop-opacity="0.5" offset="0%"></stop>
            <stop stop-color="#073FFF" stop-opacity="0" offset="100%"></stop>
        </radialGradient>
        <linearGradient x1="50%" y1="-1.46970606%" x2="50%" y2="101.4997%" id="linearGradient-5">
            <stop stop-color="#0027AA" stop-opacity="0" offset="0%"></stop>
            <stop stop-color="#053DB5" stop-opacity="0.13" offset="15%"></stop>
            <stop stop-color="#1375D2" stop-opacity="0.47" offset="50%"></stop>
            <stop stop-color="#29CDFF" offset="100%"></stop>
        </linearGradient>
        <radialGradient cx="49.9675673%" cy="100.000226%" fx="49.9675673%" fy="100.000226%" r="100.000452%" gradientTransform="translate(0.499676,1.000002),scale(0.249900,1.000000),rotate(-90.000000),scale(1.000000,2.149175),translate(-0.499676,-1.000002)" id="radialGradient-6">
            <stop stop-color="#0092FF" stop-opacity="0.5" offset="0%"></stop>
            <stop stop-color="#073FFF" stop-opacity="0" offset="100%"></stop>
        </radialGradient>
        <linearGradient x1="50%" y1="-1.40765766%" x2="50%" y2="101.407658%" id="linearGradient-7">
            <stop stop-color="#0027AA" stop-opacity="0" offset="0%"></stop>
            <stop stop-color="#053DB5" stop-opacity="0.13" offset="15%"></stop>
            <stop stop-color="#1375D2" stop-opacity="0.47" offset="50%"></stop>
            <stop stop-color="#29CDFF" offset="100%"></stop>
        </linearGradient>
        <linearGradient x1="50%" y1="-4.85672657%" x2="50%" y2="104.856727%" id="linearGradient-8">
            <stop stop-color="#0027AA" stop-opacity="0" offset="0%"></stop>
            <stop stop-color="#053DB5" stop-opacity="0.13" offset="15%"></stop>
            <stop stop-color="#1375D2" stop-opacity="0.47" offset="50%"></stop>
            <stop stop-color="#29CDFF" offset="100%"></stop>
        </linearGradient>
        <radialGradient cx="50%" cy="48.3011825%" fx="50%" fy="48.3011825%" r="141.542372%" gradientTransform="translate(0.500000,0.483012),scale(0.354124,1.000000),translate(-0.500000,-0.483012)" id="radialGradient-9">
            <stop stop-color="#0027AA" stop-opacity="0" offset="0%"></stop>
            <stop stop-color="#0333B0" stop-opacity="0.01" offset="59%"></stop>
            <stop stop-color="#0E5FC7" stop-opacity="0.03" offset="80%"></stop>
            <stop stop-color="#21ACEE" stop-opacity="0.08" offset="96%"></stop>
            <stop stop-color="#29CDFF" stop-opacity="0.1" offset="100%"></stop>
        </radialGradient>
        <linearGradient x1="50%" y1="-0.809847749%" x2="50%" y2="100.793651%" id="linearGradient-10">
            <stop stop-color="#0027AA" stop-opacity="0" offset="0%"></stop>
            <stop stop-color="#053DB5" stop-opacity="0.13" offset="15%"></stop>
            <stop stop-color="#1375D2" stop-opacity="0.47" offset="50%"></stop>
            <stop stop-color="#29CDFF" offset="100%"></stop>
        </linearGradient>
        <linearGradient x1="50%" y1="-0.50586807%" x2="50%" y2="100.485633%" id="linearGradient-11">
            <stop stop-color="#0027AA" stop-opacity="0" offset="0%"></stop>
            <stop stop-color="#053DB5" stop-opacity="0.13" offset="15%"></stop>
            <stop stop-color="#1375D2" stop-opacity="0.47" offset="50%"></stop>
            <stop stop-color="#29CDFF" offset="100%"></stop>
        </linearGradient>
        <linearGradient x1="50%" y1="-0.617283951%" x2="50%" y2="100.617284%" id="linearGradient-12">
            <stop stop-color="#0027AA" stop-opacity="0" offset="0%"></stop>
            <stop stop-color="#053DB5" stop-opacity="0.13" offset="15%"></stop>
            <stop stop-color="#1375D2" stop-opacity="0.47" offset="50%"></stop>
            <stop stop-color="#29CDFF" offset="100%"></stop>
        </linearGradient>
        <linearGradient x1="50%" y1="-0.272568687%" x2="50%" y2="100.27802%" id="linearGradient-13">
            <stop stop-color="#0027AA" stop-opacity="0" offset="0%"></stop>
            <stop stop-color="#053DB5" stop-opacity="0.13" offset="15%"></stop>
            <stop stop-color="#1375D2" stop-opacity="0.47" offset="50%"></stop>
            <stop stop-color="#29CDFF" offset="100%"></stop>
        </linearGradient>
        <linearGradient x1="50%" y1="-0.436046512%" x2="50%" y2="100.427497%" id="linearGradient-14">
            <stop stop-color="#0027AA" stop-opacity="0" offset="0%"></stop>
            <stop stop-color="#053DB5" stop-opacity="0.13" offset="15%"></stop>
            <stop stop-color="#1375D2" stop-opacity="0.47" offset="50%"></stop>
            <stop stop-color="#29CDFF" offset="100%"></stop>
        </linearGradient>
        <radialGradient cx="50%" cy="100.196618%" fx="50%" fy="100.196618%" r="67.0527785%" gradientTransform="translate(0.500000,1.001966),scale(0.287295,1.000000),rotate(90.000000),scale(1.000000,1.544587),translate(-0.500000,-1.001966)" id="radialGradient-15">
            <stop stop-color="#C5DDFF" offset="0%"></stop>
            <stop stop-color="#9AE8FF" stop-opacity="0" offset="100%"></stop>
        </radialGradient>
        <ellipse id="path-16" cx="280" cy="97.513289" rx="231.294009" ry="66.4494989"></ellipse>
        <linearGradient x1="50%" y1="-1.9679874%" x2="50%" y2="101.967987%" id="linearGradient-17">
            <stop stop-color="#0027AA" stop-opacity="0" offset="0%"></stop>
            <stop stop-color="#053DB5" stop-opacity="0.13" offset="15%"></stop>
            <stop stop-color="#1375D2" stop-opacity="0.47" offset="50%"></stop>
            <stop stop-color="#29CDFF" offset="100%"></stop>
        </linearGradient>
    </defs>
    <g id="综合业务监管可视化平台" stroke="none" stroke-width="1" fill="none" fill-rule="evenodd">
        <g id="编组-23" transform="translate(1.000000, -112.503546)">
            <g id="img/底座" transform="translate(0.000000, 113.071949)">
                <path d="M262.37029,28.5354677 L264.121371,29.8320433 L265.829216,29.8320433 L267.526251,29.7780193 L269.212477,29.7780193 L270.898703,29.7780193 L269.396232,28.4814438 L267.645151,28.4814438 L265.89407,28.4814438 L264.13218,28.4814438 L262.37029,28.5462725 M249.593885,29.0757076 L247.799568,29.1729507 L246.00525,29.2701939 L244.210933,29.3674371 L242.416615,29.475485 L244.956763,30.7828654 L246.664608,30.6748175 L248.39407,30.5775743 C248.966955,30.5775743 249.539839,30.5127455 250.112724,30.4803311 L251.831377,30.3398688 L249.583076,29.0324884 M272.1958,28.2329334 L273.590179,29.529509 L275.276405,29.529509 L276.962631,29.529509 L278.648857,29.529509 L280.313465,29.529509 L279.232551,28.2437382 L277.492279,28.2437382 L275.741198,28.2437382 L273.990117,28.2437382 L272.239036,28.2437382 M239.552193,29.6159474 L237.736257,29.7348002 L235.920321,29.8536529 L234.093576,29.9833105 L232.277641,30.112968 L235.250154,31.4203484 L236.990426,31.2906909 L238.730698,31.1610333 L240.47097,31.0421805 L242.211242,30.9233278 L239.552193,29.6159474 M282.021309,28.0924711 L283.102224,29.3782419 L289.82551,29.3782419 L289.047251,28.0924711 L283.826436,28.0924711 L282.075355,28.0924711 M229.305127,30.3398688 L227.456763,30.4911359 L225.6084,30.6424031 L223.760037,30.7936702 L221.911674,30.9557422 L225.370599,32.2523178 L227.132489,32.0902458 L228.894379,31.9389787 L230.656269,31.7877115 L232.418159,31.6472492 L229.305127,30.3398688 M291.749537,28.0708615 L292.419704,29.3566323 L297.456763,29.3566323 L299.13218,29.3566323 L298.721433,28.0708615 L296.981161,28.0708615 L291.749537,28.0708615 M218.917542,31.2150573 L217.036751,31.387934 L215.15596,31.5716156 L213.27517,31.7552971 L211.38357,31.9497835 L215.404571,33.2355542 L217.17727,33.0518727 L218.960778,32.8681912 L220.755096,32.6845096 L222.538604,32.5116329 L218.917542,31.2150573 M301.553428,28.1789095 L301.856084,29.4538754 L303.54231,29.4538754 L305.217727,29.4538754 L306.903953,29.4538754 L308.568561,29.4538754 L308.568561,28.1789095 L306.828289,28.1789095 L305.077208,28.1789095 L303.336936,28.1789095 L301.553428,28.1789095 M208.389438,32.2739274 L206.432983,32.5008281 L204.508956,32.7061192 L202.595738,32.9330199 L200.660902,33.1599207 L205.287214,34.4240819 L207.10315,34.2079859 L208.908277,33.99189 L210.713403,33.7757941 L212.529339,33.5705029 L208.357011,32.2847321 M311.281655,28.3950054 L311.184373,29.6699714 L312.881408,29.6699714 L314.567634,29.7239954 L316.25386,29.7888241 L317.929277,29.8428481 L318.296788,28.5786869 L316.545707,28.5138581 L314.794626,28.4598342 L313.043545,28.3950054 L311.281655,28.3950054 M197.547869,33.5813077 L195.591414,33.8190133 L193.63496,34.0783284 C192.975602,34.153962 192.316245,34.2404003 191.667696,34.3376435 L189.700432,34.5969586 L195.007721,35.8395102 L196.845275,35.5801951 L198.682829,35.3316848 L200.520383,35.0831745 L202.357937,34.8454689 L197.547869,33.5813077 M321.150401,28.7839781 L320.66399,30.0481393 L322.361025,30.1237728 L324.058061,30.1994064 L325.744287,30.2858448 L327.495368,30.3398688 L328.284435,29.0865124 L326.522545,28.9892692 L324.749846,28.9136356 L322.977146,28.8271972 L321.204447,28.7515637 M186.522545,34.9859313 L184.522854,35.266856 L182.523162,35.5693903 L180.512662,35.8719246 L178.502162,36.1744589 L184.598518,37.3737913 L186.468499,37.0820618 L188.327671,36.7795275 L190.186844,36.4986028 L192.046016,36.2176781 L186.522545,34.9859313 M331.084002,29.2593891 L330.154416,30.5127455 L331.862261,30.6099887 L333.570105,30.7072318 L335.26714,30.8152798 L336.974985,30.9233278 L338.228845,29.6807762 L336.445337,29.5727282 L334.651019,29.4538754 L332.867511,29.3566323 L331.084002,29.2593891 M175.259419,36.7363083 L173.216492,37.071257 L171.162755,37.4170105 L169.119827,37.762764 L167.06609,38.1193223 L174.070414,39.2646307 L175.951204,38.9080724 L177.831995,38.5731238 L179.712786,38.2381751 L181.571958,37.9032264 L175.226992,36.7146987 M341.071649,29.8536529 L339.67727,31.0853997 L341.395923,31.2150573 L343.114577,31.3447148 L344.83323,31.4743724 L346.541075,31.60403 L348.302965,30.383088 L346.497838,30.2426256 L344.681902,30.112968 L342.876776,29.9725057 L341.071649,29.8536529 M163.726065,38.7243909 L161.639901,39.1133636 L159.553737,39.5023363 L157.467573,39.9129185 L155.381408,40.3343056 L163.4126,41.4147852 L165.3042,41.0150078 L167.206609,40.6260351 L169.109018,40.2370624 L171.011427,39.8696993 L163.726065,38.7892197 M351.275479,30.5991839 L349.362261,31.8201259 L351.091723,31.971393 L352.821186,32.1226602 L354.550649,32.2847321 L356.269302,32.4468041 L358.593267,31.2474717 L356.766523,31.0745949 L354.928968,30.912523 L353.102224,30.750451 L351.275479,30.5991839 M152.073811,40.9825934 L149.911983,41.42559 L147.750154,41.8901963 L145.588326,42.3548026 L143.426498,42.8410184 L152.668314,43.7594261 L154.559914,43.3056246 L156.451513,42.862628 L158.353922,42.4196313 L160.245522,41.9982443 L151.890056,40.9825934 M361.371217,31.5392012 L358.874305,32.7277288 L360.614577,32.9006056 L362.365658,33.0950919 L364.10593,33.2787734 L365.846201,33.4732598 L368.797097,32.3171465 L366.937925,32.1118554 L365.078752,31.9173691 L363.21958,31.7228827 L361.371217,31.5392012 M140.172946,43.6405733 L138.011118,44.1592036 L135.84929,44.6886386 L133.687461,45.2396832 L131.525633,45.7907279 L142.151019,46.5362588 L144.021001,46.0068238 L145.901791,45.4989984 L147.782582,45.0019777 L149.674182,44.5157619 L140.064855,43.6405733 M371.834466,32.6520952 L368.689006,33.8082085 L370.440086,34.0134996 L372.191167,34.2404003 L373.942248,34.4564963 L375.693329,34.6942018 L379.346819,33.6137221 L377.466028,33.3652118 L375.585238,33.1383111 L373.715256,32.9114103 L371.834466,32.6845096 M128.109944,46.7307452 L125.948116,47.325009 L123.786288,47.9408824 L121.62446,48.5675606 L119.462631,49.2158484 L131.666152,49.7020642 L133.492897,49.1078004 L135.330451,48.5243414 L137.178814,47.962492 L139.037986,47.4006425 L127.991044,46.7307452 M382.254478,33.9810852 L378.373996,35.0615649 L380.135886,35.3100752 L381.886967,35.5585855 L383.638048,35.8179006 L385.389129,36.0880205 L389.853305,35.0075409 L387.950896,34.7266162 L386.048487,34.4564963 L384.156887,34.1863763 L382.254478,33.9270612 M116.295553,50.2639136 L114.198579,50.9554206 L112.090797,51.6577324 L110.004632,52.3816538 L107.929277,53.1163799 L121.916306,53.2784519 C122.5,53.0515512 123.072884,52.8246504 123.667387,52.6085545 C124.26189,52.3924586 124.834775,52.1655578 125.429277,51.9494619 L127.201977,51.3011741 L129.007103,50.6744959 L116.295553,50.2639136 M393.128474,35.5153663 L388.415689,36.595846 L390.188388,36.8227467 L391.939469,37.1144762 L393.69055,37.4170105 L395.441631,37.7195448 L400.846201,36.7579179 L398.932983,36.433774 L397.019765,36.1204349 L395.106547,35.8179006 L393.193329,35.5153663 M104.62168,54.3373219 L102.589561,55.1260721 L100.568252,55.925627 L98.5685608,56.7575964 L96.5796788,57.6003705 L112.566399,57.3302506 L114.18777,56.56311 L115.83076,55.8283839 L117.495368,55.0936577 C118.046634,54.8559522 118.576282,54.6182467 119.181594,54.3913459 L104.62168,54.3913459 M403.840334,37.3521817 L398.208771,38.2813942 L399.938233,38.6055381 L401.678505,38.9404868 L403.418777,39.2754355 L405.14824,39.621189 L411.514824,38.7892197 L409.590797,38.4110518 L407.66677,38.0544935 L405.753552,37.6979352 L403.840334,37.3521817 M93.4558369,58.9941893 L91.553428,59.8909874 L89.6834466,60.7985903 L87.8350834,61.7386076 C87.2189623,62.0519467 86.6136504,62.3760906 86.0191476,62.7002345 L104.156887,61.8574604 L105.583694,61.0146862 C106.059296,60.7337615 106.545707,60.4528368 107.042928,60.1827169 C107.540148,59.912597 108.02656,59.6316723 108.534589,59.3723571 L110.047869,58.5728022 L93.4558369,58.9941893 M414.573811,39.3510691 L407.91538,40.1506241 L409.634033,40.5179871 L411.341878,40.896155 L413.060531,41.2851277 L414.768376,41.6849052 L422.226683,40.9825934 L420.313465,40.5612063 L418.400247,40.1398193 L416.487029,39.7400418 L414.573811,39.3510691 M83.2087708,64.26693 L81.9657196,64.9908514 L80.7550957,65.7363823 L79.555281,66.4819133 C79.1553428,66.7304236 78.7662137,66.9897387 78.3770846,67.2490538 L77.9339098,67.5407834 L77.490735,67.8433177 L77.0583694,68.1350472 L76.6260037,68.4375815 L97.0660902,66.8924956 L97.3687461,66.6223756 L97.6930204,66.3630605 L98.0172946,66.1037454 L98.352378,65.8444303 C98.6334157,65.6283344 98.9252625,65.4014336 99.2279185,65.1853377 C99.5305744,64.9692418 99.8224212,64.742341 100.135886,64.5262451 L101.065473,63.8779573 C101.368128,63.6618614 101.692403,63.4565702 102.005868,63.2404743 L83.2087708,64.26693 M425.296479,41.6849052 L417.513897,42.333193 L418.454293,42.5600937 L419.394688,42.7977992 L420.324274,43.0355047 L421.26467,43.2732103 L422.950896,43.7162069 L424.615503,44.1700084 L426.269302,44.6238098 L427.912292,45.0884161 L437.056825,44.6562242 L435.186844,44.1483988 L433.316862,43.6621829 L431.425263,43.1759671 L429.522854,42.700556 L428.441939,42.4412409 L427.361025,42.1819258 L426.280111,41.9334155 L425.199197,41.6849052 M95.2825818,68.4267767 L74.1831377,70.1987633 C73.6967264,70.5769312 73.210315,70.9550991 72.7455219,71.3440717 C72.2807288,71.7330444 71.8159358,72.1112123 71.372761,72.4893802 C70.9295862,72.8675481 70.4864114,73.2781303 70.0648548,73.667103 C69.6432983,74.0560757 69.2217418,74.4558532 68.8218036,74.8556306 L91.5966646,72.4137466 C91.856084,72.0787979 92.1371217,71.7438492 92.4181594,71.3980957 C92.699197,71.0523422 93.001853,70.7281983 93.304509,70.3932496 C93.6071649,70.058301 93.9314392,69.7341571 94.2665225,69.3992084 C94.6016059,69.0642597 94.9366893,68.7509206 95.2825818,68.4267767 M430.484867,45.8447518 L432.106238,46.3417725 L433.705991,46.8387931 L435.294935,47.3466186 L436.862261,47.8652488 L447.357937,47.6815673 L445.542001,47.1197178 L443.715256,46.5578684 L441.866893,46.0176286 L440.007721,45.4773888 L430.484867,45.8447518 M90.4400865,74.0884901 L66.9950587,76.800494 C66.6275479,77.2218811 66.2816553,77.6324633 65.9141445,78.0538504 C65.5466337,78.4752375 65.2547869,78.9074293 64.9521309,79.3288164 C64.649475,79.7502035 64.3576282,80.1823953 64.0765905,80.6145872 C63.7955528,81.0467791 63.5469426,81.4897757 63.2983323,81.9327724 L88.3539222,78.3996039 C88.4620136,78.0322408 88.5917233,77.6648777 88.7322421,77.3191242 C88.872761,76.9733708 89.0348981,76.5952029 89.2078443,76.2386446 C89.3807906,75.8820863 89.5537369,75.5147232 89.7591106,75.1581649 C89.9644842,74.8016066 90.1698579,74.4558532 90.3968499,74.0776853 M439.348363,48.7080229 L440.883261,49.2590676 L442.396541,49.8101122 L443.888203,50.3719616 L445.358246,50.9554206 L457.302347,51.0634686 L455.562075,50.4367904 C454.989191,50.2206945 454.405497,50.0154033 453.810994,49.8101122 L452.038295,49.2050436 L450.254787,48.599975 L439.348363,48.7080229 M87.9756022,80.1932001 L62.3147004,84.0613173 C62.1201359,84.5151188 61.9471896,84.9689202 61.7850525,85.4227217 C61.6229154,85.8765231 61.4932057,86.3411294 61.3743051,86.8057356 C61.2554046,87.2703419 61.1473132,87.7349481 61.0716492,88.1995544 C60.9959852,88.6641606 60.9203212,89.1395717 60.8770846,89.6149827 L87.9756022,84.7852387 C87.9107474,84.396266 87.8567017,84.0180981 87.8242742,83.6291254 C87.7918468,83.2401528 87.8242742,82.8511801 87.8242742,82.4730122 C87.8242742,82.0948443 87.8242742,81.7058717 87.8242742,81.3277038 C87.8242742,80.9495359 87.9107474,80.571368 87.9756022,80.1932001 M447.671402,51.9494619 L449.098209,52.5545305 L450.481779,53.1704039 L451.85454,53.7862773 L453.205683,54.4237603 L466.684682,54.8991714 L465.063311,54.1968596 L463.409512,53.5053526 L461.734095,52.8246504 L460.047869,52.1655578 L447.671402,51.9494619 M88.4403953,86.6760781 L60.8446572,91.9272092 C60.8446572,92.4134251 60.909512,92.8888361 60.9743669,93.3750519 C61.0392217,93.8612678 61.1256949,94.3582884 61.2337863,94.8445043 C61.3418777,95.3307201 61.4823965,95.8277408 61.6337245,96.3247614 C61.7850525,96.8217821 61.979617,97.3188027 62.1741816,97.8158233 L90.8940704,91.4842125 C90.6130327,91.0844351 90.3428042,90.6846576 90.1050031,90.2740753 C89.867202,89.8634931 89.64021,89.4745204 89.4348363,89.0747429 C89.2294626,88.6749654 89.0457072,88.2859928 88.8835701,87.8862153 C88.721433,87.4864378 88.570105,87.0866603 88.4403953,86.6976877 M455.302656,55.4394112 L456.578135,56.0985038 L457.821186,56.7684012 L459.03181,57.4599082 C459.442557,57.6868089 459.831686,57.9137096 460.220815,58.1514151 L475.353613,59.059018 L473.88357,58.2810727 L472.381099,57.5247369 L470.846201,56.7684012 L469.289685,56.033675 L455.356702,55.4394112 M92.3965411,93.4182711 L63.3631872,100.192879 C63.6442248,100.700704 63.9576899,101.208529 64.2927733,101.70555 C64.6278567,102.202571 64.9845584,102.721201 65.3736875,103.229026 C65.7628166,103.736852 66.1735639,104.255482 66.6167387,104.763308 C67.0599135,105.271133 67.5247066,105.778958 68.011118,106.297589 L97.6389747,98.3020392 C97.1201359,97.8914569 96.5580605,97.4808746 96.1256949,97.0702924 C95.6933292,96.6597101 95.1961087,96.2599326 94.7529339,95.8493504 C94.3097591,95.4387681 93.9098209,95.0389906 93.5206918,94.6284084 C93.1315627,94.2178261 92.7532427,93.8180486 92.4397776,93.4182711 M462.112415,59.2643092 L463.193329,59.9774258 L464.274243,60.7121519 L465.301112,61.4576829 L466.295553,62.2248234 L483.028104,63.6402518 L481.741816,62.7866729 L480.412292,61.9438987 L479.061149,61.1227342 L477.66677,60.3123744 L462.101606,59.2318948 M100.319642,100.246903 L70.6053119,108.750277 C71.1890056,109.268908 71.7943175,109.776733 72.4320568,110.284559 C73.0697962,110.792384 73.7507721,111.365038 74.4425571,111.81884 C75.1343422,112.272641 75.8693638,112.899319 76.6043854,113.353121 C77.339407,113.806922 78.1500926,114.379576 78.9715874,114.887402 L108.588635,105.076647 C107.810377,104.676869 107.042928,104.277092 106.307906,103.877314 C105.572884,103.477537 104.848672,103.077759 104.146078,102.677982 C103.443484,102.278204 102.794935,101.867622 102.146387,101.467845 C101.497838,101.068067 100.881717,100.657485 100.287214,100.246903 M467.679123,63.4457655 C467.981779,63.7050806 468.284435,63.9643957 468.576282,64.2345156 L469.419395,65.0232658 L470.219271,65.8336255 C470.478691,66.1145502 470.73811,66.3846701 470.975911,66.65479 L489.351452,68.6860918 C489.016368,68.3727527 488.659666,68.0594136 488.270537,67.7460745 C487.881408,67.4327354 487.546325,67.1302011 487.189623,66.8276668 L486.043854,65.9200639 L484.854849,65.0340705 L467.625077,63.4457655 M112.577208,106.978291 L83.2087708,117.307676 C84.1275479,117.815502 85.0679432,118.312522 86.0407659,118.809543 C87.0135886,119.306564 88.0188388,119.803584 89.0565164,120.2898 C90.0941939,120.776016 91.1642989,121.283841 92.2992588,121.770057 C93.4342187,122.256273 94.5259419,122.753294 95.6825201,123.23951 L124.175417,111.581134 C123.094503,111.202966 122.078443,110.835603 121.073193,110.446631 L118.122298,109.366151 L115.225448,108.134404 C114.31748,107.745431 113.441939,107.356459 112.577208,106.956681 M472.110871,67.9729752 C472.327054,68.2430951 472.543237,68.5348246 472.737801,68.8157493 C472.932366,69.0966741 473.137739,69.3775988 473.321495,69.6693283 C473.50525,69.9610578 473.689006,70.2527873 473.851143,70.5445168 C474.01328,70.8362463 474.175417,71.1279758 474.326745,71.4197053 L494.420939,74.1533189 C494.172329,73.8183702 493.923718,73.4726167 493.65349,73.137668 C493.383261,72.8027193 493.113033,72.4677706 492.821186,72.1436267 C492.529339,71.8194828 492.248301,71.4845341 491.945645,71.1495854 C491.642989,70.8146367 491.340334,70.5121024 491.016059,70.1879585 L472.110871,68.0269992 M129.320568,113.407145 L101.389747,125.584151 C102.654416,126.059562 103.929895,126.524168 105.237801,126.977969 C106.545707,127.431771 107.907659,127.907182 109.28042,128.360983 L113.495985,129.722388 L117.906115,131.051378 L143.977764,117.599406 C142.659049,117.264457 141.361952,116.929508 140.086473,116.583755 C138.810994,116.238001 137.578752,115.903053 136.34651,115.503275 C135.114268,115.103498 133.936072,114.800964 132.757875,114.422796 C131.579679,114.044628 130.444719,113.709679 129.320568,113.342316 M474.964484,72.8783529 C475.083385,73.1808872 475.191476,73.4726167 475.288758,73.775151 C475.386041,74.0776853 475.472514,74.3910244 475.548178,74.6935587 C475.623842,74.996093 475.699506,75.3094321 475.753552,75.6227712 C475.807597,75.9361103 475.861643,76.2494494 475.89407,76.5627885 L497.609636,80.1175666 C497.479926,79.7502035 497.339407,79.3828404 497.188079,79.0370869 C497.036751,78.6913334 496.874614,78.3131655 496.701668,77.9566072 C496.528721,77.600049 496.344966,77.2434907 496.150401,76.8761276 L495.54509,75.7956479 L475.007721,72.8459385 M150.45244,119.101273 L125.364422,132.985436 C126.953366,133.406823 128.607165,133.817406 130.206918,134.217183 C131.806671,134.61696 133.536133,135.027543 135.233169,135.416515 C136.930204,135.805488 138.681285,136.205266 140.443175,136.583433 C142.205065,136.961601 143.999382,137.339769 145.847746,137.663913 L168.147004,122.591222 C166.590488,122.310297 165.05559,122.029372 163.54231,121.737643 L159.067326,120.862454 C157.608091,120.55992 156.159666,120.257386 154.743669,119.944047 C153.327671,119.630708 151.911674,119.328173 150.528104,119.014834 M476.045398,77.9566072 C476.045398,78.2807511 476.045398,78.5940902 476.045398,78.9182341 C476.045398,79.242378 475.991353,79.5665219 475.937307,79.8906658 C475.883261,80.2148097 475.829216,80.5389536 475.753552,80.8739023 C475.677888,81.208851 475.602224,81.5329949 475.504941,81.8571388 L498.625695,86.5248109 C498.625695,86.1358382 498.625695,85.7360608 498.625695,85.3470881 C498.625695,84.9581154 498.625695,84.5691427 498.539222,84.1909749 C498.452749,83.812807 498.452749,83.4238343 498.387894,83.0456664 C498.323039,82.6674985 498.247375,82.3001355 498.160902,81.9651868 L475.980544,78.1510936 M175.648548,123.963431 L154.657196,139.468314 C156.552399,139.799661 158.465617,140.131008 160.39685,140.462355 C162.331686,140.786499 164.29895,141.099838 166.277023,141.413177 C168.255096,141.726517 170.276405,142.018246 172.308524,142.32078 L178.480544,143.174359 L195.77517,126.772678 C194.024089,126.567387 192.294626,126.351291 190.575973,126.12439 L185.484867,125.454493 L180.501853,124.730572 L175.637739,123.974236 M474.823965,83.6075159 C474.68705,83.9460661 474.535722,84.2810148 474.369981,84.6123619 C474.197035,84.9473106 474.024089,85.2930641 473.829524,85.6280128 C473.63496,85.9629615 473.429586,86.3195198 473.213403,86.7084925 C472.997221,87.0974651 472.759419,87.3999994 472.510809,87.7889721 L496.993515,93.3858567 C497.17727,92.9644697 497.339407,92.5538874 497.501544,92.1433051 C497.663681,91.7327229 497.782582,91.3221406 497.901482,90.9115583 C498.020383,90.5009761 498.128474,90.1011986 498.214947,89.6906163 C498.301421,89.280034 498.377085,88.8910614 498.441939,88.5020887 L474.823965,83.6939542 M204.271155,127.712695 L188.608709,144.406106 C190.770537,144.654616 192.87832,144.881517 195.040148,145.108418 C197.201977,145.335319 199.363805,145.551415 201.579679,145.756706 L208.227301,146.35097 L214.983014,146.880405 L226.278567,129.59273 L220.657813,129.182148 L215.112724,128.739151 L209.708153,128.252935 L204.303582,127.7235 M471.289376,89.3664724 L470.35979,90.4469521 L469.278876,91.5274317 C468.911365,91.88399 468.543854,92.2297435 468.197962,92.6079114 C467.852069,92.9860793 467.398085,93.321028 466.976529,93.688391 L492.38882,100.517022 C492.76714,100.084831 493.134651,99.6526388 493.469734,99.2204469 C493.804818,98.788255 494.139901,98.3560632 494.442557,97.9346761 C494.745213,97.513289 495.03706,97.0810972 495.307288,96.6597101 C495.577517,96.238323 495.826127,95.816936 496.063928,95.3955489 L471.256949,89.3556676 M235.3042,130.13297 L225.889438,147.604326 L232.753243,147.971689 C235.05559,148.090542 237.368746,148.187785 239.681902,148.285028 C241.995059,148.382271 244.340642,148.457905 246.675417,148.522734 C249.010191,148.587562 251.355775,148.663196 253.712168,148.706415 L258.414145,130.986549 L252.588017,130.846086 L246.794317,130.6516 L241.054663,130.413895 L235.347437,130.13297 M464.771464,95.2875009 C464.295862,95.6440592 463.798641,96.0006175 463.290611,96.3679806 C462.782582,96.7353437 462.209697,97.0810972 461.712477,97.4484603 C461.215256,97.8158233 460.631563,98.1723816 460.015442,98.5289399 C459.399321,98.8854982 458.826436,99.2528613 458.210315,99.6094196 L484.07659,107.81026 C484.692712,107.356459 485.276405,106.913462 485.84929,106.470465 C486.422174,106.027469 486.930204,105.595277 487.48147,105.15228 C488.032736,104.709284 488.508338,104.277092 488.99475,103.834095 C489.481161,103.391098 489.935145,102.958907 490.37832,102.526715 L464.771464,95.2875009 M267.699197,131.127011 L264.899629,148.868487 C267.234404,148.868487 269.569179,148.868487 271.903953,148.868487 C274.238728,148.868487 276.584311,148.868487 278.919086,148.868487 C281.25386,148.868487 283.599444,148.868487 285.934219,148.760439 L292.938542,148.598367 L290.982088,130.975744 C289.036442,130.975744 287.090797,131.062182 285.15596,131.083792 L279.319024,131.159426 L273.503706,131.159426 L267.699197,131.159426 M455.043237,101.294968 L455.043237,101.294968 C454.37307,101.651526 453.681285,101.99728 452.967881,102.375447 L450.806053,103.455927 L448.492897,104.536407 L446.06084,105.616886 L471.700124,115.287179 C472.575664,114.844183 473.418777,114.401186 474.240272,113.958189 C475.061767,113.515193 475.850834,113.072196 476.618283,112.618395 C477.385732,112.164593 478.131563,111.732401 478.866584,111.289405 C479.601606,110.846408 480.282582,110.414216 480.963558,109.971219 L455.097282,101.327382 M300.213095,130.662405 L304.039531,148.112151 C306.320259,148.014908 308.611797,147.90686 310.881717,147.788007 C313.151637,147.669155 315.432366,147.550302 317.691476,147.40984 C319.950587,147.269377 322.209697,147.128915 324.457999,146.966843 C326.7063,146.804771 328.932983,146.642699 331.159666,146.469822 L322.858246,129.441463 C320.988264,129.560316 319.118283,129.689973 317.237492,129.798021 L311.59512,130.122165 L305.920321,130.392285 L300.213095,130.619186 M441.899321,107.183582 L439.175417,108.264062 L436.332613,109.344541 L433.360099,110.370997 C432.34404,110.71675 431.317171,111.051699 430.257875,111.386648 L454.87029,122.634441 C456.016059,122.202249 457.14021,121.770057 458.231933,121.327061 C459.323657,120.884064 460.393762,120.462677 461.474676,120.01968 C462.55559,119.576684 463.517603,119.144492 464.501235,118.7123 C465.484867,118.280108 466.446881,117.837111 467.387276,117.394115 L441.942557,107.27002 M331.689314,128.879613 L341.68777,145.670267 C343.849599,145.464976 346.011427,145.259685 348.097591,145.032784 C350.183755,144.805884 352.323965,144.589788 354.431748,144.352082 L360.668623,143.617356 L366.819024,142.828606 L352.961705,126.794288 C351.221433,126.999579 349.481161,127.194065 347.73008,127.377747 L342.433601,127.917987 L337.093885,128.415007 L331.689314,128.879613 M425.112724,112.996563 C424.03181,113.331511 422.875232,113.655655 421.729463,113.979799 C420.583694,114.303943 419.405497,114.628087 418.205683,114.941426 C417.005868,115.254765 415.795244,115.589714 414.563002,115.903053 L410.725757,116.778241 L433.306053,129.59273 C434.73286,129.192953 436.138048,128.78237 437.521618,128.371788 C438.905188,127.961206 440.245522,127.550623 441.564237,127.140041 C442.882952,126.729459 444.180049,126.308072 445.444719,125.89749 L449.163064,124.633328 L425.03706,112.931734 M361.003706,125.746222 L376.298641,141.445592 L382.059914,140.559599 C383.951513,140.257064 385.843113,139.95453 387.713095,139.630386 C389.583076,139.306242 391.431439,139.003708 393.268993,138.668759 C395.106547,138.33381 396.900865,138.009667 398.673564,137.663913 L380.298023,122.926171 L375.606856,123.682506 L370.818406,124.406428 C369.207844,124.633328 367.575664,124.871034 365.954293,125.08713 C364.332922,125.303226 362.71155,125.540931 361.014515,125.746222 M404.467264,118.247694 L401.084002,118.993225 L397.603459,119.717146 L394.025633,120.441067 L390.350525,121.143379 L389.65874,121.273037 L388.966955,121.402694 L388.264361,121.532352 L387.550957,121.662009 L407.007412,135.999974 L407.818098,135.827098 L408.617974,135.654221 L409.417851,135.481344 L410.206918,135.308467 C411.622915,135.005933 413.017295,134.692594 414.390056,134.379255 L418.465102,133.439238 L422.410439,132.477611 C423.707536,132.164272 424.972205,131.840128 426.236875,131.505179 L404.424027,118.247694 M259.538295,28.6327109 L257.765596,28.7083445 L255.992897,28.7731733 L254.220198,28.8488068 L252.447498,28.9352452 L254.609327,30.2318208 L256.306362,30.1561872 L258.014206,30.0805536 L259.722051,30.0049201 L261.440704,29.9400913 L259.570723,28.6327109" id="形状" fill="url(#linearGradient-1)" fill-rule="nonzero"></path>
                <path d="M215.977455,47.4006425 L215.555899,47.4546665 L215.145151,47.4546665 L214.734404,47.4546665 L215.728845,47.7139816 L216.128783,47.7139816 L216.528721,47.7139816 L216.92866,47.6599577 L217.339407,47.6599577 L216.388203,47.4006425 L215.977455,47.4006425 Z M208.184064,48.8376805 L208.573193,48.8376805 L208.973132,48.7728517 L209.362261,48.7728517 L208.281347,48.5243414 L207.881408,48.5243414 L207.492279,48.5891702 L207.092341,48.5891702 L206.692403,48.6431942 L207.773317,48.8917045 L208.184064,48.8376805 Z M216.096356,94.7688707 L215.491044,94.6932371 L214.874923,94.6176036 L213.361643,95.3091105 L213.988573,95.3955489 L214.615503,95.4711825 L215.242434,95.5468161 L215.869364,95.6224496 L217.339407,94.9201379 L216.712477,94.8445043 L216.096356,94.7688707 Z M222.354849,95.5035969 L221.717109,95.4279633 L221.07937,95.3631345 L219.717418,96.0762511 L220.355158,96.1518847 L221.003706,96.2167134 L221.652254,96.292347 L222.311612,96.3571758 L223.630327,95.6440592 L222.992588,95.5684257 L222.354849,95.5035969 Z M228.840334,96.1518847 L228.180976,96.1518847 L227.521618,96.0870559 L226.300185,96.8217821 L226.970352,96.8866108 L227.640519,96.9514396 L228.310686,97.0162684 L228.980852,97.0702924 L230.213095,96.2491278 L229.542928,96.1842991 L228.840334,96.1518847 Z M224.322112,46.4498205 L223.900556,46.4498205 L223.478999,46.4498205 L223.057443,46.4498205 L223.900556,46.7199404 L224.322112,46.7199404 L224.73286,46.7199404 L225.154416,46.7199404 L225.575973,46.7199404 L224.743669,46.4498205 L224.322112,46.4498205 Z M228.494441,46.4498205 L228.915998,46.4498205 L229.337554,46.4498205 L229.759111,46.4498205 L229.002471,46.1688957 L228.580914,46.1688957 L228.148548,46.1688957 L227.716183,46.1688957 L227.294626,46.1688957 L228.083694,46.4390157 L228.494441,46.4498205 Z M220.19302,47.3142042 L220.603768,47.3142042 L221.014515,47.3142042 L221.425263,47.3142042 L220.538913,47.0440843 L220.128166,47.0440843 L219.706609,47.0440843 L219.295862,47.0440843 L218.874305,47.0981082 L219.782273,47.3574234 L220.19302,47.3142042 Z M204.271155,93.1157368 L203.70908,93.0184937 L203.157813,92.9320553 L201.385114,93.5803431 L201.957999,93.6667815 L202.541692,93.7640246 L203.114577,93.850463 L203.698271,93.9477062 L205.406115,93.2886136 L204.84404,93.2021752 L204.271155,93.1157368 Z M235.455528,96.7353437 L234.774552,96.6813197 L234.115195,96.6813197 L233.03428,97.4268507 L233.726065,97.4916794 L234.417851,97.4916794 L235.109636,97.5457034 L235.801421,97.5457034 L236.806671,96.7893677 L236.136504,96.7893677 L235.455528,96.7353437 Z M200.423101,49.6264306 L200.033972,49.6912594 L199.655652,49.7560882 L199.266523,49.820917 L198.888203,49.8857458 L200.142063,50.1126465 L200.509574,50.0478177 L200.887894,49.9829889 L201.255405,49.9181601 L201.633725,49.8533314 L200.423101,49.6264306 Z M203.903644,49.0645812 L203.514515,49.12941 L203.125386,49.183434 L202.736257,49.2482628 L203.914453,49.4859683 L204.292773,49.4211395 L204.681902,49.4211395 L205.060222,49.3563107 L205.449351,49.3563107 L204.292773,49.1078004 L203.903644,49.0645812 Z M211.859172,47.9192728 L211.459234,47.9732968 L211.048487,47.9732968 L210.648548,47.9732968 L211.729463,48.2326119 L212.129401,48.2326119 L212.51853,48.1785879 L212.918468,48.1785879 L213.318406,48.1785879 L212.237492,47.9192728 L211.859172,47.9192728 Z M186.306362,52.8894792 L186.641445,52.8030408 L186.976529,52.7274073 L187.311612,52.6517737 L185.819951,52.4572873 L185.474058,52.5329209 L185.138975,52.6085545 L184.793082,52.6949929 L184.457999,52.7706264 L185.971279,52.9651128 L186.306362,52.8894792 Z M210.086473,93.9477062 L209.502779,93.8720726 L208.919086,93.7856342 L207.276096,94.4555316 L207.870599,94.54197 L208.465102,94.6284084 L209.070414,94.7148467 L209.675726,94.7904803 L211.26467,94.1205829 L210.680976,94.0341445 L210.086473,93.9477062 Z M196.856084,50.7285199 L197.223595,50.6528863 L197.591106,50.5880575 L197.958616,50.5232288 L196.661519,50.296328 L196.294009,50.3719616 L195.926498,50.4367904 L195.548178,50.5016192 L195.180667,50.5772527 L196.488573,50.7933487 L196.856084,50.7285199 Z M198.866584,92.1865243 L198.326127,92.0892812 L197.796479,91.992038 L195.926498,92.6187162 L196.466955,92.7159594 L197.018221,92.8132025 L197.558678,92.9104457 L198.109944,93.0076889 L199.947498,92.3702059 L199.407041,92.2837675 L198.866584,92.1865243 Z M256.392835,97.9670905 L255.679432,97.9670905 L254.966028,97.9670905 L254.371526,98.7558406 L255.106547,98.7558406 L255.83076,98.7558406 L256.565781,98.7558406 L257.289994,98.7558406 L257.819642,97.9670905 L257.095429,97.9670905 L256.392835,97.9670905 Z M278.011118,98.4316967 L276.551884,98.4316967 L276.487029,99.2312517 L279.459543,99.2312517 L279.459543,98.4208919 L277.9895,98.4208919 L278.011118,98.4316967 Z M188.695182,90.1768322 L188.21958,90.0687842 L187.743978,89.9607362 L185.668623,90.5333905 L186.155034,90.6414384 L186.641445,90.7494864 L187.127857,90.8575343 L187.614268,90.9655823 L189.646387,90.3821233 L189.170784,90.2848801 L188.695182,90.1768322 Z M263.516059,98.2156008 L262.791847,98.2156008 L262.078443,98.2156008 L261.656887,99.0151558 L262.391909,99.0151558 L263.12693,99.0151558 L263.861952,99.0151558 L264.607783,99.0151558 L264.953675,98.2156008 L264.240272,98.2156008 L263.516059,98.2156008 Z M259.397776,44.1267892 L258.943792,44.1267892 L258.500618,44.1267892 L258.046634,44.1267892 L258.360099,44.4293235 L258.803274,44.4293235 L259.246448,44.4293235 L259.689623,44.4293235 L260.143607,44.4293235 L259.85176,44.1267892 L259.397776,44.1267892 Z M270.736566,98.4100872 L269.277332,98.4100872 L269.039531,99.2096421 L272.012044,99.2096421 L272.184991,98.4100872 L270.736566,98.4100872 L270.736566,98.4100872 Z M277.135578,44.137594 L278.032736,44.137594 L278.032736,43.8350597 L276.2168,43.8350597 L276.270846,44.137594 L277.157196,44.137594 L277.135578,44.137594 Z M273.006485,43.8674741 L271.644534,43.8674741 L271.763434,44.1700084 L273.557752,44.1700084 L273.460469,43.8674741 L273.006485,43.8674741 Z M268.92063,43.9323028 L267.104694,43.9323028 L267.28845,44.2348372 L269.126004,44.2348372 L268.92063,43.9323028 Z M250.447807,44.5481763 L249.993823,44.5481763 L249.550649,44.5481763 L249.096665,44.5481763 L249.550649,44.8399058 L249.983014,44.8399058 L250.426189,44.8399058 L250.869364,44.8399058 L251.312539,44.8399058 L250.890982,44.5373715 L250.447807,44.5481763 Z M242.297715,97.2755835 L241.616739,97.2755835 L240.924954,97.2755835 L240.006177,98.0427241 L240.708771,98.0967481 L241.411365,98.0967481 L242.113959,98.0967481 L242.827363,98.0967481 L243.681285,97.3296075 L242.9895,97.3296075 L242.297715,97.2755835 Z M241.2168,45.41256 L241.649166,45.41256 L242.081532,45.41256 L242.513897,45.41256 L241.962631,45.1208305 L241.530266,45.1208305 L241.087091,45.1208305 L240.643916,45.1208305 L240.21155,45.1208305 L240.795244,45.41256 L241.2168,45.41256 Z M233.509883,46.0068238 L233.931439,46.0068238 L233.250463,45.7258991 L232.818098,45.7258991 L232.385732,45.7258991 L231.953366,45.7258991 L231.521001,45.7258991 L232.234404,46.0068238 L232.66677,46.0068238 L233.088326,46.0068238 L233.509883,46.0068238 Z M249.215565,97.6861658 L248.512971,97.6861658 L247.821186,97.6861658 L247.064546,98.4641111 L247.777949,98.4641111 L248.491353,98.4641111 L249.215565,98.4641111 L249.939778,98.4641111 L250.620754,97.6861658 L249.918159,97.6861658 L249.215565,97.6861658 Z M245.972823,44.7966866 L245.529648,44.7966866 L245.086473,44.7966866 L244.654107,44.7966866 L245.162137,45.0884161 L245.594503,45.0884161 L246.037678,45.0884161 L246.470043,45.0884161 L246.913218,45.0884161 L246.426807,44.7966866 L245.972823,44.7966866 Z M237.184991,45.3801456 L236.752625,45.3801456 L236.320259,45.3801456 L235.877085,45.3801456 L236.525633,45.6610703 L236.957999,45.6610703 L237.379555,45.6610703 L237.811921,45.6610703 L238.244287,45.6610703 L237.628166,45.3801456 L237.184991,45.3801456 Z M254.82551,44.667029 L255.268684,44.667029 L255.711859,44.667029 L255.355158,44.3752995 L254.911983,44.3752995 L254.457999,44.3752995 L254.014824,44.3752995 L253.56084,44.3752995 L253.949969,44.667029 L254.382335,44.667029 L254.82551,44.667029 Z M263.267449,44.3644947 L264.607783,44.3644947 L264.380791,44.0619604 L262.640519,44.0619604 L262.889129,44.3644947 L263.267449,44.3644947 Z M163.315318,82.1056491 L163.066708,81.9759916 L162.818098,81.846334 L162.569487,81.7274812 L160.105003,82.0840395 L160.353613,82.2136971 L160.602224,82.3433547 L160.861643,82.4730122 L161.121062,82.591865 L163.574737,82.2353067 L163.315318,82.1056491 Z M166.039222,83.3590055 L165.758184,83.229348 L165.477146,83.1104952 L165.196109,82.9808377 L162.753243,83.3698103 L163.04509,83.4994679 L163.326127,83.6291254 L163.617974,83.7479782 L163.909821,83.8776358 L166.331069,83.4778583 L166.039222,83.3590055 Z M189.343731,51.733366 L188.987029,51.8089995 L188.630327,51.8846331 L188.284435,51.9602667 L187.927733,52.0359003 L189.376158,52.2411914 L189.722051,52.1655578 L190.067943,52.0899243 L190.413836,52.0142907 L190.759728,51.9386571 L189.343731,51.733366 Z M169.0874,84.5907523 L168.763125,84.4718996 L168.44966,84.342242 L168.136195,84.2233893 L165.747375,84.6339715 L166.06084,84.7636291 L166.385114,84.8932866 L166.698579,85.0121394 L167.033663,85.141797 L169.411674,84.7096051 L169.0874,84.5907523 Z M158.872761,79.512498 L158.689006,79.3828404 L158.494441,79.2639876 L158.310686,79.1343301 L155.802965,79.4260596 L155.98672,79.5557171 L156.181285,79.6853747 L156.36504,79.8150323 L156.559605,79.9554946 L159.067326,79.6421555 L158.872761,79.512498 Z M171.195182,57.200593 L171.465411,57.1033499 L171.735639,57.0169115 L172.005868,56.9196683 L170.189932,56.7900108 L169.919704,56.8764491 L169.638666,56.9736923 L169.368437,57.0709355 L169.0874,57.1681786 L170.924954,57.2978362 L171.195182,57.200593 Z M172.48147,85.7576704 L172.124768,85.6388176 L171.778876,85.5199648 L171.432983,85.4011121 L169.07659,85.8441087 L169.433292,85.9737663 L169.789994,86.0926191 L170.146695,86.2114718 L170.503397,86.3411294 L172.838172,85.8765231 L172.48147,85.7576704 Z M173.940704,56.2713805 L174.221742,56.1849422 L174.502779,56.087699 L174.794626,56.0012606 L173.054355,55.8499935 L172.751699,55.9472366 L172.459852,56.033675 L172.168005,56.1309182 L171.843731,56.2713805 L173.627239,56.4118429 L173.940704,56.2713805 Z M153.143916,73.0944488 C153.13927,73.0513544 153.13927,73.0078857 153.143916,72.9647912 L153.143916,72.8351337 L153.143916,72.7162809 L150.668623,72.8675481 L150.668623,72.9972056 L150.668623,73.1268632 C150.663977,73.1699576 150.663977,73.2134263 150.668623,73.2565207 L150.668623,73.3861783 L153.143916,73.2241063 L153.143916,73.0944488 Z M176.837554,55.3745824 L177.14021,55.288144 L177.432057,55.2017057 L177.734713,55.1152673 L176.059296,54.9531954 L175.745831,55.0396337 L175.443175,55.1260721 L175.140519,55.2125105 L174.837863,55.3097536 L176.545707,55.4610208 L176.837554,55.3745824 Z M157.110871,78.2267272 L156.948734,78.1078744 L156.786597,77.9782168 L156.635269,77.8485593 L154.127548,78.1078744 L154.278876,78.2483368 L154.430204,78.3779943 L154.592341,78.5076519 L154.765287,78.6373094 L157.273008,78.3563847 L157.110871,78.2267272 Z M178.880482,54.1644452 L178.556208,54.2508836 L178.242742,54.3373219 L177.918468,54.4237603 L179.572267,54.5966371 L179.874923,54.5101987 L180.188388,54.4237603 L180.501853,54.3373219 L180.815318,54.2616884 L179.193947,54.0888116 L178.880482,54.1644452 Z M179.766831,87.9834585 L179.345275,87.8646057 L178.945337,87.7565577 L176.707844,88.2535784 L177.129401,88.3724311 L177.550957,88.4912839 L177.972514,88.6101367 L178.40488,88.7289894 L180.566708,88.2103592 L180.145151,88.0915064 L179.766831,87.9834585 Z M175.778258,86.8273452 L175.399938,86.7084925 L175.032427,86.5896397 L172.719271,87.0650508 L173.1084,87.1839035 L173.497529,87.3135611 L173.886658,87.4324138 L174.275788,87.5512666 L176.556516,87.054246 L176.167387,86.946198 L175.778258,86.8273452 Z M155.630019,76.9409564 L155.500309,76.8112988 L155.381408,76.6816413 C155.336527,76.6476414 155.296521,76.6076515 155.262508,76.5627885 L152.754787,76.800494 L152.862878,76.9301516 L152.992588,77.0598091 L153.122298,77.1894667 L153.252007,77.3191242 L155.759728,77.0706139 L155.630019,76.9409564 Z M168.600988,58.1622199 L168.849599,58.0649768 L169.109018,57.9677336 L169.357628,57.8704904 L167.476838,57.7516377 L167.228227,57.8488808 L166.968808,57.9569288 L166.709389,58.054172 L166.449969,58.1514151 L168.352378,58.2594631 L168.600988,58.1622199 Z M153.695182,74.3694148 L153.630327,74.250562 L153.565473,74.1209045 L153.500618,73.9912469 L151.003706,74.1749284 L151.068561,74.304586 L151.133416,74.4342436 L151.198271,74.5639011 C151.219425,74.6093672 151.244754,74.6527726 151.273935,74.6935587 L153.770846,74.4990723 C153.746256,74.4531768 153.717297,74.4097569 153.684373,74.3694148 L153.695182,74.3694148 Z M160.948116,80.7874639 L160.721124,80.6686112 L160.504941,80.5389536 L160.288758,80.4092961 L157.802656,80.73344 L158.018839,80.8630975 L158.235022,80.9927551 L158.462014,81.1224126 L158.689006,81.2520702 L161.175108,80.9171215 L160.948116,80.7874639 Z M152.895306,71.8302876 C152.895306,71.8302876 152.895306,71.7438492 152.895306,71.70063 C152.895306,71.6574108 152.895306,71.6141917 152.895306,71.5709725 C152.90123,71.5315762 152.90123,71.491516 152.895306,71.4521197 L150.45244,71.5709725 L150.45244,71.70063 C150.457754,71.743686 150.457754,71.7872316 150.45244,71.8302876 L150.45244,72.0896027 L152.916924,71.9491404 L152.895306,71.8302876 Z M152.895306,70.5661264 C152.895306,70.5661264 152.895306,70.4904928 152.895306,70.4472736 C152.900513,70.4042112 152.900513,70.3606785 152.895306,70.3176161 C152.89951,70.2781099 152.89951,70.2382695 152.895306,70.1987633 L150.474058,70.2960065 C150.479265,70.3390689 150.479265,70.3826016 150.474058,70.425664 C150.474058,70.425664 150.474058,70.5121024 150.474058,70.5445168 C150.474058,70.5769312 150.474058,70.6309552 150.474058,70.6741744 C150.474058,70.7173935 150.474058,70.7606127 150.474058,70.8038319 L152.906115,70.695784 C152.906115,70.695784 152.906115,70.6093456 152.906115,70.5661264 L152.895306,70.5661264 Z M153.187153,69.3235748 C153.18269,69.2840828 153.18269,69.244214 153.187153,69.204722 C153.187153,69.204722 153.187153,69.1182837 153.187153,69.0750645 C153.189017,69.0354688 153.189017,68.9958074 153.187153,68.9562117 L150.798332,69.0318453 L150.798332,69.1615028 C150.800196,69.2010985 150.800196,69.2407599 150.798332,69.2803556 C150.802978,69.32345 150.802978,69.3669187 150.798332,69.4100132 C150.798332,69.4100132 150.798332,69.4964515 150.798332,69.5396707 L153.197962,69.4532323 C153.197962,69.4532323 153.187153,69.366794 153.197962,69.3235748 L153.187153,69.3235748 Z M153.72761,68.1026328 L153.803274,67.98378 L153.868128,67.8649273 L153.943792,67.7352697 L151.598209,67.7352697 L151.511736,67.8649273 L151.446881,67.98378 C151.417701,68.0245661 151.392371,68.0679715 151.371217,68.1134376 L151.306362,68.2322903 L153.662755,68.1674616 L153.72761,68.1026328 Z M184.058061,89.0963525 L183.614886,88.9883045 L183.171711,88.8802566 L181.009883,89.4096916 L181.463867,89.5285444 L181.917851,89.6365923 L182.371834,89.7554451 L182.836628,89.8634931 L184.998456,89.3124484 L184.555281,89.2044005 L184.058061,89.0963525 Z M193.235022,51.3984173 L193.591723,51.3227837 L193.948425,51.2579549 L194.305127,51.1823213 L192.943175,50.9662254 L192.586473,51.041859 L192.218962,51.1066878 L191.851452,51.1823213 L191.49475,51.2579549 L192.87832,51.4632461 L193.235022,51.3984173 Z M183.031192,53.6782294 L183.355466,53.6025958 L183.679741,53.5161574 L184.014824,53.4405238 L182.458308,53.2568423 L182.123224,53.3324759 L181.788141,53.4189142 L181.463867,53.4945478 L181.128783,53.5809862 L182.717727,53.7646677 L183.031192,53.6782294 Z M193.591723,91.2032878 L193.083694,91.1060447 L192.575664,91.0088015 L190.6084,91.5922605 L191.11643,91.7003085 L191.62446,91.8083564 L192.143298,91.9055996 L192.672946,92.0136476 L194.618592,91.408579 L194.099753,91.3113358 L193.591723,91.2032878 Z M155.554355,65.7147727 L155.673255,65.59592 L155.792156,65.4770672 L155.911056,65.3690192 L153.651946,65.3690192 L153.522236,65.4770672 L153.403335,65.59592 L153.273626,65.7147727 L153.165534,65.8336255 L155.446263,65.8336255 C155.479711,65.7882725 155.519792,65.7482067 155.565164,65.7147727 L155.554355,65.7147727 Z M161.845275,61.2307822 L162.039839,61.1227342 L162.234404,61.0146862 L162.439778,60.9174431 L160.386041,60.8418095 L160.180667,60.9498574 L159.975293,61.0579054 L159.76992,61.1659534 L159.564546,61.2740013 L161.639901,61.3388301 L161.845275,61.2307822 Z M163.909821,60.1503025 L164.126004,60.0422545 L164.342187,59.9342066 L164.569179,59.8369634 L162.569487,59.750525 L162.342495,59.858573 L162.115503,59.9558162 L161.899321,60.0638641 L161.672329,60.1719121 L163.693638,60.2475457 L163.909821,60.1503025 Z M159.964484,62.3112618 L160.137431,62.2032138 L160.321186,62.0951659 C160.378726,62.0531852 160.440277,62.0169932 160.504941,61.9871179 L158.397159,61.9871179 L158.213403,62.0951659 L158.018839,62.2140186 L157.835083,62.3220666 L157.651328,62.4301146 L159.813156,62.4301146 L159.964484,62.3112618 Z M166.158122,59.1562612 L166.385114,59.059018 L166.622915,58.9509701 L166.860716,58.8537269 L164.92588,58.7564837 L164.688079,58.8537269 L164.439469,58.9617749 L164.201668,59.059018 L163.963867,59.1562612 L165.920321,59.2535044 L166.158122,59.1562612 Z M154.549104,66.8924956 C154.580594,66.8548856 154.609485,66.8151762 154.635578,66.7736428 L154.73286,66.65479 L154.830142,66.5359373 L152.527795,66.5359373 L152.419704,66.6655948 L152.322421,66.7844476 L152.225139,66.9033004 L152.127857,67.0221531 L154.462631,67.0221531 L154.549104,66.8924956 Z M156.829833,64.5586595 L156.970352,64.4398067 L157.110871,64.320954 L157.25139,64.212906 L155.089561,64.212906 L154.949043,64.3317588 L154.797715,64.4398067 L154.657196,64.5586595 L154.516677,64.6775123 L156.710933,64.6775123 L156.829833,64.5586595 Z M158.299876,63.4781798 L158.462014,63.3593271 L158.624151,63.2512791 L158.786288,63.1324264 L156.62446,63.1324264 L156.451513,63.2404743 L156.289376,63.3593271 L156.127239,63.467375 L155.965102,63.5862278 L158.12693,63.5862278 L158.299876,63.4781798 Z M154.549104,75.6551856 L154.451822,75.5363328 L154.35454,75.4066753 L154.257258,75.2770177 L151.760346,75.4823088 L151.846819,75.6119664 L151.944101,75.7416239 L152.041384,75.8712815 L152.138666,76.0117439 L154.646387,75.7848431 L154.549104,75.6551856 Z M405.89407,74.7908019 L405.818406,74.9204594 L405.731933,75.050117 L405.64546,75.1797745 L408.153181,75.3850657 C408.178187,75.3394203 408.207121,75.2960374 408.239654,75.2554081 L408.315318,75.1257505 L408.401791,74.996093 L408.466646,74.8556306 L405.969734,74.6611443 L405.89407,74.7908019 Z M404.953675,76.0873774 L404.845584,76.217035 L404.726683,76.3466926 L404.607783,76.4763501 L407.126313,76.7032508 L407.245213,76.5735933 L407.353305,76.4439357 L407.461396,76.3142782 L407.569487,76.1846206 L405.061767,75.9577199 L404.953675,76.0873774 Z M402.154107,78.6697238 L401.981161,78.7993814 L401.808215,78.9290389 L401.62446,79.0586965 L404.121371,79.350426 L404.305127,79.2207684 L404.478073,79.0911109 L404.661828,78.9506485 L404.834775,78.820991 L402.327054,78.5400663 L402.154107,78.6697238 Z M406.542619,73.5050311 L406.488573,73.6346886 L406.488573,73.7643462 L406.488573,73.8940037 L408.974676,74.0668805 L408.974676,73.9372229 L409.028721,73.8075654 L409.028721,73.6779078 C409.033367,73.6348134 409.033367,73.5913447 409.028721,73.5482502 L406.553428,73.3753735 L406.542619,73.5050311 Z M403.710624,77.3731482 L403.570105,77.5028058 L403.418777,77.6324633 L403.278258,77.7621209 L405.785979,78.0322408 L405.937307,77.9025833 L406.077826,77.7621209 L406.218345,77.6324633 L406.358863,77.5028058 L403.851143,77.2542955 L403.710624,77.3731482 Z M406.294009,68.4916055 C406.289746,68.5347196 406.289746,68.5781489 406.294009,68.621263 C406.31406,68.6599237 406.332099,68.6995941 406.348054,68.7401158 L406.348054,68.8589685 L408.736875,68.9346021 L408.67202,68.8157493 C408.676283,68.7726352 408.676283,68.7292059 408.67202,68.6860918 L408.607165,68.567239 L408.54231,68.4375815 L406.175108,68.3727527 L406.294009,68.4916055 Z M406.758802,69.7233523 L406.758802,69.8530098 C406.758802,69.8530098 406.758802,69.9286434 406.758802,69.9718626 L406.758802,70.1015201 L409.180049,70.1987633 L409.180049,70.0691058 C409.184695,70.0260113 409.184695,69.9825426 409.180049,69.9394482 L409.180049,69.8205954 C409.184695,69.777501 409.184695,69.7340323 409.180049,69.6909379 L406.791229,69.6044995 L406.758802,69.7233523 Z M406.888511,72.2300651 C406.888511,72.2300651 406.888511,72.3165034 406.888511,72.3597226 C406.888511,72.4029418 406.888511,72.446161 406.888511,72.4893802 L406.888511,72.6082329 L409.363805,72.7703049 C409.358598,72.7272424 409.358598,72.6837098 409.363805,72.6406473 C409.385437,72.5109917 409.407036,72.381334 409.428655,72.2516739 L406.953362,72.1112116 C406.953362,72.1112116 406.866893,72.1868459 406.866893,72.2300651 L406.888511,72.2300651 Z M382.027486,55.0936577 L382.330142,55.1800961 L382.621989,55.2665345 L384.319024,55.1044625 L384.016368,55.0180241 L383.713712,54.9315858 L383.411056,54.8451474 L383.097591,54.758709 L381.432983,54.920781 L381.735639,55.0072193 L382.027486,55.0936577 Z M400.284126,79.9446898 L400.078752,80.0743474 L399.862569,80.2040049 L399.657196,80.3336625 L402.154107,80.6578064 L402.359481,80.5281488 L402.564855,80.3876865 L402.770229,80.2580289 L402.975602,80.1283714 L400.478691,79.8150323 L400.284126,79.9446898 Z M405.569796,67.2706634 C405.595889,67.3121969 405.62478,67.3519063 405.656269,67.3895162 L405.731933,67.508369 L405.818406,67.6380265 L408.16399,67.6380265 C408.132501,67.6004166 408.103609,67.5607072 408.077517,67.5191738 C408.051425,67.4776403 408.022533,67.4379309 407.991044,67.400321 L407.904571,67.2706634 L407.818098,67.1518107 L405.483323,67.1518107 L405.569796,67.2706634 Z M389.539839,84.979725 L389.215565,85.0985778 L388.869673,85.2174305 L388.52378,85.3470881 L390.890982,85.7900848 L391.236875,85.6604272 L391.571958,85.5415744 L391.917851,85.4119169 L392.252934,85.2930641 L389.874923,84.8608723 L389.539839,84.979725 Z M382.254478,87.3567803 L381.85454,87.475633 L381.443792,87.583681 L381.043854,87.7025338 L383.281347,88.2103592 L383.692094,88.0915064 L384.102841,87.9726537 L384.502779,87.8538009 L384.902718,87.7349481 L382.643607,87.2379275 L382.254478,87.3567803 Z M386.059296,86.1790574 L385.691785,86.2979102 L385.324274,86.416763 L384.945954,86.5356157 L387.237492,87.0110268 L387.626621,86.892174 L387.994132,86.7733212 L388.372452,86.6436637 L388.739963,86.5248109 L386.426807,86.0602047 L386.059296,86.1790574 Z M392.706918,83.7479782 L392.404262,83.8776358 L392.101606,83.9964885 L391.79895,84.1261461 L394.198579,84.5367284 L394.512044,84.3638516 L394.82551,84.2449988 L395.128166,84.1153413 L395.430821,83.9856837 L393.009574,83.5859063 L392.706918,83.7479782 Z M398.111489,81.2412654 L397.873687,81.3601182 L397.625077,81.4897757 L397.387276,81.6194333 L399.85176,81.9759916 L400.100371,81.846334 L400.348981,81.7166765 L400.586782,81.5870189 L400.824583,81.4573613 L398.338481,81.1116078 L398.111489,81.2412654 Z M281.642989,43.7918405 L280.735022,43.7918405 L280.735022,44.0943748 L282.529339,44.0943748 L282.529339,43.7918405 L281.621371,43.7918405 L281.642989,43.7918405 Z M390.112724,57.7408329 L390.361334,57.838076 L390.620754,57.9353192 L390.880173,58.0325624 L392.760964,57.9245144 L392.501544,57.8164664 L392.242125,57.7192233 L391.982705,57.6219801 L391.712477,57.5247369 L389.853305,57.6543945 L390.112724,57.7408329 Z M378.125386,88.4912839 L377.69302,88.5993319 L377.260655,88.7181846 L376.828289,88.8262326 L378.990117,89.3664724 L379.433292,89.2476197 L379.865658,89.1395717 L380.308833,89.0207189 L380.741198,88.9018662 L378.57937,88.3832359 L378.125386,88.4912839 Z M404.596973,66.0929406 L404.705065,66.2117934 L404.802347,66.3306461 L404.899629,66.4494989 L407.201977,66.4494989 L407.104694,66.3306461 L406.996603,66.2117934 L406.888511,66.0929406 L406.769611,65.9740879 L404.488882,65.9740879 L404.596973,66.0929406 Z M385.50803,56.1525278 L387.26992,56.0120654 L386.978073,55.9148222 L386.686226,55.8283839 L386.394379,55.7419455 L386.102532,55.6447023 L384.362261,55.7959695 L384.654107,55.8824079 L384.935145,55.979651 L385.226992,56.0660894 L385.50803,56.1525278 Z M387.453675,56.8008156 L387.723904,56.8872539 L387.994132,56.9844971 L388.264361,57.0817403 L390.091106,56.9520827 L389.810068,56.8548395 L389.539839,56.7575964 L389.258802,56.6603532 L388.977764,56.5739148 L387.183447,56.7035724 L387.453675,56.8008156 Z M377.638975,53.3216711 L377.303891,53.2460375 L376.968808,53.1595991 L376.644534,53.0839655 L375.098826,53.2676471 L375.43391,53.3540855 L375.758184,53.429719 L376.082458,53.5053526 L376.406733,53.591791 L377.974058,53.4081094 L377.638975,53.3216711 Z M406.931748,70.9659039 L406.931748,71.3980957 L409.385423,71.5277533 C409.385423,71.5277533 409.385423,71.4413149 409.385423,71.3980957 L409.385423,71.2684382 C409.380109,71.2253822 409.380109,71.1818366 409.385423,71.1387806 C409.385423,71.1387806 409.385423,71.0523422 409.385423,71.0199278 L406.964175,70.9010751 L406.931748,70.9659039 Z M373.682829,89.5933732 L373.218036,89.7014211 L372.753243,89.8094691 L372.28845,89.9067123 L374.363805,90.4793665 L374.839407,90.3713185 L375.315009,90.2524657 L375.790611,90.1444178 L376.255405,90.0363698 L374.093576,89.4853252 L373.682829,89.5933732 Z M372.78567,52.7274073 L373.120754,52.8030408 L374.612415,52.6085545 L374.277332,52.5329209 L373.931439,52.4464825 L373.585547,52.370849 L373.239654,52.2952154 L371.769611,52.4897017 L372.104694,52.5761401 L372.439778,52.6517737 L372.78567,52.7274073 Z M378.946881,54.2400788 L379.260346,54.3265171 L379.573811,54.4129555 L381.195182,54.2400788 L380.881717,54.1536404 L380.568252,54.0780068 L380.243978,53.9915685 L379.919704,53.9051301 L378.298332,54.1104212 L378.611797,54.1968596 L378.946881,54.2400788 Z M400.802965,62.883916 L400.965102,62.991964 L401.138048,63.100012 L401.300185,63.2188647 L403.462014,63.2188647 L403.289067,63.1108168 L403.12693,62.991964 L402.953984,62.883916 L402.781038,62.7650633 L400.619209,62.7650633 L400.802965,62.883916 Z M402.37029,63.9643957 L402.510809,64.0724437 L402.651328,64.1912964 L402.802656,64.2993444 L405.01853,64.2993444 L404.878011,64.1804916 L404.726683,64.0616389 L404.575355,63.9535909 L404.424027,63.8347381 L402.262199,63.8347381 L402.37029,63.9643957 Z M363.900556,50.3179376 L363.522236,50.2531088 L363.143916,50.1774753 L362.765596,50.1126465 L362.398085,50.0478177 L361.122607,50.2747184 L361.490117,50.3395472 L361.857628,50.404376 L362.225139,50.4692048 L362.59265,50.5340336 L363.900556,50.3179376 Z M403.407968,64.9152178 L403.537678,65.0340705 L403.656578,65.1421185 L403.786288,65.2609713 L406.045398,65.2609713 L405.915689,65.1421185 L405.785979,65.0232658 L405.64546,64.904413 L405.51575,64.7855602 L403.278258,64.7855602 L403.407968,64.9152178 Z M399.084311,61.825046 L399.268067,61.9330939 L399.451822,62.0411419 L399.635578,62.1599947 L401.797406,62.1059707 L401.61365,61.9979227 L401.419086,61.8898747 L401.224521,61.7818268 L400.997529,61.6737788 L398.900556,61.6737788 L399.084311,61.825046 Z M397.117048,60.7445663 L397.33323,60.8526143 L397.527795,60.9606622 L397.733169,61.0687102 L399.797715,61.0038814 L399.592341,60.8958335 L399.376158,60.7877855 L399.170784,60.6797375 L398.954602,60.5716896 L396.911674,60.6473231 L397.117048,60.7445663 Z M392.652872,58.7024598 L392.890673,58.7997029 L393.128474,58.8969461 L393.366275,59.0049941 L395.311921,58.8969461 L395.07412,58.7997029 L394.82551,58.7024598 L394.576899,58.5944118 L394.328289,58.4971686 L392.415071,58.6052166 L392.652872,58.7024598 Z M394.976838,59.7073058 L395.19302,59.8153538 L395.420012,59.912597 L395.647004,60.0206449 L397.646695,59.9342066 L397.419704,59.8369634 L397.192712,59.7289154 L396.96572,59.6208675 L396.673873,59.5128195 L394.6958,59.5992579 L394.976838,59.7073058 Z M395.592959,82.483817 L395.32273,82.6026698 L395.052502,82.7323273 L394.771464,82.8619849 L397.225139,83.2401528 L397.495368,83.1104952 L397.765596,82.9808377 L398.035825,82.8511801 L398.306053,82.7323273 L395.863187,82.3541594 L395.592959,82.483817 Z M314.62168,97.3944363 L313.929895,97.3944363 L313.227301,97.3944363 L312.524707,97.3944363 L313.302965,98.1723816 L314.016368,98.1723816 L314.729771,98.1723816 L315.443175,98.1723816 L316.156578,98.1723816 L315.313465,97.4052411 L314.62168,97.3944363 Z M330.835392,45.996019 L330.403027,45.996019 L329.970661,45.996019 L329.235639,46.2769437 L329.657196,46.2769437 L330.089561,46.2769437 L330.500309,46.2769437 L330.921865,46.2769437 L331.689314,45.996019 L331.267758,45.996019 L330.835392,45.996019 Z M308.82798,44.4617379 L308.384805,44.4617379 L307.941631,44.4617379 L307.541692,44.7534674 L307.974058,44.7534674 L308.417233,44.7534674 L308.860408,44.7534674 L309.303582,44.7534674 L309.725139,44.4617379 L309.281964,44.4617379 L308.82798,44.4617379 Z M307.638975,97.7726042 L306.925571,97.7726042 L306.212168,97.7726042 L305.509574,97.7726042 L306.114886,98.5613543 L306.839098,98.5613543 L307.563311,98.5613543 L308.287523,98.5613543 L309.011736,98.5613543 L308.341569,97.7834089 L307.638975,97.7726042 Z M317.745522,44.9695633 L317.302347,44.9695633 L316.859172,44.9695633 L316.318715,45.2612928 L316.76189,45.2612928 L317.194256,45.2612928 L317.626621,45.2612928 L318.058987,45.2612928 L318.631872,44.9695633 L318.188697,44.9695633 L317.745522,44.9695633 Z M328.241198,96.3895902 L327.581841,96.4436142 L326.911674,96.4436142 L326.241507,96.508443 L327.322421,97.2539739 L328.014206,97.2539739 L328.695182,97.1891451 L329.365349,97.1891451 L330.046325,97.1243164 L328.889747,96.3895902 L328.241198,96.3895902 Z M321.528721,45.6070463 L321.961087,45.6070463 L322.393453,45.6070463 L323.031192,45.3153168 L322.588017,45.3153168 L322.155652,45.3153168 L321.712477,45.3153168 L321.280111,45.3153168 L320.66399,45.6070463 L321.096356,45.6070463 L321.528721,45.6070463 Z M321.528721,96.9730492 L320.858555,97.0270732 L320.177579,97.0270732 L319.485794,97.0270732 L320.41538,97.7942137 L321.117974,97.7942137 L321.820568,97.7401898 L322.512353,97.7401898 L323.214947,97.6861658 L322.209697,96.9190252 L321.528721,96.9730492 Z M313.270537,45.1100257 L313.702903,45.1100257 L314.210933,44.8182962 L313.756949,44.8182962 L313.313774,44.8182962 L312.870599,44.8182962 L312.427424,44.8182962 L311.951822,45.1100257 L312.384188,45.1100257 L312.827363,45.1100257 L313.270537,45.1100257 Z M286.247684,43.8998885 L285.339716,43.8998885 L285.253243,44.2024228 L287.04756,44.2024228 L287.155652,43.8998885 L286.247684,43.8998885 L286.247684,43.8998885 Z M295.316553,44.0511556 L294.408586,44.0511556 L294.214021,44.3536899 L295.98672,44.3536899 L296.224521,44.0619604 L295.770537,44.0619604 L295.316553,44.0511556 Z M293.306053,98.366868 L292.581841,98.366868 L291.857628,98.366868 L291.133416,98.366868 L291.392835,99.1664229 L292.138666,99.1664229 L292.884497,99.1664229 L293.619518,99.1664229 L294.365349,99.1664229 L294.030266,98.366868 L293.306053,98.366868 Z M286.053119,98.4857207 L283.891291,98.4857207 L283.977764,99.2960805 L286.961087,99.2960805 L286.788141,98.4857207 L286.053119,98.4857207 Z M300.504941,98.1615768 L299.780729,98.1615768 L299.067326,98.1615768 L298.343113,98.1615768 L298.775479,98.9611318 L299.521309,98.9611318 L300.256331,98.9611318 L300.991353,98.9611318 L301.726374,98.9611318 L301.218345,98.1723816 L300.504941,98.1615768 Z M291.695491,43.975522 L289.879555,43.975522 L289.739036,44.2780563 L291.522545,44.2780563 L291.695491,43.975522 Z M299.553737,44.4833475 L299.996912,44.4833475 L300.450896,44.4833475 L300.742742,44.1808132 L299.834775,44.1808132 L299.3916,44.1808132 L298.937616,44.1808132 L298.667387,44.4833475 L299.553737,44.4833475 Z M304.342187,44.3536899 L303.888203,44.3536899 L303.445028,44.3536899 L303.109944,44.6454194 L303.54231,44.6454194 L303.985485,44.6454194 L304.439469,44.6454194 L304.882644,44.6454194 L305.239345,44.3536899 L304.79617,44.3536899 L304.342187,44.3536899 Z M343.471279,47.4330569 L343.049722,47.4330569 L342.638975,47.379033 L341.709389,47.6491529 L342.109327,47.6491529 L342.520074,47.6491529 L342.920012,47.6491529 L343.319951,47.7031769 L344.292773,47.4438617 L343.882026,47.3898378 L343.471279,47.4330569 Z M358.604077,92.683545 L358.05281,92.7699833 L357.501544,92.8672265 L356.950278,92.9536649 L358.722977,93.6019527 L359.285053,93.5047095 L359.847128,93.4074663 L360.398394,93.321028 L360.960469,93.2237848 L359.155343,92.5863018 L358.604077,92.683545 Z M326.641445,46.0716526 L327.33323,45.7799231 L326.900865,45.7799231 L326.468499,45.7799231 L326.036133,45.7799231 L325.603768,45.7799231 L324.922792,46.0608478 L325.355158,46.0608478 L325.787523,46.0608478 L326.20908,46.0608478 L326.641445,46.0716526 Z M358.160902,49.9289649 L358.539222,49.9937937 L358.917542,50.0586225 L360.138975,49.8317218 L359.760655,49.766893 L359.382335,49.7020642 L359.004015,49.6372354 L358.614886,49.5724067 L357.415071,49.8101122 L357.782582,49.874941 L358.160902,49.9289649 Z M355.512662,49.075386 L355.112724,49.075386 L354.723595,49.0105572 L353.642681,49.2590676 L354.021001,49.3130915 L354.41013,49.3779203 L354.799259,49.3779203 L355.177579,49.4427491 L356.344966,49.2050436 L355.955837,49.1402148 L355.512662,49.075386 Z M365.511118,51.2363453 L365.86782,51.3119789 L366.224521,51.3768077 L367.586473,51.1607118 L367.229771,51.095883 L366.862261,51.0202494 L366.49475,50.9554206 L366.138048,50.879787 L364.797715,51.095883 L365.154416,51.1715166 L365.511118,51.2363453 Z M353.004941,93.5479287 L352.432057,93.6343671 L351.848363,93.7208054 L351.275479,93.8072438 L352.929277,94.4771412 L353.52378,94.3907028 L354.107474,94.3042645 L354.701977,94.2178261 L355.28567,94.1313877 L353.577826,93.4614903 L353.004941,93.5479287 Z M369.01328,51.9494619 L369.359172,52.0250955 L369.705065,52.1007291 L371.142681,51.8954379 L370.796788,51.8198043 L370.440086,51.7441708 L370.083385,51.6685372 L369.726683,51.6037084 L368.321495,51.8089995 L368.667387,51.8846331 L369.01328,51.9494619 Z M368.937616,90.6954624 L368.451204,90.8035104 L367.953984,90.9007535 L367.456763,91.0088015 L369.434836,91.6030653 L369.942866,91.4950173 L370.450896,91.3869694 L370.948116,91.2789214 L371.456146,91.1708734 L369.424027,90.5982192 L368.937616,90.6954624 Z M351.934836,48.5567558 L351.534898,48.5567558 L351.13496,48.5027318 L350.735022,48.5027318 L349.654107,48.7512421 L350.043237,48.7512421 L350.432366,48.8052661 L350.832304,48.8052661 L351.221433,48.8700949 L352.302347,48.6215846 L351.934836,48.5567558 Z M334.218653,46.7847691 L334.64021,46.7847691 L335.061767,46.7847691 L335.883261,46.5146492 L335.461705,46.5146492 L335.040148,46.5146492 L334.618592,46.5146492 L334.197035,46.5146492 L333.38635,46.7847691 L333.807906,46.7847691 L334.218653,46.7847691 Z M341.039222,95.179453 L340.466337,95.1686482 L339.850216,95.233477 L339.223286,95.3091105 L340.606856,96.0222271 L341.244595,95.9465935 L341.882335,95.87096 L342.520074,95.8061312 L343.147004,95.7304976 L341.698579,95.017381 L341.039222,95.179453 Z M334.715874,95.87096 L334.067326,95.9465935 L333.418777,96.0114223 L332.781038,96.0114223 L334.024089,96.7461485 L334.683447,96.6813197 L335.342804,96.6164909 L336.012971,96.5516621 L336.661519,96.4760286 L335.364422,95.7521072 L334.715874,95.87096 Z M346.487029,48.2110023 L346.886967,48.2110023 L347.286905,48.2110023 L348.36782,47.9516872 L347.967881,47.8976632 L347.567943,47.8976632 L347.157196,47.8436392 L346.757258,47.8436392 L345.741198,48.1029543 L346.141137,48.1029543 L346.487029,48.2110023 Z M347.135578,94.4123124 L346.530266,94.4987508 L345.935763,94.5743844 L345.319642,94.6500179 L346.85454,95.3415249 L347.470661,95.2658913 L348.086782,95.179453 L348.692094,95.1038194 L349.297406,95.017381 L347.73008,94.3366788 L347.135578,94.4123124 Z M363.900556,91.7435277 L363.381717,91.8407708 L362.852069,91.938014 L362.322421,92.0244524 L364.214021,92.6511306 L364.743669,92.5538874 L365.284126,92.4458394 L365.813774,92.3485963 L366.332613,92.2513531 L364.419395,91.6354797 L363.900556,91.7435277 Z M340.120445,47.0548891 L339.709697,47.0548891 L339.288141,47.0548891 L338.877393,47.0548891 L338.455837,47.0548891 L337.580296,47.325009 L337.991044,47.325009 L338.401791,47.325009 L338.812539,47.325009 L339.223286,47.325009 L340.120445,47.0548891 Z" id="形状" fill="url(#linearGradient-2)" fill-rule="nonzero"></path>
                <ellipse id="椭圆形" stroke="url(#linearGradient-3)" stroke-width="0.7" cx="280" cy="25.2292" rx="100.96819" ry="25.2292"></ellipse>
                <ellipse id="椭圆形" stroke="url(#linearGradient-5)" stroke-width="0.7" fill="url(#radialGradient-4)" cx="280" cy="50.9230062" rx="72.064546" ry="18.0115959"></ellipse>
                <ellipse id="椭圆形" stroke="url(#linearGradient-7)" stroke-width="0.5" fill="url(#radialGradient-6)" cx="280" cy="66.6655948" rx="38.3940704" ry="9.59465935"></ellipse>
                <ellipse id="椭圆形" stroke="url(#linearGradient-8)" stroke-width="2.8" cx="280.962014" cy="63.9319813" rx="106.621371" ry="22.2470761"></ellipse>
                <path d="M280,7.15277533 C125.364422,7.15277533 0.0432365658,51.5388796 0.0432365658,106.297589 C0.0432365658,161.056298 125.429277,205.431597 280,205.431597 C434.570723,205.431597 559.956763,161.045493 559.956763,106.297589 C559.956763,51.5496844 434.646387,7.15277533 280,7.15277533 Z M280,155.707923 C152.257566,155.707923 48.6843731,127.831548 48.6843731,93.4398807 C48.6843731,59.0482132 152.235948,31.1718381 280,31.1718381 C407.764052,31.1718381 511.315627,59.0482132 511.315627,93.4398807 C511.315627,127.831548 407.742434,155.675509 280,155.675509 L280,155.707923 Z" id="形状" fill="url(#radialGradient-9)" fill-rule="nonzero"></path>
                <ellipse id="椭圆形" stroke="url(#linearGradient-10)" stroke-width="0.7" cx="278.973132" cy="72.9107672" rx="141.556516" ry="33.354407"></ellipse>
                <ellipse id="椭圆形" stroke="url(#linearGradient-11)" stroke-width="0.5" cx="280" cy="68.567239" rx="123.948425" ry="26.6986523"></ellipse>
                <ellipse id="椭圆形" stroke="url(#linearGradient-12)" stroke-width="0.7" cx="280.75664" cy="78.7993814" rx="182.728536" ry="43.7594261"></ellipse>
                <ellipse id="椭圆形" stroke="url(#linearGradient-13)" stroke-width="0.7" cx="280" cy="106.254369" rx="280" ry="99.1015941"></ellipse>
                <g id="椭圆形" stroke-width="1.4">
                    <use stroke="url(#linearGradient-14)" xlink:href="#path-16"></use>
                    <use stroke="url(#radialGradient-15)" xlink:href="#path-16"></use>
                </g>
                <ellipse id="椭圆形" stroke="url(#linearGradient-17)" stroke-width="4.2" cx="279.610871" cy="100.236098" rx="252.209697" ry="82.3541594"></ellipse>
            </g>
        </g>
    </g>
</svg>