<?xml version="1.0" encoding="UTF-8"?>
<svg width="16px" height="15px" viewBox="0 0 16 15" version="1.1" xmlns="http://www.w3.org/2000/svg" xmlns:xlink="http://www.w3.org/1999/xlink">
    <title>时间</title>
    <g id="页面-1" stroke="none" stroke-width="1" fill="none" fill-rule="evenodd">
        <g id="聊城登录首页" transform="translate(-608, -2791)" fill="#1172E0" fill-rule="nonzero">
            <g id="服务网点" transform="translate(-1, 2561)">
                <g id="编组" transform="translate(385, 128)">
                    <g id="时间" transform="translate(224.4186, 102)">
                        <rect id="矩形" opacity="0" x="0" y="0" width="14.9612403" height="15"></rect>
                        <path d="M8.18192829,7.3828125 L8.18192829,7.8515625 C8.18192829,7.91601562 8.12933018,7.96875 8.0650436,7.96875 L6.89619671,7.96875 C6.83191013,7.96875 6.77931202,7.91601562 6.77931202,7.8515625 L6.77931202,7.3828125 C6.77931202,7.31835938 6.83191013,7.265625 6.89619671,7.265625 L8.0650436,7.265625 C8.12933018,7.265625 8.18192829,7.31835938 8.18192829,7.3828125 Z M14.9612403,7.3828125 L14.9612403,13.3740234 C14.9612403,13.8911133 14.5419165,14.3115234 14.0261628,14.3115234 L0.935077519,14.3115234 C0.419323825,14.3115234 0,13.8911133 0,13.3740234 L0,7.3828125 C0,7.31835938 0.0525981105,7.265625 0.11688469,7.265625 L5.72734981,7.265625 C5.79163639,7.265625 5.8442345,7.31835938 5.8442345,7.3828125 L5.8442345,7.96875 C5.8442345,8.48583984 6.26355832,8.90625 6.77931202,8.90625 L8.18192829,8.90625 C8.69768199,8.90625 9.11700581,8.48583984 9.11700581,7.96875 L9.11700581,7.3828125 C9.11700581,7.31835938 9.16960392,7.265625 9.2338905,7.265625 L14.8443556,7.265625 C14.9086422,7.265625 14.9612403,7.31835938 14.9612403,7.3828125 Z M13.0910853,2.59277344 L10.8702762,2.59277344 C10.8059896,2.59277344 10.7533915,2.54003906 10.7533915,2.47558594 L10.7533915,2.109375 C10.7533915,1.33300781 10.1251363,0.703125 9.35077519,0.703125 L5.61046512,0.703125 C4.83610405,0.703125 4.20784884,1.33300781 4.20784884,2.109375 L4.20784884,2.47558594 C4.20784884,2.54003906 4.15525073,2.59277344 4.09096415,2.59277344 L1.87015504,2.59277344 C0.837186592,2.59277344 0,3.43212891 0,4.46777344 L0,6.2109375 C0,6.27539062 0.0525981105,6.328125 0.11688469,6.328125 L14.8443556,6.328125 C14.9086422,6.328125 14.9612403,6.27539062 14.9612403,6.2109375 L14.9612403,4.46777344 C14.9612403,3.43212891 14.1240537,2.59277344 13.0910853,2.59277344 Z M5.14292636,2.109375 C5.14292636,1.85009766 5.35185774,1.640625 5.61046512,1.640625 L9.35077519,1.640625 C9.60938257,1.640625 9.81831395,1.85009766 9.81831395,2.109375 L9.81831395,2.4609375 C9.81831395,2.52539062 9.76571584,2.578125 9.70142926,2.578125 L5.25981105,2.578125 C5.19552447,2.578125 5.14292636,2.52539062 5.14292636,2.4609375 L5.14292636,2.109375 Z" id="形状"></path>
                    </g>
                </g>
            </g>
        </g>
    </g>
</svg>