<?xml version="1.0" encoding="UTF-8"?>
<svg width="20px" height="20px" viewBox="0 0 20 20" version="1.1" xmlns="http://www.w3.org/2000/svg" xmlns:xlink="http://www.w3.org/1999/xlink">
    <!-- Generator: Sketch 56.2 (81672) - https://sketch.com -->
    <title>快捷菜单</title>
    <desc>Created with Sketch.</desc>
    <g id="页面-1" stroke="none" stroke-width="1" fill="none" fill-rule="evenodd">
        <g id="单位管理" transform="translate(-1280.000000, -17.000000)" fill-rule="nonzero">
            <g id="top" transform="translate(0.000000, 0.000000)">
                <g id="编组-7" transform="translate(1260.000000, 0.000000)">
                    <g id="快捷菜单" transform="translate(20.000000, 17.000000)">
                        <rect id="矩形" fill="#000000" opacity="0" x="0" y="0" width="20" height="20"></rect>
                        <path d="M1.69847676,14.2391347 C1.79483836,14.1325021 1.93184161,14.0716524 2.0755638,14.0716524 C2.21928598,14.0716524 2.35628924,14.1325021 2.45265084,14.2391347 C2.65672993,14.4491083 2.65672993,14.7833352 2.45265084,14.9933087 L1.13284619,16.3131134 C1.03374937,16.4179016 0.895885046,16.4772739 0.751660381,16.4772739 C0.607435716,16.4772739 0.469571396,16.4179016 0.37047457,16.3131134 C0.166395483,16.1031398 0.166395483,15.7689129 0.37047457,15.5589393 L1.69847676,14.2391347 Z" id="路径" fill="#A0C4FE"></path>
                        <path d="M3.35438074,11.6733033 C3.28880039,12.181551 3.28880039,12.7061939 3.23961512,13.2144416 L6.75636168,16.7393857 C7.26460943,16.7393857 7.78105473,16.6820029 8.29750002,16.6164226 C8.92928197,16.5389684 9.55414864,16.4128988 10.1665402,16.2393355 C10.2614345,16.2224687 10.3585598,16.2224687 10.4534542,16.2393355 C10.692662,16.2478756 10.9186596,16.3511719 11.0816505,16.5264639 C11.2446413,16.701756 11.3312503,16.9346592 11.3223939,17.1738556 C11.2949466,17.8809801 11.142294,18.5776313 10.871529,19.2314392 C10.7649609,19.4609705 10.6583928,19.6986993 10.5272321,19.9200329 C11.0215986,20.0266566 11.5330163,20.0266566 12.0273827,19.9200329 C12.876237,19.7857902 13.6632608,19.3937093 14.2817075,18.7969694 L14.2817075,18.7559816 C14.8547562,18.1923054 15.2459071,17.4699611 15.404771,16.6820029 C15.5798769,15.8918205 15.5171246,15.0674835 15.2244251,14.3129126 C15.1028469,13.9678719 15.1997294,13.5835715 15.4703514,13.3374048 L15.7572654,13.0668858 L15.9867967,12.8373546 C17.6510421,11.178857 18.8448702,9.10804617 19.4461604,6.83675205 C20.0600531,4.71979389 20.141713,2.48400323 19.6838892,0.327901777 C17.554311,-0.149495317 15.340837,-0.104494578 13.2324218,0.45906248 C10.9427195,1.06374728 8.85486027,2.26610525 7.18263398,3.94301887 L6.9285101,4.18074766 L6.67438623,4.45126662 C6.4328587,4.75108481 6.02525528,4.86044183 5.66608826,4.72178559 C4.90820785,4.43017639 4.08078672,4.37025968 3.28880037,4.54963715 C2.50600971,4.7096601 1.78924307,5.10088333 1.23121672,5.67270074 C0.252181679,6.66784675 -0.173999016,8.08129496 0.0917580469,9.45176873 C0.328814048,9.31888168 0.575419766,9.20379901 0.829537051,9.10747186 C1.47797159,8.84569393 2.16452419,8.69066593 2.86252807,8.64840937 C2.96258786,8.62786909 3.06577741,8.62786909 3.16583721,8.64840937 C3.41099235,8.71431025 3.61606383,8.88227706 3.72896499,9.10964745 C3.84186615,9.33701784 3.85173336,9.60191367 3.75606041,9.83705332 C3.57917528,10.4528221 3.4449637,11.0800558 3.35438074,11.714291 L3.35438074,11.6733033 Z" id="路径" fill="#3E7AFC"></path>
                        <path d="M4.99388963,17.52635 C5.20214905,17.3180906 5.53980428,17.3180906 5.7480637,17.52635 C5.95632311,17.7346094 5.95632312,18.0722646 5.74806371,18.2805241 L4.40366643,19.6085263 C4.30652877,19.707667 4.17357391,19.7635352 4.03477692,19.7635352 C3.89597994,19.7635352 3.76302508,19.707667 3.66588742,19.6085263 C3.55925483,19.5121647 3.49840519,19.3751614 3.49840519,19.2314392 C3.49840519,19.087717 3.55925483,18.9507138 3.66588742,18.8543522 L4.99388963,17.52635 Z M3.34618318,15.870446 C3.55670629,15.6621866 3.89619662,15.6640217 4.10445604,15.8745448 C4.31271547,16.0850679 4.3108804,16.4245582 4.10035729,16.6328176 L1.08366094,19.6741066 C0.87646941,19.8771949 0.544875922,19.8771949 0.337684395,19.6741066 C0.213082639,19.5745499 0.140533205,19.4237197 0.140533205,19.2642294 C0.140533205,19.1047392 0.213082639,18.9539089 0.337684395,18.8543522 L3.34618318,15.870446 Z" id="形状" fill="#A0C4FE"></path>
                        <path d="M17.1672431,6.13176322 C17.1705583,7.4793819 16.3608852,8.69599649 15.1164794,9.21324042 C13.8720736,9.73048435 12.4385684,9.44625881 11.4856552,8.49334562 C10.532742,7.54043243 10.2485165,6.10692718 10.7657604,4.86252138 C11.2830043,3.61811557 12.4996189,2.80844255 13.8472376,2.81175773 C14.7311197,2.8006384 15.582052,3.14685191 16.2071005,3.77190037 C16.8321489,4.39694882 17.1783624,5.24788116 17.1672431,6.13176322 L17.1672431,6.13176322 Z" id="路径" fill="#FFFFFF"></path>
                        <path d="M13.8472376,3.87742348 C12.6088817,3.88196638 11.6078154,4.88792495 11.609323,6.12628821 C11.610834,7.36465146 12.6143494,8.36816689 13.8527127,8.36967787 C15.0910759,8.37118545 16.0970345,7.37011912 16.1015774,6.13176322 C16.1037508,5.5332109 15.8669452,4.95854214 15.4437019,4.53529891 C15.0204587,4.11205568 14.4457899,3.87525 13.8472376,3.87742348 L13.8472376,3.87742348 Z" id="路径" fill="#A0C4FE"></path>
                    </g>
                </g>
            </g>
        </g>
    </g>
</svg>