<?xml version="1.0" encoding="UTF-8"?>
<svg width="24px" height="24px" viewBox="0 0 24 24" version="1.1" xmlns="http://www.w3.org/2000/svg" xmlns:xlink="http://www.w3.org/1999/xlink">
    <title>评价</title>
    <g id="小区画像" stroke="none" stroke-width="1" fill="none" fill-rule="evenodd">
        <g id="项目画像" transform="translate(-1575.000000, -265.000000)" fill-rule="nonzero">
            <g id="评价" transform="translate(1575.000000, 265.000000)">
                <rect id="矩形" fill="#000000" opacity="0" x="0" y="0" width="24" height="24"></rect>
                <path d="M1.452,12.1044 C1.452,17.9398407 6.18255933,22.6704 12.018,22.6704 C17.8534407,22.6704 22.584,17.9398407 22.584,12.1044 C22.584,6.26895933 17.8534407,1.5384 12.018,1.5384 C6.18255933,1.5384 1.452,6.26895933 1.452,12.1044 Z" id="路径" fill="#E9F4FF"></path>
                <path d="M11.5416,17.6904 C11.2608,16.7172 10.7556,15.8736 9.9744,15.2196 C8.8968,14.3184 7.6176,13.9764 6.2388,13.956 C6.078,13.956 5.9148,13.9428 5.7552,13.9584 C5.3916,13.9956 5.1156,14.3136 5.1408,14.67 C5.1888,15.324 5.3052,15.9648 5.5728,16.5672 C6.2928,18.192 7.6032,19.0896 9.2772,19.4892 C9.852,19.6272 10.4604,19.6536 11.0556,19.674 C11.556,19.6908 11.8656,19.3176 11.7876,18.858 C11.7216,18.4668 11.6508,18.072 11.5416,17.6904 Z" id="路径" fill="#3A9CED"></path>
                <path d="M18.1896,13.9464 C17.4468,13.926 16.7184,14.0196 16.0116,14.2428 C14.8932,14.5956 13.9776,15.2304 13.3176,16.2144 C12.7944,16.9956 12.5316,17.8692 12.396,18.7908 C12.3228,19.29 12.5712,19.638 13.0728,19.6812 C13.1796,19.6908 13.2876,19.6824 13.3944,19.6824 C14.118,19.6596 14.8296,19.5672 15.5172,19.3212 C16.4832,18.9744 17.3256,18.4452 17.9676,17.634 C18.606,16.8288 18.924,15.8964 19.0104,14.8776 C19.0644,14.2404 18.8268,13.9632 18.1896,13.9464 Z M12.0372,8.9688 L12.0348,8.9688 C11.7672,8.9688 11.5116,9.0768 11.3136,9.2724 C11.118,9.4668 11.01,9.7164 11.01,9.9768 C11.0112,10.2828 11.124,10.5636 11.3304,10.7664 C11.5182943,10.9530824 11.7735639,11.0560556 12.0384,11.052 C12.3156,11.0496 12.576,10.938 12.768,10.7412 C12.956191,10.5501977 13.0599324,10.2917087 13.056,10.0236 C13.0476,9.4128 12.6192,8.9688 12.0372,8.9688 L12.0372,8.9688 Z" id="形状" fill="#2595E8"></path>
                <path d="M16.3284,9.9204 C17.3424,9.0012 17.256,7.8372 16.8912,7.1448 C16.6848,6.7548 16.374,6.4596 15.9852,6.2556 C15.3984,5.9496 14.7852,5.934 14.1648,6.1356 C13.6704,4.8336 12.9588,4.2384 11.9424,4.272 C11.454,4.2888 11.0112,4.4412 10.6224,4.7424 C10.1652,5.0964 9.9084,5.5704 9.7872,6.1356 C8.664,5.82 7.7172,6.0744 7.1052,7.0848 C6.468,8.1372 6.7644,9.0924 7.5948,9.9204 C6.5928,10.8276 6.6744,11.9832 7.0404,12.6648 C7.2552,13.0644 7.5708,13.374 7.98,13.584 C8.5656,13.884 9.1668,13.902 9.7788,13.6824 C10.11,15.0552 11.1036,15.5244 11.898,15.5496 C12.9816,15.5832 13.6488,15.0372 14.16,13.6932 C15.3168,13.9692 16.2156,13.6872 16.7532,12.9024 C17.028,12.5004 17.1504,12.06 17.1408,11.58 C17.1276,10.9032 16.8252,10.3608 16.3284,9.9204 L16.3284,9.9204 Z M12,12.6924 L11.9916,12.6924 C11.3184,12.69 10.6512,12.4032 10.1592,11.9064 C9.6492,11.3892 9.372,10.6968 9.378,9.9564 C9.3912,8.5092 10.5864,7.3308 12.042,7.3308 L12.0432,7.3308 C12.7716,7.3308 13.4484,7.6164 13.9488,8.1336 C14.4552,8.6568 14.7192,9.3576 14.6928,10.1064 C14.6412,11.5824 13.4844,12.6924 12,12.6924 L12,12.6924 Z M17.1288,13.9992 C16.7508,14.0472 16.3788,14.1276 16.0116,14.2428 C14.8932,14.5956 13.9776,15.2304 13.3176,16.2144 C12.7944,16.9956 12.5316,17.8692 12.396,18.7908 C12.372,18.954 12.3828,19.1004 12.4248,19.2252 C14.5308,18.0756 16.2012,16.2312 17.1288,13.9992 Z" id="形状" fill="#3A9CED"></path>
                <path d="M15.042,6.0048 C14.7516,5.994 14.4588,6.0408 14.1636,6.1368 C13.6692,4.8348 12.9576,4.2396 11.9412,4.2732 C11.4528,4.29 11.01,4.4424 10.6212,4.7436 C10.164,5.0976 9.9072,5.5716 9.786,6.1368 C8.6628,5.8212 7.716,6.0756 7.104,7.086 C6.4668,8.1384 6.7632,9.0936 7.5936,9.9216 C6.5916,10.8288 6.6732,11.9844 7.0392,12.666 C7.254,13.0656 7.5696,13.3752 7.9788,13.5852 C8.5644,13.8852 9.1656,13.9032 9.7776,13.6836 C9.9096,14.2308 10.1472,14.6328 10.4352,14.922 C11.3916,14.268 12.2352,13.4604 12.9312,12.5352 C12.6321361,12.6409735 12.317218,12.6949478 12,12.6948 L11.9916,12.6948 C11.3184,12.6924 10.6512,12.4056 10.1592,11.9088 C9.6492,11.3916 9.372,10.6992 9.378,9.9588 C9.3912,8.5116 10.5864,7.3332 12.042,7.3332 L12.0432,7.3332 C12.7716,7.3332 13.4484,7.6188 13.9488,8.136 C14.2572,8.4552 14.4744,8.8416 14.5932,9.264 C14.89409,8.26901663 15.0465314,7.23508344 15.0456042,6.1956 L15.042,6.0048 L15.042,6.0048 Z M6.2388,13.956 C6.078,13.956 5.9148,13.9428 5.7552,13.9584 C5.3916,13.9956 5.1156,14.3136 5.1408,14.67 C5.1888,15.324 5.3052,15.9648 5.5728,16.5672 C5.592,16.6116 5.6136,16.6524 5.634,16.6956 C7.17142682,16.5290618 8.65310604,16.0250614 9.9732,15.2196 C8.8956,14.3184 7.6176,13.9776 6.2388,13.956 L6.2388,13.956 Z" id="形状" fill="#59ADF8"></path>
                <path d="M9.3828,9.8328 C9.4428,8.766 10.1436,7.8636 11.106,7.5012 C11.6530388,6.4966679 12.0324277,5.40957276 12.2292,4.2828 C12.1356,4.2744 12.0408,4.2696 11.9412,4.2732 C11.4528,4.29 11.01,4.4424 10.6212,4.7436 C10.164,5.0976 9.9072,5.5716 9.786,6.1368 C8.6628,5.8212 7.716,6.0756 7.104,7.086 C6.4668,8.1384 6.7632,9.0936 7.5936,9.9216 C6.9516,10.5024 6.756,11.1852 6.7932,11.7792 C7.75088856,11.2666956 8.62425405,10.610255 9.3828,9.8328 Z" id="路径" fill="#6BC2FC"></path>
            </g>
        </g>
    </g>
</svg>