<?xml version="1.0" standalone="no"?><!DOCTYPE svg PUBLIC "-//W3C//DTD SVG 1.1//EN" "http://www.w3.org/Graphics/SVG/1.1/DTD/svg11.dtd"><svg class="icon" width="200px" height="50.00px" viewBox="0 0 4096 1024" version="1.1" xmlns="http://www.w3.org/2000/svg"><path d="M1171.456 851.968h-12.288v-98.304h12.288v98.304z m77.824-98.304h10.24v98.304h-12.288l-43.008-79.872v77.824h-10.24v-98.304h14.336l43.008 79.872-2.048-77.824z m28.672 0h34.816c22.528 0 36.864 18.432 34.816 47.104 0 22.528-8.192 49.152-36.864 49.152h-34.816l2.048-96.256M1290.24 839.68h22.528c14.336 0 24.576-14.336 24.576-38.912s-10.24-36.864-24.576-36.864h-20.48c-2.048 2.048-2.048 75.776-2.048 75.776z m141.312-86.016v63.488c0 20.48-10.24 36.864-34.816 36.864-22.528 0-32.768-16.384-32.768-34.816v-65.536h12.288v61.44c0 20.48 10.24 26.624 22.528 26.624 10.24 0 22.528-6.144 22.528-26.624v-61.44h10.24z m69.632 28.672c0-14.336-12.288-20.48-20.48-20.48s-20.48 2.048-20.48 16.384c0 8.192 4.096 10.24 10.24 12.288l24.576 8.192c10.24 2.048 18.432 10.24 18.432 26.624 0 22.528-18.432 28.672-32.768 28.672-16.384 0-22.528-6.144-26.624-10.24-8.192-8.192-8.192-16.384-8.192-24.576h10.24c0 18.432 12.288 22.528 22.528 22.528 8.192 0 22.528-2.048 22.528-16.384 0-10.24-4.096-14.336-18.432-16.384l-18.432-4.096c-6.144-2.048-18.432-6.144-18.432-22.528 0-14.336 8.192-30.72 28.672-30.72 30.72 0 32.768 20.48 32.768 30.72h-6.144z m20.48-26.624h69.632v12.288h-28.672v86.016h-12.288v-86.016h-28.672v-12.288z m92.16 96.256h-12.288v-98.304h38.912c14.336 0 28.672 6.144 28.672 26.624 0 14.336-6.144 20.48-12.288 22.528 4.096 2.048 10.24 4.096 10.24 18.432v18.432c0 6.144 0 8.192 4.096 10.24v2.048h-14.336c-2.048-6.144-2.048-20.48-2.048-24.576 0-8.192-2.048-16.384-14.336-18.432h-28.672l2.048 43.008m0-53.248h26.624c8.192 0 16.384-2.048 18.432-16.384 0-14.336-10.24-16.384-14.336-16.384h-28.672c-2.048 0-2.048 32.768-2.048 32.768z m86.016 53.248h-12.288v-98.304h12.288v98.304z m32.768-26.624l-8.192 28.672h-12.288l32.768-98.304h12.288l30.72 98.304h-12.288l-8.192-28.672h-34.816z m30.72-12.288l-12.288-43.008-14.336 43.008h26.624z m47.104 28.672h43.008v12.288h-55.296v-98.304h12.288v86.016z m102.4-16.384l-8.192 28.672h-12.288l32.768-98.304h12.288l30.72 98.304h-12.288l-10.24-28.672h-32.768z m28.672-12.288l-12.288-43.008-14.336 43.008h26.624z m92.16-57.344h10.24v98.304h-12.288l-43.008-79.872v79.872h-10.24v-98.304h14.336l43.008 79.872-2.048-79.872z m30.72 0h34.816c22.528 0 36.864 20.48 34.816 47.104 0 22.528-8.192 49.152-36.864 49.152h-34.816l2.048-96.256m10.24 86.016h22.528c14.336 0 24.576-14.336 24.576-38.912s-10.24-36.864-24.576-36.864h-20.48l-2.048 75.776z m167.936-55.296c-4.096-16.384-16.384-20.48-24.576-20.48-16.384 0-28.672 12.288-28.672 38.912 0 22.528 6.144 40.96 28.672 40.96 8.192 0 20.48-4.096 24.576-26.624h10.24c-4.096 36.864-30.72 38.912-36.864 38.912-18.432 0-38.912-14.336-38.912-51.2 0-30.72 14.336-51.2 38.912-51.2 22.528 0 32.768 16.384 34.816 32.768l-8.192-2.048z m63.488 69.632c-32.768 0-40.96-30.72-40.96-51.2s10.24-51.2 40.96-51.2c32.768 0 40.96 30.72 40.96 51.2 0 22.528-10.24 51.2-40.96 51.2m0-90.112c-18.432 0-30.72 16.384-30.72 38.912 0 22.528 10.24 38.912 28.672 38.912 18.432 0 30.72-16.384 30.72-38.912 0-22.528-10.24-38.912-28.672-38.912m124.928 88.064v-57.344-24.576l-24.576 81.92h-10.24l-24.576-81.92v81.92h-10.24v-98.304h16.384l24.576 81.92 24.576-81.92h16.384v98.304h-12.288z m98.304 0v-57.344-24.576l-24.576 81.92h-12.288l-24.576-81.92v81.92h-10.24v-98.304h16.384l24.576 81.92 24.576-81.92h16.384v98.304h-10.24z m94.208 2.048H2560V757.76h61.44v12.288h-51.2v30.72h47.104v12.288h-47.104v32.768h51.2l2.048 10.24z m26.624 0h-12.288V757.76h38.912c14.336 0 28.672 6.144 28.672 26.624 0 14.336-6.144 20.48-12.288 22.528 4.096 2.048 10.24 4.096 10.24 18.432v18.432c0 6.144 0 8.192 4.096 10.24v2.048h-14.336c-2.048-6.144-2.048-20.48-2.048-24.576 0-8.192-2.048-18.432-14.336-18.432h-28.672l2.048 43.008m0-53.248h26.624c8.192 0 16.384-2.048 18.432-16.384 0-14.336-10.24-16.384-14.336-16.384h-28.672l-2.048 32.768z m133.12-14.336c-4.096-16.384-16.384-20.48-24.576-20.48-16.384 0-28.672 12.288-28.672 38.912 0 22.528 6.144 40.96 28.672 40.96 8.192 0 20.48-4.096 24.576-26.624h10.24c-4.096 36.864-30.72 38.912-36.864 38.912-18.432 0-38.912-14.336-38.912-51.2 0-30.72 14.336-51.2 40.96-51.2 22.528 0 32.768 16.384 34.816 32.768l-10.24-2.048z m38.912 67.584h-12.288V757.76h12.288v98.304z m32.768-28.672l-8.192 28.672h-12.288L2867.2 757.76h12.288l30.72 98.304h-12.288l-8.192-28.672h-34.816z m30.72-12.288l-12.288-43.008-14.336 43.008h26.624z m47.104 28.672h43.008v12.288h-55.296V757.76h12.288v86.016z m88.064-86.016h36.864c16.384 0 24.576 12.288 24.576 24.576 0 6.144-2.048 14.336-12.288 20.48 6.144 2.048 16.384 6.144 16.384 24.576 0 16.384-10.24 28.672-28.672 28.672h-36.864V757.76m10.24 43.008h20.48c10.24 0 18.432-4.096 18.432-16.384 0-8.192-4.096-14.336-18.432-14.336h-20.48v30.72m0 45.056h24.576c12.288 0 18.432-6.144 18.432-18.432 0-14.336-10.24-16.384-20.48-16.384H3031.04v34.816z m81.92-18.432l-8.192 28.672h-12.288l32.768-98.304h12.288l30.72 98.304h-12.288l-8.192-28.672H3112.96z m30.72-10.24l-12.288-43.008-14.336 43.008h26.624z m92.16-57.344h10.24v98.304h-12.288l-43.008-79.872v79.872h-10.24v-98.304h14.336l43.008 79.872-2.048-79.872z m40.96 96.256h-12.288V757.76h12.288v47.104l40.96-47.104h16.384l-34.816 38.912 36.864 57.344h-14.336l-30.72-49.152-14.336 14.336v36.864z m137.216 4.096c-32.768 0-40.96-30.72-40.96-51.2s10.24-51.2 40.96-51.2c32.768 0 40.96 30.72 40.96 51.2 2.048 20.48-8.192 51.2-40.96 51.2m0-92.16c-18.432 0-30.72 16.384-30.72 38.912 0 22.528 10.24 38.912 28.672 38.912 18.432 0 30.72-16.384 30.72-38.912 2.048-20.48-10.24-38.912-28.672-38.912m67.584 90.112h-12.288v-98.304h59.392v12.288H3481.6v30.72h40.96v12.288h-40.96v43.008z m153.6-67.584c-4.096-16.384-16.384-20.48-24.576-20.48-16.384 0-28.672 12.288-28.672 38.912 0 22.528 6.144 40.96 28.672 40.96 8.192 0 20.48-4.096 24.576-26.624h10.24c-4.096 36.864-30.72 38.912-36.864 38.912-18.432 0-38.912-14.336-38.912-51.2 0-30.72 14.336-51.2 38.912-51.2 22.528 0 32.768 16.384 34.816 32.768l-8.192-2.048z m81.92-30.72h12.288v98.304h-12.288v-45.056h-45.056v45.056h-12.288v-98.304h12.288v40.96h45.056v-40.96z m43.008 98.304h-12.288v-98.304h12.288v98.304z m75.776-96.256h10.24V860.16h-12.288l-43.008-79.872v77.824h-10.24v-98.304h14.336l43.008 79.872-2.048-77.824z m43.008 67.584l-8.192 28.672h-12.288l32.768-98.304h12.288l30.72 98.304h-12.288l-8.192-28.672h-34.816z m30.72-10.24l-12.288-43.008-14.336 43.008h26.624z" fill="#231815" /><path d="M321.536 309.248h215.04v63.488h-153.6v59.392h153.6v172.032h-153.6v73.728h153.6v55.296H321.536v-192.512h155.648v-53.248h-155.648v-178.176z m456.704 0H563.2v63.488H716.8v59.392h-153.6v172.032H716.8v73.728h-153.6v55.296H778.24v-192.512h-155.648v-53.248H778.24v-178.176z" fill="#BB1B21" /><path d="M153.6 509.952c0-219.136 178.176-397.312 397.312-397.312s397.312 178.176 397.312 397.312-178.176 397.312-397.312 397.312c-219.136-2.048-397.312-178.176-397.312-397.312m395.264 344.064c190.464 0 346.112-155.648 346.112-346.112C894.976 317.44 741.376 163.84 548.864 163.84 358.4 163.84 204.8 317.44 204.8 509.952c0 190.464 153.6 344.064 344.064 344.064" fill="#BB1B21" /><path d="M2316.288 245.76h126.976V190.464h-321.536V245.76h122.88v225.28H2109.44v51.2h346.112V471.04h-139.264V245.76zM1361.92 157.696h-59.392v71.68h-143.36v215.04H1208.32V430.08h92.16v129.024h59.392V430.08h88.064v14.336h55.296V227.328h-143.36c2.048 0 2.048-69.632 2.048-69.632z m-59.392 217.088h-90.112v-94.208h90.112v94.208z m147.456-2.048h-88.064v-94.208h88.064v94.208z m415.744-6.144h18.432v-40.96h-59.392v-36.864h67.584v-40.96h-182.272v43.008h69.632V327.68H1720.32v38.912h59.392v51.2h-71.68v40.96h184.32v-40.96h-16.384l20.48-24.576-30.72-26.624zM1822.72 417.792v-51.2h28.672l-18.432 22.528 28.672 26.624c2.048 2.048-38.912 2.048-38.912 2.048z" fill="#231815" /><path d="M1636.352 548.864h49.152v-10.24h229.376v12.288h53.248V178.176H1636.352v370.688z m49.152-327.68h231.424v264.192H1685.504V221.184z m1112.064-55.296h-61.44v36.864h-145.408v47.104h69.632l28.672 45.056h-79.872V552.96h51.2V337.92h57.344l-53.248 57.344 18.432 22.528 4.096-4.096v100.352h49.152v-8.192h61.44v10.24s12.288-6.144 34.816 0 24.576 24.576 22.528 43.008c36.864 2.048 69.632-6.144 67.584-43.008V294.912H2846.72l24.576-45.056h71.68V202.752h-145.408V165.888z m-2.048 305.152h-61.44v-40.96l61.44 2.048V471.04z m75.776-133.12v163.84h-34.816v-90.112l8.192 4.096 22.528-22.528-49.152-57.344 53.248 2.048z m-55.296 49.152h-96.256l26.624-24.576-16.384-24.576h79.872l-18.432 20.48 24.576 28.672z m-8.192-137.216l-18.432 45.056h-43.008l-26.624-45.056h88.064z m372.736 86.016h40.96v-45.056h-102.4c10.24-14.336 20.48-26.624 24.576-34.816h77.824v-43.008h-59.392c8.192-10.24 12.288-18.432 16.384-24.576-12.288-2.048-47.104-20.48-47.104-20.48-14.336 28.672-51.2 90.112-69.632 104.448 14.336 18.432 20.48 45.056 18.432 55.296 12.288-8.192 8.192-4.096 14.336-12.288 6.144-6.144 0 18.432 0 18.432h38.912v28.672h-51.2V409.6h51.2v90.112l-34.816 22.528 18.432 30.72 98.304-63.488-8.192-38.912-26.624 16.384v-59.392h43.008v-43.008h-43.008v-28.672z m206.848 108.544l49.152-40.96-30.72-30.72-38.912 34.816c-6.144-14.336-8.192-26.624-8.192-38.912h63.488V184.32h-174.08v323.584l-18.432 10.24 10.24 38.912s71.68-43.008 96.256-59.392c0 0-2.048-4.096-8.192-40.96 0 0-6.144 6.144-34.816 20.48V368.64h18.432c-2.048 55.296 53.248 153.6 98.304 182.272 0 0 14.336-14.336 36.864-45.056-18.432-8.192-40.96-32.768-59.392-61.44m-96.256-225.28h81.92v34.816h-81.92v-34.816z m0 71.68h81.92v34.816h-81.92v-34.816z m458.752-102.4h176.128v47.104h-176.128V188.416z m-20.48 112.64c6.144-6.144 10.24-12.288 12.288-14.336l-45.056-34.816s-51.2 71.68-114.688 118.784c8.192 24.576 16.384 40.96 16.384 53.248 4.096-4.096 16.384-14.336 30.72-26.624v161.792h49.152V348.16v2.048c14.336-14.336 28.672-26.624 40.96-40.96v40.96h104.448v133.12c0 16.384-2.048 20.48-20.48 20.48s-26.624-2.048-16.384 8.192 14.336 36.864 12.288 45.056c47.104 4.096 81.92-12.288 81.92-55.296v-151.552h57.344v-49.152h-208.896z m-26.624-92.16l-38.912-40.96-96.256 90.112c14.336 6.144 26.624 40.96 26.624 45.056 22.528-16.384 108.544-94.208 108.544-94.208" fill="#231815" /></svg>