<?xml version="1.0" encoding="UTF-8"?>
<svg width="22px" height="22px" viewBox="0 0 22 22" version="1.1" xmlns="http://www.w3.org/2000/svg" xmlns:xlink="http://www.w3.org/1999/xlink">
    <title>广发银行</title>
    <g id="页面-1" stroke="none" stroke-width="1" fill="none" fill-rule="evenodd">
        <g id="主页-有图标" transform="translate(-23.000000, -1347.000000)" fill-rule="nonzero">
            <g id="广发银行" transform="translate(23.000000, 1347.000000)">
                <rect id="矩形" fill="#000000" opacity="0" x="0" y="0" width="22" height="22"></rect>
                <path d="M10.6929167,9.20883333 C10.3051667,8.4975 9.98158335,7.72108333 9.65708333,7.00883333 C9.10708333,5.61733333 8.55708333,4.22675 8.10516667,2.80316667 C6.51933335,7.33241667 3.99575,11.5710833 0.922166674,15.1616667 C3.21933335,14.6116667 5.5165,14.2880833 7.78158333,14.1588333 C8.87022548,12.5812617 9.84321376,10.9269366 10.6929167,9.20883333" id="路径" fill="#BF0017"></path>
                <path d="M10.6929167,14.0616667 C9.75516667,14.0616667 8.78441667,14.0616667 7.84575,14.1258333 C6.58441667,16.03525 5.09575,17.8145 3.50991667,19.5616667 C5.87216667,19.0758333 8.23441667,18.9475 10.6929167,18.9475 C13.1523333,18.9475 15.57875,19.1739167 17.875,19.5616667 C16.2900833,17.8475 14.8023333,16.03525 13.5400833,14.1588333 C12.6023333,14.0616667 11.6315833,14.0616667 10.6929167,14.0616667" id="路径" fill="#730000"></path>
                <path d="M0.922166674,15.1616667 L3.44575,19.5295833 C5.03158333,17.8154167 6.51933333,16.0031667 7.78158333,14.12675 C5.48441665,14.3210833 3.18725,14.6125833 0.922166674,15.1625833" id="路径" fill="#E60020"></path>
                <path d="M7.78158333,14.1588333 C8.87293292,12.6061369 9.82565656,10.9604954 10.62875,9.24091667 C11.5023333,10.956 12.4400833,12.606 13.475,14.1588333 C12.53725,14.0946667 11.5665,14.0946667 10.62875,14.0946667 C9.67931968,14.0530733 8.72817584,14.0745092 7.78158333,14.1588333" id="路径" fill="#FFFFFF"></path>
                <path d="M13.2165,2.80316667 C12.7306667,4.22675 12.27875,5.61733335 11.6306667,7.04091667 C11.3248904,7.7920567 10.9794315,8.52642457 10.59575,9.24091667 C11.4693333,10.956 12.408,12.606 13.4429167,14.1588333 C15.8051667,14.3210833 18.1023333,14.6446667 20.3023333,15.1616667 C17.2558954,11.4743214 14.8596933,7.29507217 13.2165,2.80316667" id="路径" fill="#E60020"></path>
                <path d="M10.6929167,9.20883333 C11.0815833,8.4975 11.4051667,7.72108333 11.72875,7.00883333 C12.27875,5.58525 12.82875,4.19466665 13.3136667,2.77108333 L8.16933333,2.77108333 C8.65516665,4.19466665 9.108,5.58525 9.75516667,7.00883333 C9.98158335,7.72108333 10.3051667,8.52958333 10.6929167,9.20883333" id="路径" fill="#730000"></path>
                <path d="M17.875,19.5616667 L20.3985833,15.1946667 C18.1985833,14.6446667 15.9023333,14.3210833 13.5400833,14.1909167 C14.8665,16.03525 16.2900833,17.8145 17.8759167,19.5625833" id="路径" fill="#BF0017"></path>
            </g>
        </g>
    </g>
</svg>