<?xml version="1.0" encoding="UTF-8"?>
<svg width="26px" height="26px" viewBox="0 0 26 26" version="1.1" xmlns="http://www.w3.org/2000/svg" xmlns:xlink="http://www.w3.org/1999/xlink">
    <title>编组 2</title>
    <g id="页面-1" stroke="none" stroke-width="1" fill="none" fill-rule="evenodd">
        <g id="待办---已处理" transform="translate(-21.000000, -640.000000)">
            <g id="编组-2" transform="translate(21.000000, 640.000000)">
                <rect id="矩形" fill="#4574E0" opacity="0.121371315" x="0" y="0" width="26" height="26" rx="8"></rect>
                <g id="监督" transform="translate(6.000000, 6.000000)" fill-rule="nonzero">
                    <rect id="矩形" fill="#000000" opacity="0" x="0" y="0" width="14" height="14"></rect>
                    <path d="M3.5875,7 C3.7625,7.525 3.85,7.9625 3.85,7.9625 C4.55,9.1 5.425,8.925 5.425,9.5375 C5.425,9.8 5.25,10.0625 4.9875,10.15 L7,11.725 L9.0125,10.2375 C8.75,10.0625 8.575,9.8875 8.575,9.625 C8.575,8.925 9.45,9.1875 10.15,8.05 C10.15,8.05 10.325,7.7 10.4125,7.0875 C10.675,6.125 10.9375,4.375 10.85,3.5 L9.5375,3.5 C9.5375,3.2375 9.625,2.975 9.625,2.625 L10.5875,2.625 C10.325,1.4 9.7125,0.875 8.6625,0.6125 C8.225,0.2625 7.6125,0 7,0 C6.3875,0 5.775,0.2625 5.3375,0.6125 C4.2875,0.875 3.7625,1.4 3.4125,2.625 L4.375,2.625 C4.375,2.975 4.4625,3.2375 4.55,3.5 L3.15,3.5 C3.0625,4.375 3.325,6.125 3.5875,7 Z M9.8,7.4375 L9.5375,7.7 L9.1,8.225 C8.75,8.6625 8.4,8.925 7.875,9.0125 L7.525,9.1 C7.175,9.1875 6.7375,9.1875 6.3,9.1 L5.95,9.0125 C5.425,8.8375 4.9875,8.575 4.6375,8.05 L4.4625,7.7 L4.2,7.4375 L3.5875,7 L6.3,6.2125 C6.7375,6.125 7.175,6.0375 7.6125,6.2125 L10.4125,7 L9.8,7.4375 Z M5.25,2.625 C5.25,1.6625 6.0375,0.875 7,0.875 C7.9625,0.875 8.75,1.6625 8.75,2.625 C8.75,3.5875 7.9625,4.375 7,4.375 C6.0375,4.375 5.25,3.5875 5.25,2.625 Z M13.5625,12.425 C12.425,10.325 11.2875,10.675 10.15,10.5 L10.0625,10.5 L7,12.775 L3.9375,10.5 L3.85,10.5 C2.625,10.5875 1.575,10.325 0.4375,12.425 C0.2625,12.775 0.0875,13.3875 0,14 L14,14 C13.9125,13.3875 13.7375,12.775 13.5625,12.425 Z" id="形状" fill="#4574E0"></path>
                </g>
            </g>
        </g>
    </g>
</svg>