<?xml version="1.0" standalone="no"?><!DOCTYPE svg PUBLIC "-//W3C//DTD SVG 1.1//EN" "http://www.w3.org/Graphics/SVG/1.1/DTD/svg11.dtd"><svg t="1655189686824" class="icon" viewBox="0 0 1024 1024" version="1.1" xmlns="http://www.w3.org/2000/svg" p-id="989" xmlns:xlink="http://www.w3.org/1999/xlink" width="32" height="32"><defs><style type="text/css">@font-face { font-family: feedback-iconfont; src: url("//at.alicdn.com/t/font_1031158_u69w8yhxdu.woff2?t=1630033759944") format("woff2"), url("//at.alicdn.com/t/font_1031158_u69w8yhxdu.woff?t=1630033759944") format("woff"), url("//at.alicdn.com/t/font_1031158_u69w8yhxdu.ttf?t=1630033759944") format("truetype"); }
</style></defs><path d="M957.74 656.26c-20.6-74.35-76.81-131.67-146.9-155.86 17.24-18.36 28.21-43.22 28.21-70.76 0-56.88-46.13-103.01-103.01-103.01s-103.01 46.13-103.01 103.01c0 27.54 10.97 52.4 28.21 70.76-35.16 12.09-66.73 32.69-92.26 59.34-29.78-22.17-63.6-38.96-99.65-49.71 35.38-27.32 58.22-70.31 58.22-118.46 0-82.63-67.18-149.81-149.81-149.81s-149.81 67.18-149.81 149.81c0 48.15 22.84 91.14 58.22 118.46-104.11 30.9-188.76 113.98-218.99 222.59-6.72 23.96-1.79 49.27 13.21 69.2 15 19.71 37.84 31.13 62.48 31.13h469.81c24.63 0 47.47-11.42 62.48-31.13 14.55-19.48 19.7-43.89 13.66-67.4h209.82c19.26 0 37.17-8.73 48.82-24.19 11.64-15.46 15.45-35.16 10.3-53.97z m-221.7-284.85c32.02 0 58.22 26.2 58.22 58.22s-26.2 58.22-58.22 58.22-58.22-26.2-58.22-58.22 26.2-58.22 58.22-58.22z m-463.31 20.16c0-57.77 47.25-105.02 105.02-105.02s105.02 47.25 105.02 105.02c0 58-47.25 105.02-105.02 105.02s-105.02-47.02-105.02-105.02z m366.8 383.15c-6.49 8.51-16.35 13.44-26.87 13.44H142.85c-10.53 0-20.38-4.93-26.87-13.44-6.49-8.51-8.51-19.71-5.6-30.23 33.14-119.58 143.09-203.11 267.38-203.11 60.46 0 117.34 19.71 163.92 53.74a306.389 306.389 0 0 1 34.26 29.56c18.59 19.04 34.71 40.98 47.47 64.94 7.39 14.33 13.66 29.11 18.81 44.79 0.9 3.36 2.02 6.72 2.91 10.08 2.91 10.52 0.89 21.72-5.6 30.23z m272.08-91.59c-1.79 2.46-5.82 6.49-12.99 6.49H672.9c-16.79-38.29-40.53-72.33-69.64-100.55 34.04-35.16 81.73-56.43 132.79-56.43 82.86 0 156.3 55.76 178.47 135.48 1.57 5.38 0.45 10.75-2.91 15.01zM468.16 193.65c8.71 8.71 22.96 8.71 31.67 0 43.7-43.7 114.8-43.54 158.34 0l1.11 1.11c-12.98-3.8-26.76-5.86-40.69-5.86-12.35 0-22.49 9.82-22.64 22.33-0.16 12.19 9.82 22.48 22.17 22.48 29.13 0.32 56.53 11.56 77.43 32.14l0.16 0.16c1.27 1.27 2.53 2.22 4.12 3.17 0.95 0.63 2.22 1.27 3.32 1.74 1.11 0.48 2.22 0.63 3.48 0.95 0.95 0.32 2.06 0.48 3.32 0.48 1.43 0.16 2.69 0.16 3.96-0.16 0.63 0 1.27 0 1.74-0.16 1.58-0.32 2.85-0.63 4.12-1.27 1.43-0.47 2.69-1.11 3.96-2.06 1.11-0.79 2.38-1.74 3.48-2.85 1.27-1.27 2.38-2.69 3.17-4.12 0.79-1.11 1.27-2.22 1.74-3.33 0.32-0.95 0.79-2.06 0.95-3.17 0.32-1.27 0.63-2.53 0.63-3.8 0.16-1.43 0.16-2.69-0.16-3.96 0-0.63-0.16-1.11-0.16-1.74-5.7-31.99-20.74-60.96-43.54-83.76-61.12-61.12-160.56-61.12-221.68 0-8.71 8.72-8.71 22.97 0 31.68z" p-id="990" fill="#ffffff"></path></svg>