<?xml version="1.0" encoding="UTF-8"?>
<svg width="118px" height="104px" viewBox="0 0 118 104" version="1.1" xmlns="http://www.w3.org/2000/svg" xmlns:xlink="http://www.w3.org/1999/xlink">
    <title>小区管理</title>
    <g id="小区画像" stroke="none" stroke-width="1" fill="none" fill-rule="evenodd" opacity="0.332946051">
        <g transform="translate(-1792.000000, -445.000000)" fill="#FCEEEE" fill-rule="nonzero" id="小区信息">
            <g transform="translate(1434.000000, 353.000000)">
                <g id="小区管理" transform="translate(358.000000, 92.000000)">
                    <path d="M115.156627,91.7797165 L108.815904,91.7797165 L108.815904,25.2061069 C108.815904,23.6466739 107.536386,22.3707743 105.97253,22.3707743 L66.1510843,22.3707743 C64.5872289,22.3707743 63.3077108,23.6466739 63.3077108,25.2061069 L63.3077108,91.7938931 L54.2089157,91.7938931 L54.2089157,2.83533261 C54.2089157,1.27589967 52.9293976,0 51.3655422,0 L11.5583133,0 C9.99445783,0 8.71493976,1.27589967 8.71493976,2.83533261 L8.71493976,91.7938931 L2.84337349,91.7938931 C1.27951807,91.7938931 0,93.0697928 0,94.6292257 L0,101.164667 C0,102.7241 1.27951807,104 2.84337349,104 L115.156627,104 C116.720482,104 118,102.7241 118,101.164667 L118,94.6292257 C118,93.0556161 116.720482,91.7797165 115.156627,91.7797165 Z M72.6055422,38.8440567 C72.6055422,37.2846238 73.8850602,36.0087241 75.4489157,36.0087241 L96.8879518,36.0087241 C98.4518072,36.0087241 99.7313253,37.2846238 99.7313253,38.8440567 L99.7313253,42.2748092 C99.7313253,43.8342421 98.4518072,45.1101418 96.8879518,45.1101418 L75.4489157,45.1101418 C73.8850602,45.1101418 72.6055422,43.8342421 72.6055422,42.2748092 L72.6055422,38.8440567 Z M72.6055422,56.9618321 C72.6055422,55.4023991 73.8850602,54.1264995 75.4489157,54.1264995 L96.8879518,54.1264995 C98.4518072,54.1264995 99.7313253,55.4023991 99.7313253,56.9618321 L99.7313253,60.3925845 C99.7313253,61.9520174 98.4518072,63.2279171 96.8879518,63.2279171 L75.4489157,63.2279171 C73.8850602,63.2279171 72.6055422,61.9520174 72.6055422,60.3925845 L72.6055422,56.9618321 Z M17.9985542,16.1046892 C17.9985542,14.5452563 19.2780723,13.2693566 20.8419277,13.2693566 L42.2809639,13.2693566 C43.8448193,13.2693566 45.1243373,14.5452563 45.1243373,16.1046892 L45.1243373,19.5354417 C45.1243373,21.0948746 43.8448193,22.3707743 42.2809639,22.3707743 L20.8419277,22.3707743 C19.2780723,22.3707743 17.9985542,21.0948746 17.9985542,19.5354417 L17.9985542,16.1046892 Z M17.9985542,34.2224646 C17.9985542,32.6630316 19.2780723,31.387132 20.8419277,31.387132 L42.2809639,31.387132 C43.8448193,31.387132 45.1243373,32.6630316 45.1243373,34.2224646 L45.1243373,37.653217 C45.1243373,39.2126499 43.8448193,40.4885496 42.2809639,40.4885496 L20.8419277,40.4885496 C19.2780723,40.4885496 17.9985542,39.2126499 17.9985542,37.653217 L17.9985542,34.2224646 Z M17.9985542,52.4536532 C17.9985542,50.8942203 19.2780723,49.6183206 20.8419277,49.6183206 L42.2809639,49.6183206 C43.8448193,49.6183206 45.1243373,50.8942203 45.1243373,52.4536532 L45.1243373,55.8844057 C45.1243373,57.4438386 43.8448193,58.7197383 42.2809639,58.7197383 L20.8419277,58.7197383 C19.2780723,58.7197383 17.9985542,57.4438386 17.9985542,55.8844057 L17.9985542,52.4536532 L17.9985542,52.4536532 Z" id="形状"></path>
                </g>
            </g>
        </g>
    </g>
</svg>