<?xml version="1.0" encoding="UTF-8"?>
<svg width="104px" height="86px" viewBox="0 0 104 86" version="1.1" xmlns="http://www.w3.org/2000/svg" xmlns:xlink="http://www.w3.org/1999/xlink">
    <title>编组 4</title>
    <g id="小区画像" stroke="none" stroke-width="1" fill="none" fill-rule="evenodd">
        <g transform="translate(-1658.000000, -120.000000)" fill="#FEF6F2" id="编组-4">
            <g transform="translate(1658.050749, 120.470309)">
                <path d="M58.3542887,29.0724549 C62.1411657,32.804714 67.4931586,37.7334266 74.4102672,43.8585925 L74.4102672,78.7632201 C75.1440507,81.9423071 76.0384547,83.7967734 77.0934793,84.326619 C78.1485038,84.8564645 74.4040989,84.8564645 65.8602646,84.326619 C65.5777319,84.3718137 65.4364656,83.7788102 65.4364656,82.5476086 L65.4364656,67.6859902 L65.4364656,67.6859902 C65.6090822,66.1443263 64.5851006,65.3734944 62.364521,65.3734944 L41.4014583,65.3734944 L41.4014583,65.3734944 C39.8337424,65.4279933 39.0498844,66.1988252 39.0498844,67.6859902 L39.0498844,82.5476086 L39.0498844,82.5476086 C39.0522535,83.7336155 38.4553789,84.326619 37.2592605,84.326619 L15.9205174,84.326619 L15.9205174,84.326619 C14.3380735,83.9645868 13.5468516,83.0275314 13.5468516,81.5154529 L13.5468516,59.1427428 L13.5468516,59.1427428 L46.7307356,29.0724549 C50.6928941,25.3401958 54.5674118,25.3401958 58.3542887,29.0724549 Z M92.2328858,1.56214823 C100.862325,8.69940459 100.560172,16.936442 91.3264265,26.2732606 C91.2948895,37.1452631 91.2763787,46.4990422 91.270894,54.3345976 L91.2701362,55.5591738 C91.270028,55.761167 91.2699287,55.9621088 91.2698385,56.1619992 L91.2698385,61.8432914 C91.2699287,62.0221538 91.270028,62.1999648 91.2701362,62.3767244 L91.270894,63.4246651 C91.2763787,69.9817165 91.2948895,75.0205444 91.3264265,78.5411487 C86.4609083,86.4380369 81.7745722,86.4380369 77.2674182,78.5411487 L77.2674182,78.5411487 L77.2674182,26.2732606 C76.6176501,25.1073997 75.8347673,24.2831642 74.9187696,23.8005541 C67.0630206,16.0647923 67.5438121,8.65199036 76.3611441,1.56214823 L76.3611441,1.56214823 L76.3611441,12.5926686 L84.8925793,17.44636 L92.2328858,12.5926686 C91.8936849,6.42253307 91.8936849,2.74569295 92.2328858,1.56214823 Z M93.8465435,35.4041967 C99.8916896,41.2010374 103.018735,44.3772879 103.227679,44.9329481 C103.227679,45.3040392 103.247738,45.6904466 103.275603,46.0844115 L103.305615,46.4806082 L103.305615,46.4806082 L103.327168,46.7466869 C103.64015,50.568597 104.044111,54.6869802 93.8465435,52.3321194 C93.8242003,51.8130708 93.8112648,50.5122117 93.8077369,48.4295419 L93.8070509,47.8925867 C93.8069692,47.8003796 93.8069039,47.7068151 93.8068549,47.6118933 L93.8068549,46.72095 C93.8069039,46.6178844 93.8069692,46.5134615 93.8070509,46.4076812 L93.8077369,45.756712 C93.8112648,43.0876842 93.8242003,39.6368458 93.8465435,35.4041967 Z M59.8944836,2.99734974 C62.7724674,5.51686112 64.7221285,7.28253734 65.743467,8.2943784 L65.9415324,8.49296856 C66.403581,8.96255328 66.6172675,9.23045797 66.5825917,9.29668263 C65.6697839,15.7477287 67.9625627,21.3479158 73.4609282,26.0972437 C73.4193916,27.9589969 73.4193916,30.3008562 73.4609282,33.1228219 L56.4782012,17.5932835 C53.4296616,14.978909 50.310767,14.978909 47.1215174,17.5932835 C42.3376431,21.5148453 14.5099078,49.0511616 10.0741403,51.5880861 C5.63837286,54.1250107 -1.2014487,53.45833 0.181291439,44.4395539 C0.896676406,42.8924708 15.6563601,29.0784028 44.4603425,2.99734974 C50.1846921,-0.99911658 55.3294058,-0.99911658 59.8944836,2.99734974 Z" id="路径-15"></path>
                <path d="M83.9263858,72.5571851 C84.2038462,72.5571851 85.4540053,73.1621127 87.6768631,74.3719679 L87.6768631,78.4553713 L83.9263858,80.5571851 L80.5624021,78.4553713 L80.5624021,74.3719679 C82.5275975,73.1621127 83.6489254,72.5571851 83.9263858,72.5571851 Z" id="路径-14"></path>
            </g>
        </g>
    </g>
</svg>