<?xml version="1.0" encoding="UTF-8"?>
<svg width="22px" height="22px" viewBox="0 0 22 22" version="1.1" xmlns="http://www.w3.org/2000/svg" xmlns:xlink="http://www.w3.org/1999/xlink">
    <title>火</title>
    <g id="页面-1" stroke="none" stroke-width="1" fill="none" fill-rule="evenodd">
        <g id="聊城登录首页" transform="translate(-563, -641)" fill-rule="nonzero">
            <g id="火" transform="translate(563, 641)">
                <rect id="矩形" fill="#000000" opacity="0" x="0" y="0" width="22" height="22"></rect>
                <path d="M13.148457,20.9997687 C12.9724869,21.0054039 12.8089803,20.9076949 12.7281068,20.7485739 C12.6531909,20.5760158 12.7272164,20.374154 12.8949124,20.2937077 C14.4426893,19.3349586 15.3996618,17.6360602 15.4303586,15.7925692 C15.4437031,14.2989787 14.8365304,12.0382258 12.0075063,9.48554395 C12.0450157,11.5807969 11.5313106,13.6481547 10.5195997,15.4734839 C10.4100141,15.6359325 10.2156799,15.716096 10.0258549,15.6771554 C9.83862821,15.6586097 9.6875708,15.5132912 9.6588824,15.3241249 C9.54537028,14.4556583 9.16195833,13.6468627 8.5646372,13.0158487 C8.35465709,13.5909367 8.10723624,14.1511434 7.82402002,14.6927435 C7.30822261,15.5547228 7.02939867,16.5418311 7.01668057,17.5509325 C7.01668057,18.4946101 7.90408674,19.5944358 8.764804,20.1782939 C8.90233145,20.2375113 8.99348863,20.372666 8.99833194,20.5245353 C8.9731052,20.7553007 8.77204381,20.9237798 8.54462052,20.904722 L8.53127606,20.904722 C8.4816724,20.9046284 8.43230429,20.8977785 8.38448707,20.8843549 C4.91492911,19.8659977 3,17.7885492 3,15.0389849 C3,12.7035525 4.25437865,10.8229863 5.57547957,8.83379538 C7.02218972,6.87313489 8.10938313,4.66297764 8.78482068,2.30952063 C8.82749347,2.16526136 8.94150164,2.05441282 9.08507089,2.01759158 C9.23951788,1.9762141 9.40407839,2.00870279 9.53211009,2.1058492 C15.8173478,7.06185395 19,10.4224325 19,14.9982506 C19,18.0057987 16.5112594,20.5856368 13.2151793,20.9997687 L13.148457,20.9997687 Z" id="路径" fill="#DF3005"></path>
            </g>
        </g>
    </g>
</svg>