<?xml version="1.0" standalone="no"?><!DOCTYPE svg PUBLIC "-//W3C//DTD SVG 1.1//EN" "http://www.w3.org/Graphics/SVG/1.1/DTD/svg11.dtd"><svg t="1653706673776" class="icon" viewBox="0 0 1024 1024" version="1.1" xmlns="http://www.w3.org/2000/svg" p-id="4814" xmlns:xlink="http://www.w3.org/1999/xlink" width="200" height="200"><defs><style type="text/css">@font-face { font-family: feedback-iconfont; src: url("//at.alicdn.com/t/font_1031158_u69w8yhxdu.woff2?t=1630033759944") format("woff2"), url("//at.alicdn.com/t/font_1031158_u69w8yhxdu.woff?t=1630033759944") format("woff"), url("//at.alicdn.com/t/font_1031158_u69w8yhxdu.ttf?t=1630033759944") format("truetype"); }
</style></defs><path d="M841.142857 164.571429a128 128 0 0 1 128 128v438.857142a128 128 0 0 1-128 128H182.857143a128 128 0 0 1-128-128V292.571429a128 128 0 0 1 128-128h658.285714zM338.285714 347.428571c-47.762286 0-86.747429 36.736-88.813714 82.816l-0.091429 3.858286v35.108572c0 30.683429 16.365714 57.654857 41.033143 73.051428l3.419429 2.011429v2.925714l-97.773714 50.944c-21.485714 11.209143-33.810286 34.011429-31.122286 57.618286 2.413714 21.284571 20.169143 37.613714 41.801143 39.003428l2.980571 0.091429H466.834286c22.966857 0 42.24-16.822857 44.8-39.094857a57.618286 57.618286 0 0 0-27.977143-55.844572l-3.163429-1.773714-97.773714-50.944v-2.925714c25.417143-14.317714 42.88-40.576 44.342857-70.893715l0.109714-4.169142v-35.108572c0-47.872-39.808-86.674286-88.905142-86.674286z m385.828572 274.285715h-131.657143a7.314286 7.314286 0 0 0-7.168 5.851428L585.142857 629.028571v40.448a7.314286 7.314286 0 0 0 5.851429 7.149715l1.462857 0.164571h131.657143a7.314286 7.314286 0 0 0 7.168-5.851428l0.146285-1.462858V629.028571a7.314286 7.314286 0 0 0-5.851428-7.168L724.114286 621.714286z m128-128H592.457143a7.314286 7.314286 0 0 0-7.168 5.851428L585.142857 501.028571v40.228572a7.314286 7.314286 0 0 0 5.851429 7.168l1.462857 0.146286h259.657143a7.314286 7.314286 0 0 0 7.168-5.851429L859.428571 541.257143v-40.228572a7.314286 7.314286 0 0 0-5.851428-7.168L852.114286 493.714286z m0-128H592.457143a7.314286 7.314286 0 0 0-7.168 5.851428L585.142857 373.028571v40.173715a7.314286 7.314286 0 0 0 5.851429 7.149714l1.462857 0.164571h259.657143a7.314286 7.314286 0 0 0 7.168-5.851428l0.146285-1.462857V373.028571a7.314286 7.314286 0 0 0-5.851428-7.168L852.114286 365.714286z" fill="#1890ff" p-id="4815"></path></svg>