<?xml version="1.0" encoding="UTF-8"?>
<svg width="20px" height="20px" viewBox="0 0 20 20" version="1.1" xmlns="http://www.w3.org/2000/svg" xmlns:xlink="http://www.w3.org/1999/xlink">
    <title>建设银行</title>
    <g id="页面-1" stroke="none" stroke-width="1" fill="none" fill-rule="evenodd">
        <g id="主页-有图标" transform="translate(-23.000000, -1215.000000)" fill-rule="nonzero">
            <g id="建设银行" transform="translate(23.000000, 1215.000000)">
                <rect id="矩形" fill="#000000" opacity="0" x="0" y="0" width="20" height="20"></rect>
                <path d="M9.3076923,1.0623077 C9.3076923,1.0623077 10.9523077,-0.197692305 13.7792308,0.718461543 C13.7792308,0.718461543 14.7307692,1.0623077 15.8269231,2.03615385 L19.2307692,5.58846154 L17.4138462,7.39384615 L12.2215385,2.15076924 C12.2215385,2.15076924 11.3561538,1.09076924 9.3076923,1.0623077 Z M16.8076923,8.02384615 L14.6730769,10.0861538 C14.6730769,10.0861538 14.3269231,10.5738462 14.0384615,10.1153846 L10.1153846,6.30538461 C10.1153846,6.30538461 9.76923076,5.84692307 9.51,6.2476923 L5.5576923,10.2584615 C5.5576923,10.2584615 5.29846154,10.6592308 5.61538461,10.8315385 L9.48076924,14.67 C9.48076924,14.67 9.79846154,15.1853846 10.0869231,14.7846154 L14.0961538,10.7738462 C14.0961538,10.7738462 14.2115385,10.43 14.8461538,10.5161538 L18.9423077,10.5161538 C18.9423077,10.5161538 19.1153846,14.6415385 15.9423077,17.22 C15.9423077,17.22 11.8176923,21.3161538 6.16384615,18.7953846 C6.16384615,18.7953846 0.712307695,16.9046154 0.77,9.88615385 C0.77,9.88615385 0.913846152,5.1876923 5.21153846,2.69538461 C5.21153846,2.69538461 8.35615385,0.374615371 10.8653846,2.09384615 L16.8076923,8.02384615 L16.8076923,8.02384615 Z" id="形状" fill="#003A90"></path>
            </g>
        </g>
    </g>
</svg>