<?xml version="1.0" standalone="no"?><!DOCTYPE svg PUBLIC "-//W3C//DTD SVG 1.1//EN" "http://www.w3.org/Graphics/SVG/1.1/DTD/svg11.dtd"><svg t="1655189620631" class="icon" viewBox="0 0 1024 1024" version="1.1" xmlns="http://www.w3.org/2000/svg" p-id="649" xmlns:xlink="http://www.w3.org/1999/xlink" width="32" height="32"><defs><style type="text/css">@font-face { font-family: feedback-iconfont; src: url("//at.alicdn.com/t/font_1031158_u69w8yhxdu.woff2?t=1630033759944") format("woff2"), url("//at.alicdn.com/t/font_1031158_u69w8yhxdu.woff?t=1630033759944") format("woff"), url("//at.alicdn.com/t/font_1031158_u69w8yhxdu.ttf?t=1630033759944") format("truetype"); }
</style></defs><path d="M592.780612 421.638812h-156.560631a32.714162 32.714162 0 0 1 0-65.428324h156.560631a32.714162 32.714162 0 0 1 0 65.428324zM573.853133 511.088677h-118.705673a32.714162 32.714162 0 0 1 0-65.428324h118.705673a32.714162 32.714162 0 0 1 0 65.428324z" p-id="650" fill="#ffffff"></path><path d="M514.500297 593.855506a32.714162 32.714162 0 0 1-32.714162-32.714161V388.92465a32.714162 32.714162 0 0 1 65.428323 0v172.216695a32.714162 32.714162 0 0 1-32.714161 32.714161z" p-id="651" fill="#ffffff"></path><path d="M514.500297 424.069006a32.714162 32.714162 0 0 1-25.610516-12.384647L397.897677 297.324997a32.714162 32.714162 0 0 1 51.407969-40.705765l90.945369 114.359363a32.714162 32.714162 0 0 1-25.56378 53.090411z" p-id="652" fill="#ffffff"></path><path d="M514.453562 424.069006a32.714162 32.714162 0 0 1-25.563781-53.090411l90.94537-114.359363a32.714162 32.714162 0 0 1 51.407969 40.705765l-91.179043 114.359362a32.714162 32.714162 0 0 1-25.610515 12.384647z" p-id="653" fill="#ffffff"></path><path d="M777.802565 641.524714a37.387614 37.387614 0 0 1-31.218657-57.904067 255.263931 255.263931 0 0 0 42.061065-140.577427c0-145.437817-123.051983-263.722879-274.28488-263.722879S240.168682 297.605404 240.168682 443.04322a255.544338 255.544338 0 0 0 37.387614 132.819497 37.387614 37.387614 0 1 1-63.886085 38.883118A330.693442 330.693442 0 0 1 165.393455 443.04322c0-186.657661 156.607366-338.498106 349.106842-338.498106s349.060107 151.840445 349.060106 338.498106a329.992424 329.992424 0 0 1-54.445712 181.610333 37.387614 37.387614 0 0 1-31.312126 16.871161z" p-id="654" fill="#ffffff"></path><path d="M788.551504 944.457852a32.433755 32.433755 0 0 1-14.674638-3.505089c-26.919082-13.506275-58.137739-25.937657-66.783625-26.59194a449.586053 449.586053 0 0 0-52.810004 8.131806c-72.859112 13.599744-182.918899 34.116197-251.011091-4.673451a1111.346812 1111.346812 0 0 1-168.851809-116.836293c-71.503811-60.754872-79.448679-85.898042-69.260554-108.611017 7.711195-17.058099 27.199489-38.649445 107.162247-29.115604 14.020355 1.682443 28.04071 9.954452 61.596093 30.143763A962.030031 962.030031 0 0 0 439.304459 750.649811c22.292365 10.001187 52.155721 13.412806 79.448679 13.412806h0.607548a172.029757 172.029757 0 0 1-43.650038-64.587102c-9.814249-28.55479-2.476929-46.734517 5.374469-57.156315 24.395418-31.872941 76.691342-25.844188 233.298708 26.919082 51.828579 17.478709 77.579298 42.061065 100.339008 63.979554a272.181826 272.181826 0 0 0 32.994569 28.367852 32.714162 32.714162 0 0 1-37.387613 53.697959 325.365707 325.365707 0 0 1-40.939437-34.817215c-20.376249-19.535028-37.948428-36.406189-75.94359-49.211446-85.944777-28.9754-129.174205-39.256994-150.905755-42.061065 10.889142 18.693807 34.957419 44.537995 59.91365 51.034092 20.189311 5.234266 32.106613 15.796267 35.471499 31.312127a36.406189 36.406189 0 0 1-13.506276 36.406188c-28.367852 22.993382-143.661905 32.714162-211.660627 2.523664a1019.606955 1019.606955 0 0 1-112.16284-61.035279c-14.020355-8.412213-31.031719-18.693807-37.387614-21.357674-4.673452-0.467345-8.832824-0.841221-12.898726-1.074894 33.882525 32.714162 100.292273 85.757839 185.72297 134.174798 47.295331 26.825613 147.120259 8.225275 206.753503-2.89754 28.741728-5.374469 49.632057-9.346903 64.820775-9.346903h0.701017c26.171329 0 75.336041 23.367258 95.29168 33.602117a32.714162 32.714162 0 0 1-14.721373 61.923235z" p-id="655" fill="#ffffff"></path></svg>