<?xml version="1.0" encoding="UTF-8"?>
<svg width="41px" height="41px" viewBox="0 0 41 41" version="1.1" xmlns="http://www.w3.org/2000/svg" xmlns:xlink="http://www.w3.org/1999/xlink">
    <title>咖啡</title>
    <defs>
        <filter x="-21.2%" y="-15.2%" width="142.4%" height="142.4%" filterUnits="objectBoundingBox" id="filter-1">
            <feOffset dx="0" dy="2" in="SourceAlpha" result="shadowOffsetOuter1"></feOffset>
            <feGaussianBlur stdDeviation="2" in="shadowOffsetOuter1" result="shadowBlurOuter1"></feGaussianBlur>
            <feColorMatrix values="0 0 0 0 0   0 0 0 0 0   0 0 0 0 0  0 0 0 0.675289554 0" type="matrix" in="shadowBlurOuter1" result="shadowMatrixOuter1"></feColorMatrix>
            <feMerge>
                <feMergeNode in="shadowMatrixOuter1"></feMergeNode>
                <feMergeNode in="SourceGraphic"></feMergeNode>
            </feMerge>
        </filter>
    </defs>
    <g id="页面-1" stroke="none" stroke-width="1" fill="none" fill-rule="evenodd">
        <g id="聊城登录首页" transform="translate(-390, -177)" fill-rule="nonzero">
            <g id="咖啡" filter="url(#filter-1)" transform="translate(394, 179)">
                <rect id="矩形" fill="#000000" opacity="0" x="0" y="0" width="33" height="33"></rect>
                <path d="M25.2857327,15.1030342 L24.3572143,15.1030342 L24.3572143,13.2419452 L3,13.2419452 L3,16.5004532 C3,22.4038062 7.79064096,27.2060684 13.6784135,27.2060684 C17.32776,27.2060684 20.5522969,25.3594802 22.4783221,22.5510801 L25.2857005,22.5510801 C27.3333027,22.5510801 29,20.880897 29,18.8270248 C29,16.7731526 27.3333673,15.1030342 25.2857327,15.1030342 L25.2857327,15.1030342 Z M13.6784458,25.3449794 C8.81436138,25.3449794 4.85716592,21.376417 4.85716592,16.5004532 L4.85716592,15.1030018 L22.5000807,15.1030018 L22.5000807,16.5003884 C22.5000807,21.3763846 18.5429175,25.3449794 13.6784135,25.3449794 L13.6784458,25.3449794 Z M25.2857327,20.689894 L23.503011,20.689894 C23.9945492,19.5380826 24.2756679,18.2806548 24.3336479,16.9659034 L25.2857327,16.9659034 C26.3086784,16.9659034 27.1428986,17.8005419 27.1428986,18.8269924 C27.1428986,19.853443 26.3087106,20.689894 25.2857327,20.689894 Z M6.71429955,28.1370984 L20.6429471,28.1370984 L20.6429471,30 L6.71429955,30 L6.71429955,28.1370984 Z M12.2855713,8.19595281 C12.2855713,7.71684329 12.5902243,7.29408627 13.0436042,7.14130982 C14.2560176,6.73586962 15.0711911,5.60208713 15.0711911,4.32103074 L15.0711911,3 L13.2141866,3 L13.2141866,4.32103074 C13.2141866,4.80017263 12.9094368,5.22477462 12.4560246,5.37567373 C11.2437402,5.78211734 10.42847,6.91586746 10.42847,8.19595281 L10.42847,9.51795459 L12.2856036,9.51795459 L12.2856036,8.19595281 L12.2855713,8.19595281 Z M14.1426717,10.0580129 L14.1426717,11.379076 L16.0002583,11.379076 L16.0002583,10.0580129 C16.0002224,9.57954086 16.3055496,9.15472438 16.7582588,9.00336986 C17.9697684,8.59877122 18.785878,7.4641148 18.785878,6.18305841 L18.785878,4.86293397 L16.9288089,4.86293397 L16.9288089,6.18305841 C16.9288089,6.6622003 16.6240591,7.08586362 16.1706793,7.23867244 C14.9590729,7.6416998 14.1416353,8.77810377 14.1426717,10.0580129 L14.1426717,10.0580129 Z" id="形状" stroke="#FFFFFF" stroke-width="0.5" fill="#FFFFFF"></path>
            </g>
        </g>
    </g>
</svg>