<?xml version="1.0" encoding="UTF-8"?>
<svg width="48px" height="43px" viewBox="0 0 48 43" version="1.1" xmlns="http://www.w3.org/2000/svg" xmlns:xlink="http://www.w3.org/1999/xlink">
    <title>形状结合</title>
    <defs>
        <linearGradient x1="27.2949974%" y1="16.5636596%" x2="71.6580909%" y2="76.0263472%" id="linearGradient-1">
            <stop stop-color="#658DD0" offset="0%"></stop>
            <stop stop-color="#3579E9" offset="100%"></stop>
        </linearGradient>
        <path d="M787.313416,289 C787.828197,289.165524 787.912152,289.548967 787.565281,290.150327 C787.21841,290.751687 782.718468,298.527948 774.065453,313.47911 C773.746078,314.28253 773.941441,314.68424 774.651542,314.68424 C775.361643,314.68424 776.409671,314.652788 777.795626,314.589885 C778.544717,314.683514 779.230568,315.284984 779.85318,316.394294 C780.475792,317.503604 782.102079,320.346577 784.73204,324.923214 C785.130327,325.720374 785.777208,326.118954 786.672685,326.118954 L792.617544,326.118954 L792.617544,326.118954 C793.284875,325.874423 793.77078,325.535096 794.075259,325.100974 C794.215787,324.900609 794.471418,324.469128 794.842151,323.80653 L795.037109,323.455972 C795.446209,322.716335 795.970412,321.745581 796.609716,320.54371 C796.805077,319.493164 796.745096,318.625191 796.429773,317.939792 C796.114451,317.254393 793.957166,313.464857 789.957918,306.571186 C789.647894,305.93167 789.245322,305.974987 788.750204,306.701138 C788.255085,307.427288 787.744981,308.246453 787.21989,309.158633 C786.994924,309.90587 787.162462,310.74954 787.722504,311.689642 C788.282546,312.629744 789.550385,314.770324 791.52602,318.111381 C791.95544,319.071204 791.991962,319.769958 791.635587,320.207644 C791.279212,320.64533 790.551844,321.813576 789.453484,323.712382 L781.939313,311.03443 C781.503741,310.427872 781.503741,309.802606 781.939313,309.158633 C782.374884,308.51466 784.250207,305.207147 787.565281,299.236095 C789.106924,297.674204 790.427171,297.768593 791.52602,299.519261 C792.62487,301.269929 796.050685,307.288027 801.803465,317.573553 C802.520307,318.770748 802.467788,320.093186 801.645907,321.540864 C800.824026,322.988543 799.085315,325.90767 796.429773,330.298246 C795.993423,330.720528 795.683076,330.931669 795.498733,330.931669 L783.267842,330.931669 L783.267842,330.931669 C782.68545,330.809414 782.242606,330.468993 781.939313,329.910406 C781.636019,329.351818 778.951601,324.613333 773.88606,315.69495 C773.150274,315.140163 772.594718,314.862769 772.219393,314.862769 L769.167863,314.862769 L769.167863,314.862769 C768.528867,314.848096 768.422772,315.231315 768.849577,316.012428 C769.276382,316.793541 771.888255,321.311078 776.685195,329.565041 C777.490843,330.476126 777.490843,330.931669 776.685195,330.931669 L771.918441,330.931669 L771.918441,330.931669 L771.918441,330.729495 L760.198305,310.696307 C760.06759,310.186051 760.165753,309.673493 760.492795,309.158633 C760.819837,308.643773 764.460247,302.263284 771.414025,290.017166 C771.874393,289.339055 772.406069,289 773.009052,289 L787.313416,289 L787.313416,289 Z M795.943535,289.209105 C795.988542,289.269198 796.043481,289.346985 796.108355,289.442465 L796.213115,289.598955 C797.410028,291.409734 801.149944,297.750086 807.432863,308.62001 C808.058285,309.606004 808.102589,310.515344 807.565775,311.34803 C807.028961,312.180715 806.487621,312.989231 805.941756,313.773577 C805.608604,314.521612 805.169201,314.42296 804.623548,313.477622 C804.239111,312.811588 802.043627,308.909873 799.733924,304.825676 L798.837786,303.242141 C796.526859,299.161685 794.320658,295.292709 793.91601,294.688412 C793.054502,293.401846 792.49706,293.75356 791.494657,293.871073 C790.826388,293.949415 790.642222,293.757886 790.94216,293.296487 L793.588693,289.209105 C794.370979,288.157482 795.155927,288.157482 795.943535,289.209105 Z M778.903588,294.051481 L775.22517,294.051481 C774.807594,294.051481 774.453534,294.335683 774.16299,294.904087 L774.16299,294.904087 L765.943297,309.116026 C765.643746,309.610412 765.643746,310.2345 765.943297,310.98829 C766.646692,312.278953 767.156978,313.12283 767.474155,313.519921 C767.791332,313.917013 768.234112,313.852934 768.802493,313.327684 C771.232616,309.085467 773.234732,305.585757 774.808841,302.828555 L775.164499,302.205458 C777.600921,297.936045 778.920472,295.604182 779.123152,295.209868 C779.460952,294.552679 779.387764,294.166549 778.903588,294.051481 L778.903588,294.051481 Z" id="path-2"></path>
    </defs>
    <g id="登陆页" stroke="none" stroke-width="1" fill="none" fill-rule="evenodd">
        <g id="形状结合" transform="translate(-760.000000, -288.000000)">
            <use fill="url(#linearGradient-1)" xlink:href="#path-2"></use>
            <use fill="red" xlink:href="#path-2"></use>
        </g>
    </g>
</svg>