<?xml version="1.0" encoding="UTF-8"?>
<svg width="16px" height="16px" viewBox="0 0 16 16" version="1.1" xmlns="http://www.w3.org/2000/svg" xmlns:xlink="http://www.w3.org/1999/xlink">
    <title>签字意见</title>
    <g id="小区画像" stroke="none" stroke-width="1" fill="none" fill-rule="evenodd">
        <g id="项目画像" transform="translate(-1766.000000, -610.000000)" fill-rule="nonzero">
            <g id="签字意见" transform="translate(1766.000000, 610.000000)">
                <rect id="矩形" fill="#000000" opacity="0" x="0" y="0" width="15.9999397" height="15.9999397"></rect>
                <path d="M1.65634988,1.00016311 L9.09368992,1.00016311 C9.53118051,1.00016311 9.7499258,1.21890841 9.7499258,1.656399 L9.7499258,1.656399 C9.7499258,2.09388959 9.53118051,2.31263488 9.09368992,2.31263488 L1.65634988,2.31263488 C1.21885929,2.31263488 1.00011399,2.09388959 1.00011399,1.656399 L1.00011399,1.656399 C1.00011399,1.21890841 1.21885929,1.00016311 1.65634988,1.00016311 Z M1.65634988,4.42133953 L6.46874637,4.42133953 C6.90623697,4.42133953 7.12498226,4.64008483 7.12498226,5.07757542 L7.12498226,5.07757542 C7.12498226,5.51506601 6.90623697,5.7338113 6.46874637,5.7338113 L1.65634988,5.7338113 C1.21885929,5.7338113 1.00011399,5.51506601 1.00011399,5.07757542 L1.00011399,5.07757542 C1.00011399,4.64008483 1.21885929,4.42133953 1.65634988,4.42133953 L1.65634988,4.42133953 Z M14.9385642,2.09388959 L11.6573848,7.78126726 L9.98617073,9.26873527 C9.92990069,9.31982757 9.84708469,9.32875659 9.78121716,9.29083286 C9.71534963,9.25290913 9.68149234,9.17680459 9.69742693,9.10248885 L10.1436673,6.90628608 L13.4248468,1.21890841 C13.4816045,1.11777712 13.5769096,1.04395195 13.6890181,1.01427616 C13.8011267,0.984600366 13.9204751,1.00160549 14.019834,1.06141178 L14.7810676,1.49890238 C14.8821989,1.55566011 14.9560241,1.65096522 14.9856998,1.76307376 C15.0153756,1.8751823 14.9983705,1.99453072 14.9385642,2.09388959 L14.9385642,2.09388959 Z M1.65634988,14.999862 C1.48077864,14.9999428 1.31252265,14.9295389 1.1891999,14.8045718 C1.06587716,14.6796048 0.997773042,14.5104319 1.00005558,14.3348763 C1.00005558,14.0548823 1.0788623,11.5961852 2.08509066,10.3537119 L2.33008539,10.0474685 C3.26631525,8.87499374 4.43004023,7.41377516 5.73376219,8.00001256 C7.03748414,8.58624996 6.32874938,10.0037195 5.90000861,11.0974459 C5.81251049,11.324941 5.69001313,11.6311845 5.62001464,11.8499298 C6.02250598,11.8499298 6.81873886,11.6836833 8.39370497,10.861201 C8.61688309,10.7210287 8.86256056,10.6203898 9.11993936,10.5637074 C9.4792063,10.5129482 9.8415904,10.6326644 10.0999183,10.8874505 C10.3179965,11.1226366 10.4120799,11.4470618 10.3536628,11.7624316 C10.3536628,11.8674294 10.2749145,12.1036743 10.1874164,12.4011679 C10.0999183,12.6986615 10.0124202,13.0049049 9.92492204,13.3548974 L10.3274134,13.092403 C10.7360902,12.7388571 11.226159,12.4923194 11.7536327,12.3749185 C12.2919846,12.3605388 12.828506,12.4435366 13.3373486,12.6199132 C13.5030008,12.6720084 13.6407849,12.7884595 13.7197572,12.9431136 C13.7987296,13.0977678 13.8122707,13.277662 13.7573396,13.4423955 C13.7033303,13.6086878 13.5851933,13.7465516 13.4291388,13.8254003 C13.2730842,13.9042489 13.0920164,13.9175622 12.9261075,13.8623865 C12.579552,13.7437733 12.2161596,13.6817307 11.8498806,13.6786404 C11.5759958,13.8229097 11.3128246,13.9866606 11.0623976,14.1686299 C10.2661647,14.7023684 9.51368088,15.2098575 8.90119407,14.7811167 C8.28870725,14.3523759 8.49870272,13.4861446 8.90119407,12.0774249 C7.77246835,12.6549124 5.77751124,13.652391 4.62253608,12.8649079 C3.97505001,12.3749185 4.29879304,11.5524362 4.67503495,10.6249561 C4.87738323,10.164978 5.02708063,9.68359816 5.12127536,9.18998697 C4.68378477,9.24248584 3.80005377,10.3449621 3.371313,10.8962003 L3.11756846,11.2111935 C2.59260728,12.187407 2.3189658,13.2789658 2.32133558,14.3873752 C2.29808345,14.7360164 2.00572333,15.0052954 1.65634988,14.999862 L1.65634988,14.999862 Z" id="形状" fill="#2595FF"></path>
            </g>
        </g>
    </g>
</svg>