<?xml version="1.0" encoding="utf-8"?>
<!-- Generator: Adobe Illustrator 25.0.0, SVG Export Plug-In . SVG Version: 6.00 Build 0)  -->
<svg version="1.1" id="图层_1" xmlns="http://www.w3.org/2000/svg" xmlns:xlink="http://www.w3.org/1999/xlink" x="0px" y="0px"
	 viewBox="0 0 52 45" style="enable-background:new 0 0 52 45;" xml:space="preserve">
<style type="text/css">
	.st0{opacity:0.21;}
	.st1{fill-rule:evenodd;clip-rule:evenodd;fill:#FFFFFF;}
	.st2{opacity:0.44;fill-rule:evenodd;clip-rule:evenodd;fill:#FFFFFF;enable-background:new    ;}
	.st3{fill-rule:evenodd;clip-rule:evenodd;fill:url(#SVGID_1_);}
	.st4{opacity:0.65;fill-rule:evenodd;clip-rule:evenodd;fill:#FFFFFF;}
</style>
<desc>Created with Sketch.</desc>
<desc>Created with Sketch.</desc>
<desc>Created with Sketch.</desc>
<g class="st0">
	<image style="overflow:visible;" width="121" height="76" xlink:href="6E674AB9.png"  transform="matrix(1 0 0 1 -34 -33)">
	</image>
</g>
<path class="st1" d="M50.1,6.3h-48l0,0c0-2,1.6-3.5,3.5-3.5h40.9C48.5,2.7,50.1,4.3,50.1,6.3L50.1,6.3z"/>
<g>
	<path class="st2" d="M48.7,39.1H9.4c-0.7,0-1.3-0.5-1.3-1V10.8c0-0.6,0.6-1,1.3-1h39.3c0.7,0,1.3,0.5,1.3,1V38
		C50,38.6,49.5,39.1,48.7,39.1z"/>
	<linearGradient id="SVGID_1_" gradientUnits="userSpaceOnUse" x1="4.7841" y1="11.8751" x2="46.7535" y2="36.1061">
		<stop  offset="0" style="stop-color:#DEF3F9"/>
		<stop  offset="0.1195" style="stop-color:#E2EFF3"/>
		<stop  offset="0.2826" style="stop-color:#EDE4E1"/>
		<stop  offset="0.4701" style="stop-color:#FFD2C5"/>
		<stop  offset="0.4745" style="stop-color:#FFD2C4"/>
		<stop  offset="0.9875" style="stop-color:#D6E0D8"/>
	</linearGradient>
	<path class="st3" d="M46.5,43.6H5.7c-2,0-3.6-1.6-3.6-3.6V6.3h48V40C50.1,42,48.5,43.6,46.5,43.6z"/>
</g>
<path class="st4" d="M46.9,42.1H12c-0.9,0-1.6-0.7-1.6-1.6v-31c0-0.9,0.7-1.6,1.6-1.6h34.9c0.9,0,1.6,0.7,1.6,1.6v31
	C48.5,41.3,47.8,42.1,46.9,42.1z"/>
</svg>
