<?xml version="1.0" encoding="UTF-8"?>
<svg width="17px" height="16px" viewBox="0 0 17 16" version="1.1" xmlns="http://www.w3.org/2000/svg" xmlns:xlink="http://www.w3.org/1999/xlink">
    <title>电话</title>
    <g id="页面-1" stroke="none" stroke-width="1" fill="none" fill-rule="evenodd">
        <g id="聊城登录首页" transform="translate(-608, -2824)" fill="#1172E0" fill-rule="nonzero">
            <g id="服务网点" transform="translate(-1, 2561)">
                <g id="编组" transform="translate(385, 128)">
                    <g id="电话" transform="translate(224.4186, 135)">
                        <rect id="矩形" opacity="0" x="0" y="0" width="15.9586563" height="16"></rect>
                        <path d="M13.5846971,12.0439531 C13.9087316,12.3695942 13.9087316,12.8967495 13.5846971,13.2223906 L12.9969541,13.8116719 C12.5626574,14.2470781 11.9914341,14.5122969 11.299056,14.6001094 C11.1273575,14.6216227 10.9544777,14.6322688 10.7814438,14.6319899 C10.2775461,14.6319899 9.73384528,14.5466719 9.15835182,14.3769844 C7.59625807,13.9166719 5.95332687,12.8785469 4.53356751,11.4546875 C3.11380814,10.0308281 2.07794485,8.38417188 1.61882179,6.81792188 C1.39025767,6.03760938 1.31503068,5.31551563 1.39627334,4.67207813 C1.48385893,3.97792188 1.74839236,3.40520313 2.18267353,2.96979688 L2.77043209,2.38051563 C3.09523174,2.05564171 3.62102488,2.05564171 3.94582453,2.38051563 L6.53193726,4.97323438 C6.85597389,5.29891116 6.85597389,5.82608884 6.53193726,6.15176563 L5.9441787,6.740625 C5.61171189,7.07395313 5.94262024,8.15332813 6.88455499,9.09760938 C7.82648974,10.0418906 8.90256137,10.3741719 9.23544897,10.0404219 L9.82319194,9.45114063 C10.148029,9.12625413 10.6738564,9.12625413 10.9986935,9.45114063 L13.5846971,12.0439531 Z M9.309211,6 C9.67628852,6.00039614 9.97376509,6.29864338 9.97416021,6.66667188 C9.97416021,6.85076823 10.1230142,7.00000781 10.3066348,7.00000781 C10.4902555,7.00000781 10.6391094,6.85076823 10.6391094,6.66667188 C10.6383106,5.93061844 10.0433625,5.33412899 9.309211,5.33332813 C9.12559034,5.33332813 8.97673639,5.48256771 8.97673639,5.66666406 C8.97673639,5.85076042 9.12559034,6 9.309211,6 L9.309211,6 Z M14.2105757,4.590625 C13.3791115,2.61517919 11.4478028,1.33169054 9.309211,1.33332656 C9.12559034,1.33332656 8.97673639,1.48256771 8.97673639,1.66666406 C8.97673639,1.85076042 9.12559034,2 9.309211,2 C11.8754845,2 13.9638243,4.09375 13.9638243,6.66667188 C13.9638243,6.85076823 14.1126782,7.00000781 14.2962989,7.00000781 C14.4799195,7.00000781 14.6287831,6.85076823 14.6287831,6.66667188 C14.6301316,5.95349288 14.487892,5.24737672 14.2105757,4.590625 L14.2105757,4.590625 Z M9.309211,4 C10.7758333,4 11.9689922,5.19625 11.9689922,6.66667188 C11.9689922,6.85076823 12.1178462,7.00000781 12.3014669,7.00000781 C12.4850875,7.00000781 12.6339415,6.85076823 12.6339415,6.66667188 C12.6339415,5.78261288 12.2836638,4.93476144 11.660155,4.30963733 C11.0366462,3.68451322 10.1909856,3.33332813 9.309211,3.33332813 C9.12559034,3.33332813 8.97673639,3.48256771 8.97673639,3.66666406 C8.97673639,3.85076042 9.12559034,4 9.309211,4 L9.309211,4 Z" id="形状"></path>
                    </g>
                </g>
            </g>
        </g>
    </g>
</svg>