<?xml version="1.0" standalone="no"?><!DOCTYPE svg PUBLIC "-//W3C//DTD SVG 1.1//EN" "http://www.w3.org/Graphics/SVG/1.1/DTD/svg11.dtd"><svg class="icon" width="200px" height="66.67px" viewBox="0 0 3072 1024" version="1.1" xmlns="http://www.w3.org/2000/svg"><path d="M819.2 380.586667c22.186667-3.413333 46.08-3.413333 68.266667-5.12v-3.413334c-1.706667-5.12-3.413333-8.533333-5.12-13.653333-30.72-58.026667-78.506667-90.453333-141.653334-100.693333-112.64-18.773333-215.04 59.733333-226.986666 174.08-5.12 44.373333-13.653333 85.333333-35.84 124.586666-40.96 73.386667-102.4 107.52-186.026667 104.106667h-17.066667v6.826667c1.706667 3.413333 3.413333 8.533333 5.12 11.946666 32.426667 59.733333 81.92 93.866667 150.186667 102.4 90.453333 11.946667 180.906667-40.96 208.213333-124.586666 6.826667-20.48 11.946667-42.666667 13.653334-64.853334 5.12-46.08 18.773333-90.453333 44.373333-129.706666 29.013333-46.08 71.68-73.386667 122.88-81.92z" fill="#003377" /><path d="M426.666667 377.173333c20.48-3.413333 42.666667-3.413333 64.853333-3.413333-6.826667-15.36-17.066667-30.72-29.013333-42.666667C409.6 266.24 341.333333 240.64 261.12 256c-90.453333 17.066667-155.306667 98.986667-155.306667 194.56v348.16c0 18.773333 6.826667 32.426667 22.186667 44.373333 30.72 23.893333 63.146667 47.786667 93.866667 71.68l5.12 5.12c10.24 6.826667 15.36 3.413333 17.066666-8.533333v-18.773333-305.493334c0-20.48 1.706667-42.666667 8.533334-63.146666C279.893333 436.906667 341.333333 392.533333 426.666667 377.173333zM1056.426667 244.053333c0-20.48-6.826667-35.84-23.893334-47.786666-30.72-22.186667-59.733333-46.08-90.453333-68.266667-3.413333-3.413333-6.826667-5.12-10.24-6.826667-8.533333-3.413333-13.653333-1.706667-15.36 8.533334v322.56c0 75.093333-32.426667 134.826667-97.28 174.08-35.84 22.186667-76.8 34.133333-119.466667 34.133333h-30.72c10.24 22.186667 23.893333 40.96 39.253334 58.026667 49.493333 51.2 110.933333 71.68 180.906666 63.146666 109.226667-15.36 167.253333-117.76 165.546667-194.56 1.706667-116.053333 1.706667-230.4 1.706667-343.04zM1566.72 535.893333c1.706667-29.013333 0-58.026667 1.706667-87.04 20.48 0 37.546667-1.706667 58.026666 1.706667v39.253333c0 5.12 0 10.24-1.706666 17.066667-13.653333 1.706667-25.6 3.413333-39.253334 5.12 5.12 13.653333 8.533333 23.893333 11.946667 37.546667h17.066667c32.426667 3.413333 51.2-22.186667 51.2-49.493334-1.706667-66.56 0-133.12 0-199.68v-18.773333c-32.426667 0-63.146667-1.706667-95.573334-1.706667V256h124.586667v-35.84c-3.413333 0-6.826667-1.706667-8.533333-1.706667-13.653333 1.706667-23.893333-3.413333-32.426667-15.36-11.946667-15.36-25.6-27.306667-40.96-37.546666-10.24 8.533333-18.773333 15.36-29.013333 22.186666 6.826667 5.12 10.24 10.24 15.36 13.653334 5.12 5.12 10.24 6.826667 11.946666 15.36-13.653333 0-27.306667 3.413333-40.96-3.413334V160.426667h-39.253333v56.32h-22.186667c-27.306667 0-54.613333-1.706667-81.92 0-10.24 0-17.066667-1.706667-25.6-8.533334-11.946667-10.24-25.6-20.48-39.253333-30.72-10.24 8.533333-20.48 17.066667-29.013333 23.893334 25.6 22.186667 51.2 44.373333 75.093333 66.56 1.706667-1.706667 5.12-1.706667 6.826667-5.12 10.24-8.533333 20.48-11.946667 34.133333-10.24h64.853333c5.12 0 10.24 0 15.36 1.706666v22.186667c-32.426667 1.706667-63.146667 0-92.16 1.706667-3.413333 27.306667-1.706667 254.293333 1.706667 267.946666h34.133333c1.706667-32.426667 0-64.853333 1.706667-95.573333h56.32v85.333333h35.84z m56.32-126.293333c-18.773333 1.706667-37.546667 1.706667-56.32 0v-29.013333h56.32V409.6z m-56.32-93.866667c18.773333-1.706667 35.84 0 56.32-1.706666 0 8.533333 0 15.36 1.706667 25.6-18.773333 3.413333-37.546667 1.706667-58.026667 1.706666v-25.6zM1525.76 409.6c-17.066667 1.706667-35.84 1.706667-54.613333 1.706667v-29.013334h54.613333V409.6z m0-69.973333c-18.773333 3.413333-35.84 1.706667-54.613333 1.706666v-25.6h54.613333v23.893334zM2124.8 518.826667c-23.893333-8.533333-46.08-15.36-66.56-25.6-22.186667-10.24-42.666667-20.48-59.733333-35.84 15.36-25.6 29.013333-47.786667 44.373333-71.68 8.533333-15.36 11.946667-30.72 8.533333-52.906667h-138.24c3.413333-10.24 5.12-17.066667 8.533334-25.6h187.733333v-22.186667c0-3.413333 0-8.533333-1.706667-13.653333-58.026667-1.706667-117.76 1.706667-175.786666-1.706667 5.12-32.426667 8.533333-61.44 13.653333-92.16-11.946667-3.413333-23.893333-5.12-35.84-8.533333-5.12 34.133333-10.24 66.56-15.36 98.986667-20.48 3.413333-46.08 3.413333-59.733333-1.706667 8.533333-23.893333 18.773333-47.786667 29.013333-73.386667-11.946667-6.826667-22.186667-11.946667-34.133333-17.066666-11.946667 30.72-22.186667 58.026667-34.133334 85.333333-6.826667 15.36-5.12 29.013333-3.413333 46.08h90.453333c-3.413333 22.186667-10.24 40.96-18.773333 58.026667-25.6 58.026667-66.56 104.106667-121.173333 138.24 5.12 6.826667 8.533333 11.946667 13.653333 17.066666 3.413333 5.12 8.533333 10.24 13.653333 15.36 56.32-39.253333 98.986667-87.04 126.293334-150.186666 17.066667 25.6 32.426667 47.786667 49.493333 71.68-35.84 32.426667-80.213333 46.08-126.293333 58.026666 8.533333 11.946667 15.36 22.186667 22.186666 30.72 51.2-8.533333 95.573333-30.72 133.12-64.853333 39.253333 29.013333 78.506667 56.32 128 64.853333 5.12-8.533333 13.653333-17.066667 22.186667-27.306666z m-157.013333-90.453334c-17.066667-15.36-27.306667-35.84-39.253334-56.32 6.826667 0 10.24-1.706667 13.653334-1.706666h61.44c-1.706667 17.066667-15.36 39.253333-35.84 58.026666zM2351.786667 547.84c30.72-11.946667 59.733333-22.186667 90.453333-32.426667v-35.84c5.12 3.413333 8.533333 6.826667 11.946667 10.24 20.48 23.893333 46.08 39.253333 76.8 46.08 8.533333-10.24 17.066667-20.48 25.6-32.426666-32.426667-10.24-63.146667-20.48-83.626667-51.2 23.893333-17.066667 44.373333-34.133333 58.026667-58.026667-8.533333-6.826667-15.36-13.653333-22.186667-18.773333 3.413333-15.36 3.413333-177.493333 0-192.853334-20.48-3.413333-157.013333-3.413333-170.666667 1.706667v290.133333c0 11.946667-1.706667 23.893333-3.413333 35.84v8.533334c6.826667 10.24 11.946667 18.773333 17.066667 29.013333z m27.306666-49.493333v-124.586667c5.12 0 8.533333-1.706667 13.653334-1.706667h11.946666c1.706667 5.12 3.413333 8.533333 3.413334 13.653334 3.413333 27.306667 13.653333 52.906667 27.306666 78.506666l5.12 15.36c-11.946667 3.413333-22.186667 6.826667-34.133333 8.533334-8.533333 3.413333-17.066667 6.826667-27.306667 10.24z m80.213334-76.8c-10.24-15.36-11.946667-30.72-13.653334-47.786667h56.32c-11.946667 20.48-25.6 35.84-42.666666 47.786667z m15.36-87.04c-32.426667 1.706667-63.146667 0-95.573334 0v-40.96h95.573334v40.96z m-95.573334-110.933334l95.573334-1.706666v35.84h-93.866667v-34.133334zM2769.92 295.253333c1.706667-6.826667 1.706667-10.24 1.706667-15.36-10.24-6.826667-18.773333-11.946667-29.013334-18.773333-37.546667 51.2-76.8 97.28-133.12 129.706667 10.24 10.24 18.773333 20.48 29.013334 30.72 13.653333-10.24 27.306667-18.773333 42.666666-29.013334v155.306667h39.253334v-20.48-158.72c0-5.12 0-13.653333 3.413333-17.066667 11.946667-17.066667 25.6-34.133333 42.666667-54.613333 1.706667 13.653333 1.706667 25.6 3.413333 37.546667h104.106667c3.413333 30.72 3.413333 162.133333-1.706667 175.786666h-63.146667c5.12 13.653333 8.533333 25.6 11.946667 37.546667 20.48 0 37.546667 1.706667 54.613333 0 29.013333-1.706667 40.96-15.36 40.96-44.373333v-146.773334c0-6.826667 0-13.653333 1.706667-20.48 25.6-3.413333 49.493333 1.706667 73.386667-3.413333v-35.84c-75.093333-1.706667-148.48-1.706667-221.866667-1.706667zM2184.533333 394.24h56.32v42.666667c-1.706667 25.6 5.12 51.2-5.12 75.093333 0 1.706667 0 5.12 1.706667 6.826667 5.12 8.533333 11.946667 18.773333 17.066667 29.013333 23.893333-11.946667 46.08-23.893333 68.266666-35.84 3.413333-1.706667 6.826667-6.826667 6.826667-10.24v-32.426667c-17.066667 8.533333-32.426667 15.36-49.493333 22.186667V392.533333h49.493333v-37.546666h-49.493333v-35.84c15.36-1.706667 29.013333-1.706667 42.666666-1.706667v-35.84h-78.506666c3.413333-10.24 6.826667-17.066667 10.24-25.6h73.386666v-37.546667h-61.44c1.706667-10.24 1.706667-17.066667 1.706667-23.893333 0-6.826667 1.706667-13.653333 1.706667-22.186667-11.946667-3.413333-23.893333-5.12-35.84-8.533333-5.12 63.146667-22.186667 119.466667-73.386667 163.84 27.306667 15.36 23.893333 40.96 23.893333 66.56z m35.84-71.68c3.413333-3.413333 10.24-3.413333 18.773334-3.413333v34.133333c-13.653333 5.12-29.013333 5.12-46.08 0 8.533333-10.24 17.066667-20.48 27.306666-30.72zM2667.52 628.053333v201.386667c-1.706667 0-3.413333 1.706667-3.413333 1.706667l-10.24-15.36c-40.96-58.026667-80.213333-117.76-121.173334-175.786667-3.413333-5.12-8.533333-11.946667-13.653333-13.653333-10.24-1.706667-20.48 0-30.72 0-3.413333 27.306667-1.706667 226.986667 1.706667 240.64h22.186666V665.6c6.826667 3.413333 10.24 8.533333 13.653334 11.946667l46.08 66.56c25.6 37.546667 51.2 75.093333 78.506666 112.64 3.413333 5.12 8.533333 10.24 11.946667 11.946666 10.24 1.706667 20.48 0 30.72 0 3.413333-40.96 1.706667-226.986667-1.706667-240.64h-23.893333zM2177.706667 745.813333c-3.413333-1.706667-6.826667-5.12-13.653334-8.533333 15.36-8.533333 25.6-17.066667 32.426667-32.426667 13.653333-34.133333-6.826667-69.973333-44.373333-76.8-34.133333-6.826667-68.266667-1.706667-105.813334-3.413333v242.346667c37.546667-1.706667 73.386667 3.413333 109.226667-3.413334 11.946667-1.706667 22.186667-8.533333 32.426667-15.36 10.24-6.826667 17.066667-18.773333 20.48-30.72 6.826667-27.306667-5.12-58.026667-30.72-71.68z m-105.813334-97.28c23.893333 0 47.786667-3.413333 71.68 1.706667 15.36 3.413333 27.306667 17.066667 29.013334 34.133333 1.706667 17.066667-5.12 32.426667-18.773334 39.253334-6.826667 3.413333-13.653333 6.826667-20.48 6.826666-18.773333 1.706667-39.253333 0-59.733333 0-1.706667-29.013333-1.706667-54.613333-1.706667-81.92z m83.626667 192.853334c-3.413333 1.706667-6.826667 1.706667-10.24 3.413333-23.893333 5.12-47.786667 1.706667-73.386667 3.413333v-95.573333c25.6 0 51.2-3.413333 76.8 3.413333 20.48 5.12 30.72 18.773333 34.133334 37.546667 3.413333 20.48-6.826667 39.253333-27.306667 47.786667zM1844.906667 628.053333c-29.013333-3.413333-58.026667-1.706667-87.04-1.706666-5.12 0-8.533333 1.706667-15.36 1.706666v240.64c39.253333-1.706667 78.506667 5.12 116.053333-5.12 58.026667-13.653333 95.573333-64.853333 92.16-121.173333-5.12-66.56-42.666667-107.52-105.813333-114.346667z m30.72 201.386667c-13.653333 6.826667-27.306667 11.946667-42.666667 13.653333-20.48 1.706667-42.666667 0-64.853333 0V651.946667c3.413333 0 8.533333-1.706667 11.946666-1.706667 22.186667 0 46.08 0 68.266667 3.413333 40.96 6.826667 66.56 35.84 73.386667 76.8 6.826667 44.373333-10.24 80.213333-46.08 98.986667zM2913.28 628.053333c-20.48-3.413333-35.84-1.706667-49.493333 11.946667-29.013333 29.013333-59.733333 56.32-88.746667 83.626667-3.413333 3.413333-8.533333 6.826667-13.653333 11.946666-1.706667-37.546667 0-73.386667-1.706667-107.52h-23.893333c-3.413333 20.48-3.413333 226.986667 0 240.64h23.893333v-61.44c0-20.48-1.706667-40.96 1.706667-64.853333 6.826667 6.826667 11.946667 10.24 15.36 13.653333 30.72 32.426667 63.146667 63.146667 93.866666 97.28 15.36 17.066667 30.72 15.36 51.2 11.946667-44.373333-44.373333-85.333333-87.04-128-129.706667 40.96-34.133333 78.506667-69.973333 119.466667-107.52zM2319.36 645.12c-29.013333 68.266667-59.733333 134.826667-88.746667 203.093333-3.413333 5.12-5.12 11.946667-6.826666 18.773334h29.013333c6.826667-15.36 11.946667-30.72 18.773333-44.373334 6.826667-17.066667 6.826667-17.066667 23.893334-17.066666H2401.28c8.533333 22.186667 17.066667 40.96 25.6 61.44h30.72c-34.133333-81.92-68.266667-160.426667-102.4-238.933334-27.306667-3.413333-27.306667-3.413333-35.84 17.066667z m-34.133333 139.946667c17.066667-42.666667 34.133333-83.626667 51.2-124.586667h3.413333c17.066667 40.96 32.426667 81.92 51.2 124.586667h-105.813333zM1657.173333 629.76c-32.426667-3.413333-64.853333-1.706667-97.28-1.706667-1.706667 0-1.706667 1.706667-3.413333 1.706667v237.226667h25.6v-52.906667-54.613333h35.84c17.066667 0 32.426667 0 49.493333-3.413334 20.48-3.413333 35.84-15.36 44.373334-34.133333 15.36-44.373333-8.533333-88.746667-54.613334-92.16z m-3.413333 104.106667c-23.893333 5.12-46.08 3.413333-73.386667 1.706666V665.6v-18.773333c25.6 0 49.493333-3.413333 73.386667 1.706666 22.186667 5.12 32.426667 20.48 32.426667 42.666667-1.706667 23.893333-11.946667 39.253333-32.426667 42.666667zM1474.56 744.106667c-11.946667-5.12-25.6-8.533333-37.546667-13.653334-8.533333-3.413333-15.36-5.12-23.893333-10.24-13.653333-8.533333-22.186667-20.48-20.48-37.546666 1.706667-17.066667 10.24-29.013333 25.6-34.133334 20.48-8.533333 40.96-6.826667 59.733333 5.12 5.12 3.413333 8.533333 5.12 13.653334 8.533334 6.826667-6.826667 11.946667-11.946667 18.773333-17.066667-5.12-3.413333-6.826667-8.533333-11.946667-10.24-27.306667-18.773333-81.92-18.773333-109.226666 1.706667-39.253333 29.013333-34.133333 87.04 6.826666 109.226666 10.24 5.12 22.186667 8.533333 34.133334 13.653334 11.946667 5.12 23.893333 6.826667 34.133333 13.653333 27.306667 13.653333 29.013333 47.786667 5.12 64.853333-15.36 11.946667-32.426667 17.066667-51.2 10.24-13.653333-5.12-27.306667-11.946667-42.666667-20.48-5.12 3.413333-11.946667 10.24-17.066666 15.36 32.426667 35.84 93.866667 40.96 129.706666 11.946667 42.666667-30.72 34.133333-90.453333-13.653333-110.933333z" fill="#003377" /><path d="M1382.4 360.106667c-17.066667 56.32-35.84 107.52-64.853333 157.013333 11.946667 8.533333 23.893333 15.36 34.133333 23.893333 27.306667-39.253333 63.146667-122.88 64.853333-160.426666-10.24-5.12-20.48-11.946667-34.133333-20.48zM2966.186667 226.986667v-15.36c0-5.12 0-10.24-1.706667-15.36-18.773333-3.413333-170.666667-3.413333-184.32 0v32.426666c32.426667 5.12 172.373333 3.413333 186.026667-1.706666zM2756.266667 182.613333c-10.24-8.533333-18.773333-15.36-30.72-23.893333-29.013333 46.08-64.853333 85.333333-110.933334 116.053333 11.946667 8.533333 22.186667 17.066667 34.133334 25.6 46.08-30.72 76.8-73.386667 107.52-117.76zM2090.666667 242.346667c-22.186667-30.72-46.08-54.613333-73.386667-75.093334l-30.72 20.48c25.6 25.6 49.493333 51.2 73.386667 76.8 10.24-6.826667 18.773333-15.36 30.72-22.186666zM1411.413333 324.266667c-22.186667-29.013333-47.786667-51.2-78.506666-68.266667-10.24 8.533333-18.773333 15.36-27.306667 23.893333 27.306667 23.893333 52.906667 46.08 78.506667 68.266667 8.533333-6.826667 17.066667-15.36 27.306666-23.893333z" fill="#003377" /></svg>