<?xml version="1.0" encoding="UTF-8"?>
<svg width="20px" height="20px" viewBox="0 0 20 20" version="1.1" xmlns="http://www.w3.org/2000/svg" xmlns:xlink="http://www.w3.org/1999/xlink">
    <title>齐鲁银行logo</title>
    <g id="页面-1" stroke="none" stroke-width="1" fill="none" fill-rule="evenodd">
        <g id="主页-有图标" transform="translate(-24.000000, -1259.000000)" fill-rule="nonzero">
            <g id="齐鲁银行logo" transform="translate(24.000000, 1259.000000)">
                <path d="M9.35552481,0.0166803504 C9.35552481,0.0166803504 10.8028048,-0.203306209 12.0764112,0.954517789 L19.0812464,7.72778818 C19.0812464,7.72778818 15.8046045,6.51207298 12.01852,6.32682114 C8.24401377,6.1415693 7.60721057,6.24577346 7.60721057,6.24577346 L9.35552481,0.0166803504 Z" id="路径" fill="#FFAD19"></path>
                <path d="M0.637110102,7.46148866 C4.77054178,3.42068291 7.00514209,1.23239555 7.35248929,0.931361309 C7.87351009,0.46823171 8.68398689,0.00510211037 9.35552481,0.0166803504 L7.60721057,6.24577346 C7.60721057,6.24577346 2.74434978,6.36155586 0.637110102,7.46148866 Z" id="路径" fill="#FF962D"></path>
                <path d="M7.60721057,6.24577346 L5.89363105,11.9075328 C5.89363105,11.9075328 1.86440354,10.9002259 0.393967062,9.23295938 C-1.06489118,7.56569282 1.9686077,6.92888962 2.36226786,6.84784194 C2.75592802,6.7783725 4.75896354,6.32682114 7.60721057,6.24577346 L7.60721057,6.24577346 Z" id="路径" fill="#E16421"></path>
                <path d="M19.0812464,11.9075328 L12.1227242,18.7155379 C12.1227242,18.7155379 10.7912266,19.6302189 10.1196886,19.6302189 L11.8680029,13.3895475 C11.8795811,13.3895475 16.9740067,13.0074656 19.0812464,11.9075328 L19.0812464,11.9075328 Z" id="路径" fill="#187DC0"></path>
                <path d="M11.8795811,13.3895475 L13.3500176,8.02882242 C13.3500176,8.02882242 17.6571229,8.64246914 19.1622941,10.3328922 C20.6674653,12.0233152 17.4255581,12.544336 16.8119114,12.6832749 C16.2098429,12.833792 14.4962634,13.1927175 11.8795811,13.3895475 Z" id="路径" fill="#0B5AA4"></path>
                <path d="M7.39880225,18.6808032 C6.54201249,17.9050611 4.21478626,15.6473043 0.393967062,11.9075328 C0.393967062,11.9075328 3.67060898,13.123248 7.45669345,13.3084999 C11.2311997,13.4937517 11.8680029,13.3895475 11.8680029,13.3895475 L10.1196886,19.6302189 C10.1312669,19.6302189 8.68398689,19.8386272 7.39880225,18.6808032 L7.39880225,18.6808032 Z" id="路径" fill="#1F8FCE"></path>
            </g>
        </g>
    </g>
</svg>