<?xml version="1.0" encoding="UTF-8"?>
<svg width="46px" height="46px" viewBox="0 0 46 46" version="1.1" xmlns="http://www.w3.org/2000/svg" xmlns:xlink="http://www.w3.org/1999/xlink">
    <title>编组 24</title>
    <defs>
        <linearGradient x1="50%" y1="0%" x2="50%" y2="100%" id="linearGradient-1">
            <stop stop-color="#9BC9FF" offset="0%"></stop>
            <stop stop-color="#6298FE" offset="100%"></stop>
        </linearGradient>
        <path d="M24.4367904,13.5 C19.1054664,13.582396 14.8503762,17.9709982 14.9327721,23.3023221 C15.0131336,28.5176814 19.2216854,32.7259789 24.4367904,32.8063404 C29.7681143,32.7239444 34.0232046,28.3353422 33.9408086,23.0040182 C33.8604471,17.7889133 29.6521496,13.5806158 24.4367904,13.5 Z M26.942238,24.6402393 C27.4043166,24.6402393 27.7776415,24.889716 27.7776415,25.1974293 C27.7776415,25.5051426 27.4040623,25.7558908 26.942238,25.7558908 L25.1770825,25.7558908 L25.1770825,27.6543039 C25.1770825,28.0380555 24.9263343,28.3518722 24.618621,28.3518722 C24.3109077,28.3518722 24.061431,28.0416158 24.061431,27.6543039 L24.061431,25.7558908 L21.9321057,25.7558908 C21.4700271,25.7558908 21.0967022,25.5053969 21.0967022,25.1974293 C21.0967022,24.8894617 21.4702814,24.6402393 21.9321057,24.6402393 L24.061431,24.6402393 L24.061431,23.528911 L21.9321057,23.528911 C21.4700271,23.528911 21.0967022,23.2794344 21.0967022,22.9704495 C21.0967022,22.6624819 21.4702814,22.4132595 21.9321057,22.4132595 L24.061431,22.4132595 L24.061431,21.9684739 C23.9388543,21.9115088 23.8274672,21.8329275 23.7328644,21.7362902 L21.4056871,19.397669 C21.0872928,19.0792748 21.0036253,18.6507649 21.2159729,18.4379087 C21.4285748,18.2265783 21.8583562,18.3115173 22.1734445,18.6299116 L24.5018934,20.9685328 L24.5270699,20.9937093 C24.5545352,20.9591234 24.5845436,20.9247917 24.6191296,20.8924945 L26.675977,18.8356472 C27.0009833,18.5093693 27.4437344,18.42087 27.6609139,18.6380495 C27.8780934,18.8552289 27.7918828,19.2964542 27.4633162,19.6229864 L25.4064688,21.6798337 C25.3360253,21.7510401 25.2566811,21.8130914 25.1707248,21.864716 C25.178354,21.9079485 25.1821687,21.9516896 25.1821687,21.9956849 L25.1821687,22.4127509 L26.9437638,22.4127509 C27.4058424,22.4127509 27.7791673,22.6622276 27.7791673,22.9699409 C27.7791673,23.2791801 27.4055881,23.5284024 26.9437638,23.5284024 L25.1786084,23.5284024 L25.1786084,24.6397307 L26.9437638,24.6397307 L26.942238,24.6402393 L26.942238,24.6402393 Z M13.5450105,17.0821899 L13.5691698,17.0936338 C14.0948256,17.3222571 14.3354014,17.9333605 14.1070324,18.458762 C13.5139521,19.8298875 13.2104116,21.3087169 13.2154267,22.8026059 C13.2136621,24.3394687 13.5355655,25.8594768 14.1601828,27.263686 L14.2405443,27.3440475 C14.6568474,27.797734 14.6265847,28.5029315 14.1731526,28.9189802 C13.7471858,29.3101068 13.0925957,29.3103611 12.6661203,28.9194889 L8.64473953,24.8998883 C8.22894509,24.4459476 8.25971642,23.74075 8.71340283,23.3249556 C9.13962392,22.9343377 9.79395976,22.934592 10.2201809,23.3254642 L11.1969799,24.3032805 C11.1404653,23.8053917 11.1121072,23.3047091 11.1120409,22.8036231 C11.1120409,20.9959981 11.4706159,19.2514416 12.1773393,17.6231041 C12.4051997,17.0964312 13.0168117,16.8543295 13.5432304,17.0821899 L13.5447562,17.0829528 L13.5447562,17.0821899 L13.5450105,17.0821899 Z" id="path-2"></path>
        <filter x="-27.4%" y="-25.9%" width="154.7%" height="172.5%" filterUnits="objectBoundingBox" id="filter-3">
            <feOffset dx="0" dy="2" in="SourceAlpha" result="shadowOffsetOuter1"></feOffset>
            <feGaussianBlur stdDeviation="2" in="shadowOffsetOuter1" result="shadowBlurOuter1"></feGaussianBlur>
            <feColorMatrix values="0 0 0 0 0.270345034   0 0 0 0 0.495631718   0 0 0 0 0.860596145  0 0 0 1 0" type="matrix" in="shadowBlurOuter1"></feColorMatrix>
        </filter>
        <filter x="-23.4%" y="-20.7%" width="146.9%" height="162.2%" filterUnits="objectBoundingBox" id="filter-4">
            <feGaussianBlur stdDeviation="1.5" in="SourceAlpha" result="shadowBlurInner1"></feGaussianBlur>
            <feOffset dx="0" dy="1" in="shadowBlurInner1" result="shadowOffsetInner1"></feOffset>
            <feComposite in="shadowOffsetInner1" in2="SourceAlpha" operator="arithmetic" k2="-1" k3="1" result="shadowInnerInner1"></feComposite>
            <feColorMatrix values="0 0 0 0 0.501960784   0 0 0 0 0.694117647   0 0 0 0 1  0 0 0 0.48843149 0" type="matrix" in="shadowInnerInner1"></feColorMatrix>
        </filter>
    </defs>
    <g id="首页" stroke="none" stroke-width="1" fill="none" fill-rule="evenodd">
        <g id="6月13右侧" transform="translate(-549.000000, -385.000000)">
            <g id="编组-10" transform="translate(538.000000, 385.000000)">
                <g id="编组-19" transform="translate(11.000000, 0.000000)">
                    <circle id="椭圆形" fill="url(#linearGradient-1)" cx="23" cy="23" r="23"></circle>
                    <g id="形状" fill-rule="nonzero">
                        <use fill="black" fill-opacity="1" filter="url(#filter-3)" xlink:href="#path-2"></use>
                        <use fill="#FFFFFF" xlink:href="#path-2"></use>
                        <use fill="black" fill-opacity="1" filter="url(#filter-4)" xlink:href="#path-2"></use>
                    </g>
                </g>
            </g>
        </g>
    </g>
</svg>