<?xml version="1.0" encoding="UTF-8"?>
<svg width="16px" height="16px" viewBox="0 0 16 16" version="1.1" xmlns="http://www.w3.org/2000/svg" xmlns:xlink="http://www.w3.org/1999/xlink">
    <title>返回</title>
    <g id="页面-1" stroke="none" stroke-width="1" fill="none" fill-rule="evenodd">
        <g id="聊城登录首页" transform="translate(-1544, -1618)" fill-rule="nonzero">
            <g id="返回" transform="translate(1552, 1626) scale(-1, -1) translate(-1552, -1626)translate(1544, 1618)">
                <rect id="矩形" fill="#000000" opacity="0" x="0" y="0" width="16" height="16"></rect>
                <path d="M9.86,2.53032813 C10.1112583,2.27574205 10.5186539,2.26481077 10.783203,2.50555665 C11.047752,2.74630254 11.0751669,3.15292172 10.8453281,3.427 L10.8066719,3.46965625 L6.276,8.036 L10.8026719,12.5266719 C11.0481422,12.770212 11.0666643,13.1610071 10.8453281,13.4266719 L10.8066719,13.4696719 C10.5630443,13.7150441 10.1722534,13.7334234 9.90667187,13.512 L9.86367187,13.4733281 L4.86367187,8.51332812 C4.61829502,8.26970473 4.59990884,7.87891363 4.82132812,7.61332812 L4.86,7.57032813 L9.86,2.53032813 L9.86,2.53032813 Z" id="路径" fill="#696969"></path>
            </g>
        </g>
    </g>
</svg>