<?xml version="1.0" encoding="UTF-8"?>
<svg width="20px" height="20px" viewBox="0 0 20 20" version="1.1" xmlns="http://www.w3.org/2000/svg" xmlns:xlink="http://www.w3.org/1999/xlink">
    <title>设置</title>
    <g id="首页" stroke="none" stroke-width="1" fill="none" fill-rule="evenodd">
        <g id="6月13右侧" transform="translate(-548.000000, -206.000000)" fill-rule="nonzero">
            <g id="设置" transform="translate(548.000000, 206.000000)">
                <rect id="矩形" fill="#000000" opacity="0" x="0" y="0" width="20" height="20"></rect>
                <path d="M13.6096667,2.33333333 L6.38166666,2.33333333 C5.90277245,2.33333333 5.46062542,2.59002868 5.22333334,3.006 L1.60966666,9.33933334 C1.37608078,9.74880772 1.37608078,10.2511923 1.60966666,10.6606667 L5.22333334,16.994 C5.46062542,17.4099713 5.90277245,17.6666667 6.38166666,17.6666667 L13.6096667,17.6666667 C14.0879267,17.6666667 14.5295439,17.4104806 14.767,16.9953333 L18.3893333,10.662 C18.6239347,10.2518437 18.6239347,9.74815633 18.3893333,9.338 L14.767,3.00466666 C14.529603,2.58962277 14.0881409,2.33333333 13.61,2.33333333 L13.6096667,2.33333333 Z M6.38166666,3.66666666 L13.6096667,3.66666666 L17.232,10 L13.6096667,16.3333333 L6.38166666,16.3333333 L2.76766666,10 L6.38166666,3.66666666 Z" id="形状" fill="#2C3541"></path>
                <path d="M9.99999994,7 C8.92820322,7 7.93782213,7.57179674 7.40192374,8.5 C6.86602534,9.42820322 6.86602534,10.5717968 7.40192374,11.5 C7.93782213,12.4282033 8.92820322,13 9.99999994,13 C11.6568542,13 12.9999999,11.6568542 12.9999999,10 C12.9999999,8.34314575 11.6568542,7 9.99999994,7 L9.99999994,7 Z M10,8.33333334 C10.5954427,8.33333334 11.1456544,8.65099819 11.4433757,9.16666666 C11.741097,9.68233512 11.741097,10.3176649 11.4433757,10.8333333 C11.1456544,11.3490018 10.5954427,11.6666667 10,11.6666667 C9.07952544,11.6666667 8.33333339,10.9204746 8.33333339,10 C8.33333339,9.07952544 9.07952544,8.33333334 10,8.33333334 L10,8.33333334 Z" id="形状" fill="#2458DF"></path>
            </g>
        </g>
    </g>
</svg>