<?xml version="1.0" encoding="UTF-8"?>
<svg width="13px" height="13px" viewBox="0 0 13 13" version="1.1" xmlns="http://www.w3.org/2000/svg" xmlns:xlink="http://www.w3.org/1999/xlink">
    <title>搜索小</title>
    <g id="小区画像" stroke="none" stroke-width="1" fill="none" fill-rule="evenodd">
        <g id="小区画像2" transform="translate(-24.000000, -80.000000)" fill="#C0C1C2" fill-rule="nonzero">
            <g id="搜索小" transform="translate(24.000000, 80.000000)">
                <path d="M9.58870472,8.83705237 C9.61574257,8.85597887 9.64223967,8.87706839 9.66603299,8.90194322 L12.7288812,11.9642506 C12.9349096,12.1702791 12.9381541,12.5158229 12.7272589,12.7267181 C12.6265589,12.8285491 12.4894172,12.8860326 12.3462045,12.8864407 C12.2029918,12.8868445 12.0655264,12.8301395 11.9642506,12.7288812 L8.90140246,9.66603299 C8.87771493,9.64235114 8.85634778,9.61645705 8.83759312,9.58870472 C7.87141908,10.3835237 6.65866062,10.817157 5.40757091,10.8151418 C2.4209695,10.8151418 0,8.39417232 0,5.40757091 C0,2.4209695 2.4209695,0 5.40757091,0 C8.39417232,0 10.8151418,2.4209695 10.8151418,5.40757091 C10.8151418,6.70917323 10.3554983,7.90370563 9.58870472,8.83705237 Z M5.40757091,9.73362762 C7.79678606,9.73362762 9.73362763,7.79678606 9.73362763,5.4075709 C9.73362763,3.01835574 7.79678606,1.08151418 5.40757091,1.08151418 C3.01835575,1.08151418 1.08151418,3.01835574 1.08151418,5.4075709 C1.08151418,7.79678606 3.01835575,9.73362762 5.40757091,9.73362762 Z" id="形状"></path>
            </g>
        </g>
    </g>
</svg>