<?xml version="1.0" encoding="UTF-8"?>
<svg width="59px" height="26px" viewBox="0 0 59 26" version="1.1" xmlns="http://www.w3.org/2000/svg" xmlns:xlink="http://www.w3.org/1999/xlink">
    <title>编组 18</title>
    <defs>
        <polygon id="path-1" points="1.43055556 4.70068027 3.52473838 1.42857143 53.3363727 1.42857143 55.4305556 4.95238095 55.4305556 19.047619 53.3363727 22.5714286 3.52473838 22.5714286 1.43055556 19.047619"></polygon>
        <filter x="-8.3%" y="-21.3%" width="116.7%" height="142.6%" filterUnits="objectBoundingBox" id="filter-2">
            <feGaussianBlur stdDeviation="4.5" in="SourceAlpha" result="shadowBlurInner1"></feGaussianBlur>
            <feOffset dx="0" dy="0" in="shadowBlurInner1" result="shadowOffsetInner1"></feOffset>
            <feComposite in="shadowOffsetInner1" in2="SourceAlpha" operator="arithmetic" k2="-1" k3="1" result="shadowInnerInner1"></feComposite>
            <feColorMatrix values="0 0 0 0 0.28627451   0 0 0 0 0.717647059   0 0 0 0 1  0 0 0 1 0" type="matrix" in="shadowInnerInner1"></feColorMatrix>
        </filter>
    </defs>
    <g id="综合业务监管可视化平台" stroke="none" stroke-width="1" fill="none" fill-rule="evenodd">
        <g id="切图" transform="translate(-817.000000, -755.000000)">
            <g id="编组-17" transform="translate(818.000000, 756.000000)">
                <path d="M54.6419961,0.25 L56.75,4.06448317 L56.75,19.9355168 L54.6419961,23.75 L2.35800386,23.75 L0.25,19.9355168 L0.25,3.78305012 L2.35266546,0.25 L54.6419961,0.25 Z" id="矩形" stroke="#4B7895" stroke-width="0.5"></path>
                <polyline id="形状" stroke="#49B7FF" stroke-width="0.858" points="0 8.86216518 0 3.71428571 3.99445983 7.10542736e-15 9.42713759 7.10542736e-15"></polyline>
                <polyline id="形状备份-2" stroke="#49B7FF" stroke-width="0.858" transform="translate(4.713569, 19.568917) scale(1, -1) translate(-4.713569, -19.568917) " points="0 24 0 18.8521205 3.99445983 15.1378348 9.42713759 15.1378348"></polyline>
                <polyline id="形状备份" stroke="#49B7FF" stroke-width="0.858" transform="translate(52.271902, 4.431083) scale(-1, 1) translate(-52.271902, -4.431083) " points="47.5583333 8.86216518 47.5583333 3.71428571 51.5527932 0 56.9854709 0"></polyline>
                <polyline id="形状备份-3" stroke="#49B7FF" stroke-width="0.858" transform="translate(52.271902, 19.568917) scale(-1, -1) translate(-52.271902, -19.568917) " points="47.5583333 24 47.5583333 18.8521205 51.5527932 15.1378348 56.9854709 15.1378348"></polyline>
                <g id="矩形">
                    <use fill-opacity="0.1" fill="#46D0E5" fill-rule="evenodd" xlink:href="#path-1"></use>
                    <use fill="black" fill-opacity="1" filter="url(#filter-2)" xlink:href="#path-1"></use>
                </g>
            </g>
        </g>
    </g>
</svg>