<svg xmlns="http://www.w3.org/2000/svg" xmlns:xlink="http://www.w3.org/1999/xlink" width="49" height="41.540000915527344" viewBox="0 0 49 41.540000915527344" fill="none"><g opacity="1"  transform="translate(0 0)  rotate(0)"><path id="矩形 4" fill-rule="evenodd" style="fill:#CCCCCC" opacity="1" d="M2 39L46 39C47.1 39 48 38.1 48 37L48 11L0 11L0 37C0 38.1 0.9 39 2 39Z"></path><g id="矩形 1" filter="url(#filter_3)"><path id="矩形 1" fill-rule="evenodd" style="fill:#F0F2F5" opacity="1" d="M46 38C47.1 38 48 37.18 48 36.17L48 0L0 0L0 36.17C0 37.18 0.9 38 2 38L46 38Z"></path></g><path id="矩形 3" fill-rule="evenodd" style="fill:#323549" opacity="1" d="M48 9L48 2C48 0.9 47.1 0 46 0L2 0C0.9 0 0 0.9 0 2L0 9L48 9Z"></path><path id="矩形 2" fill-rule="evenodd" style="fill:#323549" opacity="1" d="M14.25 38L14.25 0L1.9 0C0.86 0 0 0.82 0 1.83L0 36.17C0 37.18 0.86 38 1.9 38L14.25 38Z"></path></g><defs><filter id="filter_3" x="0" y="0" width="48" height="38" filterUnits="userSpaceOnUse" color-interpolation-filters="sRGB"><feFlood flood-opacity="0" result="feFloodId"/>
          <feColorMatrix in="SourceAlpha" type="matrix" values="0 0 0 0 0 0 0 0 0 0 0 0 0 0 0 0 0 0 127 0" result="hardAlpha"/>
          
          <feOffset dx="0" dy="0"/>
          <feComposite in2="hardAlpha" operator="out"/>
          
          <feColorMatrix type="matrix" values="0 0 0 0 0.8588235294117647 0 0 0 0 0.8627450980392157 0 0 0 0 0.8666666666666667 0 0 0 1 0"/>
          <feBlend mode="normal" in2="filter_feFlood" result="filter_feFlood_1"/>
          <feBlend mode="normal" in="SourceGraphic" in2="filter_3" result="shape"/></filter></defs></svg>