<?xml version="1.0" encoding="UTF-8"?>
<svg width="28px" height="28px" viewBox="0 0 28 28" version="1.1" xmlns="http://www.w3.org/2000/svg" xmlns:xlink="http://www.w3.org/1999/xlink">
    <title>订单-已退款</title>
    <g id="页面-1" stroke="none" stroke-width="1" fill="none" fill-rule="evenodd">
        <g id="退款审核-已处理" transform="translate(-23.000000, -203.000000)">
            <g id="订单-已退款" transform="translate(23.000000, 203.000000)">
                <rect id="矩形" fill="#FCA159" opacity="0.176151821" x="0" y="0" width="28" height="28" rx="10"></rect>
                <g id="钱袋" transform="translate(5.000000, 5.000000)" fill-rule="nonzero">
                    <rect id="矩形" fill="#000000" opacity="0" x="0" y="0" width="18" height="18"></rect>
                    <path d="M6.72582438,5.84480661 L11.6411711,5.84480661 C11.9726631,5.84480661 12.2918237,5.70450175 12.5045962,5.45009727 C13.0118558,4.84724234 13.4929101,4.10716364 13.6008369,3.44417955 C13.8182329,2.11666554 13.2492983,1.44288526 11.5995427,1.44288526 C9.94978696,1.44288526 10.5079289,2.52524869 9.86652663,2.61467476 C9.38856045,2.68097317 9.40551887,2.05036713 8.65465102,1.44442756 C8.11500986,1.01117443 7.51061612,2.23538504 6.79828853,2.2430931 C5.96724495,2.25388579 4.79853656,2.02415483 4.79853656,3.44417602 C4.79853656,4.01773753 5.30117272,4.79327539 5.85006425,5.43621644 C6.07054836,5.69370554 6.38816309,5.84480661 6.72582438,5.84480661 Z M12.8576736,7.10910332 C12.5955646,6.81153165 12.2147326,6.64501094 11.8184809,6.64501094 L6.57318452,6.64501094 C6.1938948,6.64501094 5.82848241,6.79765082 5.56636989,7.07209833 C3.91815299,8.79894863 2.39791301,11.2643318 2.39791301,13.0621039 C2.39791301,14.6471035 3.99062065,16.6483978 5.95490996,16.6483978 L12.0451308,16.6483978 C14.0094201,16.6483978 15.6021277,14.6640654 15.6021277,13.0621039 C15.6021277,11.2319537 14.3794595,8.83595361 12.8576736,7.10910332 Z M11.2557156,9.29079211 L10.2011068,11.2042026 C10.1085961,11.3722621 10.2304002,11.5788654 10.4215874,11.5788654 L10.7207014,11.5788654 C10.8594675,11.5788654 10.9735601,11.6914192 10.9735601,11.831724 L10.9735601,11.831724 C10.9735601,11.9704901 10.8610063,12.0845827 10.7207014,12.0845827 L9.96828773,12.0845827 C9.82181361,12.0845827 9.7046364,12.2017634 9.7030941,12.348234 L9.7030941,12.4731228 C9.7030941,12.6118888 9.81564787,12.7259814 9.95595274,12.7259814 L10.7206979,12.7259814 C10.859464,12.7259814 10.9735565,12.8385352 10.9735565,12.97884 C10.9735565,13.1191449 10.8610028,13.2316987 10.7206979,13.2316987 L9.95595274,13.2316987 C9.81718666,13.2316987 9.7030941,13.3442525 9.7030941,13.4845573 L9.7030941,14.1274984 C9.7030941,14.2662644 9.59054033,14.380357 9.45023546,14.380357 L8.99231233,14.380357 C8.85354625,14.380357 8.73945369,14.2678032 8.73945369,14.1274984 L8.73945369,13.4845573 C8.73945369,13.3457912 8.62689992,13.2316987 8.48659505,13.2316987 L7.72955793,13.2316987 C7.59079185,13.2316987 7.47669929,13.1191449 7.47669929,12.97884 C7.47669929,12.8385352 7.58925306,12.7259814 7.72955793,12.7259814 L8.48505273,12.7259814 C8.62536111,12.7259814 8.73791488,12.6134276 8.73945369,12.4731228 L8.74099601,12.3497763 C8.74253834,12.2033022 8.62381531,12.0830404 8.47580238,12.0830404 L7.72955794,12.0830404 C7.59079187,12.0830404 7.4766993,11.9704866 7.4766993,11.8301817 L7.4766993,11.8301817 C7.4766993,11.6914157 7.58925308,11.5773231 7.72955794,11.5773231 L8.02096388,11.5773231 C8.21369336,11.5773231 8.33395519,11.3707198 8.24144447,11.2026603 L7.18683216,9.2892533 C7.09432144,9.12119381 7.21612557,8.91458701 7.40731275,8.91458701 L7.90994892,8.91458701 C8.00554075,8.91458701 8.09342803,8.96855043 8.13505644,9.05335309 L8.99385465,10.7663226 C9.08636537,10.9513405 9.351559,10.9513405 9.44561203,10.7663226 L10.3044102,9.05335309 C10.347581,8.96855395 10.4339224,8.91458701 10.5295178,8.91458701 L11.0321539,8.91458701 C11.2264187,8.91766814 11.3482263,9.12273261 11.2557156,9.29079211 Z" id="形状" fill="#FCA159"></path>
                </g>
            </g>
        </g>
    </g>
</svg>