<?xml version="1.0" encoding="UTF-8"?>
<svg width="26px" height="26px" viewBox="0 0 26 26" version="1.1" xmlns="http://www.w3.org/2000/svg" xmlns:xlink="http://www.w3.org/1999/xlink">
    <title>编组 6</title>
    <g id="页面-1" stroke="none" stroke-width="1" fill="none" fill-rule="evenodd">
        <g id="待办---已处理" transform="translate(-21.000000, -422.000000)">
            <g id="编组-6" transform="translate(21.000000, 422.000000)">
                <rect id="矩形" fill="#31C198" opacity="0.126315162" x="0" y="0" width="26" height="26" rx="8"></rect>
                <g id="房屋维修" transform="translate(5.000000, 5.000000)" fill-rule="nonzero">
                    <rect id="矩形" fill="#000000" opacity="0" x="0" y="0" width="16" height="16"></rect>
                    <path d="M14.7078125,6.7609375 L12.9359375,5.1734375 C12.94375,5.125 12.9359375,5.075 12.9359375,5.0234375 L12.9359375,2.825 C12.9359375,2.31875 12.53125,1.909375 12.0328125,1.909375 C11.534375,1.909375 11.1296875,2.31875 11.1296875,2.825 L11.1296875,3.578125 L8.8015625,1.50625 C8.58035573,1.28064091 8.27768061,1.15351833 7.96171875,1.15351833 C7.64575689,1.15351833 7.34308177,1.28064091 7.121875,1.50625 L1.2875,6.615625 C0.8234375,7.0859375 0.8234375,7.775 1.2875,8.2453125 L2.890625,8.8890625 L2.890625,11.46875 L5.0671875,9.325 C5.046875,9.18125 5.0359375,9.15625 5.0359375,9.00625 C5.0359375,8.8 5.05625,8.6 5.0953125,8.4046875 C5.375,7 6.5859375,5.940625 8.059375,5.940625 C8.5609375,5.940625 9.08125,6.025 9.08125,6.025 L9.2078125,7.5 L9.496875,7.7890625 L10.971875,8.0375 C10.971875,8.0375 11.0140625,8.73125 11.0140625,8.8515625 C11.0140625,12.04375 7.775,11.953125 7.6453125,11.9375 L4.834375,14.7421875 L11.8515625,14.7421875 C12.490625,14.7421875 13.0078125,14.2171875 13.0078125,13.56875 L13.0078125,9.115625 L14.70625,8.390625 C15.171875,7.9203125 15.171875,7.23125 14.7078125,6.7609375 Z M2.346875,13.10625 C2.23125,13.278125 2.1640625,13.4859375 2.1640625,13.709375 C2.1640625,14.3078125 2.65,14.79375 3.2484375,14.79375 C3.459375,14.79375 3.65625,14.7328125 3.8234375,14.628125 L4.1671875,14.284375 L4.4421875,14.009375 L6.4421875,12.0125 L7.3203125,11.1359375 C7.321875,11.1359375 7.3234375,11.1359375 7.325,11.1375 C7.5234375,11.1953125 7.734375,11.2265625 7.9515625,11.2265625 C8.1828125,11.2265625 8.4046875,11.1921875 8.6140625,11.1265625 C9.53125,10.84375 10.1984375,9.9890625 10.1984375,8.9796875 C10.1984375,8.890625 10.19375,8.803125 10.1828125,8.7171875 L9.6609375,8.6125 L8.578125,9.69375 L7.3,8.4265625 L8.321875,7.3796875 L8.278125,6.7578125 C8.171875,6.7421875 8.0625,6.734375 7.9515625,6.734375 C6.8609375,6.734375 5.953125,7.5109375 5.7484375,8.540625 C5.7203125,8.6828125 5.7046875,8.8296875 5.7046875,8.98125 C5.7046875,9.153125 5.7234375,9.321875 5.7609375,9.4828125 C5.775,9.54375 5.790625,9.603125 5.809375,9.6609375 L5.5734375,9.896875 L4.3328125,11.1328125 L2.65,12.8046875 L2.346875,13.10625 L2.346875,13.10625 Z" id="形状" fill="#31C198"></path>
                </g>
            </g>
        </g>
    </g>
</svg>