<?xml version="1.0" encoding="UTF-8"?>
<svg width="20px" height="20px" viewBox="0 0 20 20" version="1.1" xmlns="http://www.w3.org/2000/svg" xmlns:xlink="http://www.w3.org/1999/xlink">
    <title>中国邮政储蓄银行</title>
    <g id="页面-1" stroke="none" stroke-width="1" fill="none" fill-rule="evenodd">
        <g id="主页-有图标" transform="translate(-24.000000, -1394.000000)" fill-rule="nonzero">
            <g id="中国邮政储蓄银行" transform="translate(24.000000, 1394.000000)">
                <rect id="矩形" fill="#000000" opacity="0" x="0" y="0" width="20" height="20"></rect>
                <path d="M11.53,0.769230762 L10.9507692,3.5023077 L6.3776923,3.5023077 L5.2176923,8.90307691 L1.06307691,8.90307691 L0.578461543,11.0938462 L0.483076914,11.6361538 L0,13.8307692 L4.18692309,13.8307692 L3.0276923,19.2307692 L13.0123077,19.2307692 L13.4953846,17.04 L14.1707692,13.83 L17.2307692,13.83 L17.6807692,11.6361538 L13.3669231,11.6361538 L12.9169231,13.83 L12.2069231,17.04 L4.76692309,17.04 L4.86384615,16.5292308 L11.4976923,16.5292308 L12.6576923,11.0938462 L17.7807692,11.0938462 L18.2623077,8.90307691 L11.8530769,8.90307691 L11.4023077,11.0938462 L10.6946154,14.3392308 L5.34846154,14.3392308 L5.44384615,13.83 L10.0176923,13.83 L10.4676923,11.6361538 L10.5961538,11.0938462 L11.0476923,8.90307691 L6.47384615,8.90307691 L6.60461539,8.39538461 L13.2353846,8.39538461 L13.8161538,5.69538461 L18.9392308,5.69538461 L19.42,3.50153846 L13.0123077,3.50153846 L12.5292308,5.69461539 L12.4338462,6.2023077 L7.05384615,6.2023077 L7.18307691,5.69461539 L11.7561538,5.69461539 L12.2061538,3.50153846 L12.3038462,2.96307691 L19.5192308,2.96307691 L20,0.769230762 L11.53,0.769230762 Z M9.31,11.0938462 L9.21076924,11.6361538 L5.89307691,11.6361538 L6.02307691,11.0938462 L9.31,11.0938462 L9.31,11.0938462 Z M4.76692309,11.0938462 L4.63692309,11.6361538 L1.74,11.6361538 L1.83692309,11.0938462 L4.7676923,11.0938462 L4.76692309,11.0938462 Z" id="形状" fill="#007E3E"></path>
            </g>
        </g>
    </g>
</svg>