<?xml version="1.0" encoding="UTF-8"?>
<svg width="20px" height="22px" viewBox="0 0 20 22" version="1.1" xmlns="http://www.w3.org/2000/svg" xmlns:xlink="http://www.w3.org/1999/xlink">
    <title>招商银行</title>
    <g id="页面-1" stroke="none" stroke-width="1" fill="none" fill-rule="evenodd">
        <g id="主页-有图标" transform="translate(-23.000000, -1169.000000)" fill-rule="nonzero">
            <g id="招商银行" transform="translate(23.000000, 1169.000000)">
                <rect id="矩形" fill="#000000" opacity="0" x="4.11922162e-06" y="0" width="19.9999402" height="21"></rect>
                <path d="M6.31230063,8.38375337 L3.45615533,15.3637325 L14.811506,15.3637325 L11.959976,8.35375346 L9.13383065,15.2714251 L6.31383908,8.38375337 L6.31230063,8.38375337 Z M17.4314981,13.6929683 L19.6984144,13.6929683 C19.6561069,13.8629677 19.6091839,14.0314288 19.5576456,14.1991206 L17.6338052,14.1991206 L17.4314981,13.6929683 Z M17.0499608,12.7429711 L19.8884139,12.7429711 C19.8637986,12.9122013 19.8337986,13.0798932 19.7999526,13.247585 L17.2522679,13.247585 L17.0499608,12.7429711 L17.0499608,12.7429711 Z M16.6676543,11.7929739 L19.9853367,11.7929739 C19.9761059,11.961435 19.9622598,12.129896 19.9468752,12.2975878 L16.8714998,12.2975878 L16.6676543,11.7929739 Z M16.286117,10.8414383 L19.9914905,10.8414383 C19.9976443,10.9775918 19.999952,11.1137452 19.999952,11.2506679 L19.999952,11.3468214 L16.4876548,11.3468214 L16.2853477,10.8414383 L16.286117,10.8414383 L16.286117,10.8414383 Z M15.9053489,9.8922104 L19.9084138,9.8922104 C19.9314907,10.0583638 19.9499521,10.2268248 19.9637983,10.3968243 L16.1076559,10.3968243 L15.9053489,9.89067195 L15.9053489,9.8922104 Z M15.5238115,8.94067479 L19.7314913,8.94067479 C19.7714911,9.10836659 19.8061064,9.27682763 19.8376448,9.44682712 L15.7253494,9.44682712 L15.5222731,8.94067479 L15.5238115,8.94067479 L15.5238115,8.94067479 Z M5.90076852e-06,11.2506679 C-0.00537277876,6.26760585 3.66692391,2.04223388 8.60767838,1.3483898 C13.5476636,0.653776486 18.2438034,3.70299815 19.6153378,8.49452227 L15.3453505,8.49452227 L12.8530503,2.2891562 L10.0584433,9.23144314 L7.20768256,2.35146371 L1.92308298,15.3629633 L4.07999961,18.3960311 L16.0122716,18.3960311 L18.0761116,15.301425 L17.8122662,14.6437346 L19.4084153,14.6437346 C17.7584207,19.2140248 13.0623347,21.9371836 8.27614091,21.0990999 C3.49011151,20.2647138 -0.00223893429,16.1088849 5.90076852e-06,11.2506679 Z" id="形状" fill="#C7162E"></path>
            </g>
        </g>
    </g>
</svg>