<?xml version="1.0" encoding="UTF-8"?>
<svg width="20px" height="20px" viewBox="0 0 20 20" version="1.1" xmlns="http://www.w3.org/2000/svg" xmlns:xlink="http://www.w3.org/1999/xlink">
    <title>中国银行</title>
    <g id="页面-1" stroke="none" stroke-width="1" fill="none" fill-rule="evenodd">
        <g id="主页-有图标" transform="translate(-23.000000, -1303.000000)" fill-rule="nonzero">
            <g id="中国银行" transform="translate(23.000000, 1303.000000)">
                <rect id="矩形" fill="#000000" opacity="0" x="0.000828782372" y="0" width="19.9994192" height="19.9994192"></rect>
                <path d="M19.9899991,9.56193439 C19.8530813,6.01668819 17.6654744,3.60985908 17.6654744,3.60985908 C14.2748376,-0.36460115 9.92193057,0.00999961196 9.92193057,0.00999961196 C5.26826611,-0.133840918 2.41299295,3.38986765 2.41299295,3.38986765 C0.455377064,5.7259303 0.236154856,7.87430797 0.236154856,7.87430797 C-0.633041973,11.4910899 1.17688736,14.6025068 1.17688736,14.6025068 C2.52760386,17.0539496 3.94447162,18.1862131 6.24592023,19.2638633 C8.55967605,20.3407443 12.0595394,20.1922886 14.2363775,19.0984852 C16.4132156,18.0046817 17.7477789,16.8008826 18.9615777,14.5140487 C20.169992,12.2333686 19.9899991,9.56193439 19.9899991,9.56193439 Z M8.98119807,17.7685371 C8.98119807,17.7685371 5.32749456,17.5646989 3.32064983,14.0417595 C3.32064983,14.0417595 1.58687137,11.5626255 2.30376645,8.46274653 C3.01989234,5.36286754 4.69905756,4.12599276 5.03212148,3.80754367 C5.3659546,3.49986336 7.51510146,2.21375974 8.98581329,2.23529735 L8.98581329,5.92361489 L7.43971979,5.92361489 C7.43971979,5.92361489 5.33364815,6.04976381 5.26288169,8.39121087 L5.26288169,11.7987701 C5.26288169,11.7987701 5.31749495,13.8933037 7.49356385,14.1348328 L8.98735168,14.1348328 L8.98735168,17.7685371 L8.98196726,17.7685371 L8.98119807,17.7685371 Z M7.72893928,11.9749171 C7.72893928,11.9749171 7.35664612,12.0687596 7.30203287,11.6395456 L7.30203287,8.37505765 C7.30203287,8.37505765 7.35664612,8.02891731 7.63586598,8.02891731 L12.1972264,8.02891731 C12.1972264,8.02891731 12.5849035,7.95738163 12.6233636,8.37505765 L12.6233636,11.5464723 C12.6233636,11.5464723 12.7156677,12.0464528 12.3495281,11.9749171 L7.72893928,11.9749171 L7.72893928,11.9749171 Z M16.5993622,14.3663622 C15.1224968,16.6247356 12.3172217,17.6639258 11.0095804,17.7739215 L11.0095804,14.1409864 L12.7433589,14.1409864 C12.7433589,14.1409864 14.5863639,13.7671548 14.7009748,11.8433838 L14.7009748,7.96815046 C14.7009748,7.96815046 14.4117553,6.01668819 12.3602969,5.92899931 L11.0095804,5.92899931 L11.0095804,2.24068175 C11.0095804,2.24068175 13.3125674,2.42221312 15.1824944,4.15368399 C17.0416526,5.87977044 17.5231723,7.59970331 17.7308565,8.52889779 C17.9385407,9.45732307 18.0754584,12.1018352 16.5993622,14.3663622 L16.5993622,14.3663622 Z" id="形状" fill="#B81C22"></path>
            </g>
        </g>
    </g>
</svg>