<?xml version="1.0" standalone="no"?><!DOCTYPE svg PUBLIC "-//W3C//DTD SVG 1.1//EN" "http://www.w3.org/Graphics/SVG/1.1/DTD/svg11.dtd"><svg class="icon" width="200px" height="59.71px" viewBox="0 0 3430 1024" version="1.1" xmlns="http://www.w3.org/2000/svg"><path d="M0 0h3430.4v1024H0z" fill="#D8D8D8" fill-opacity="0" /><path d="M502.016 79.2064c254.4128 0 460.1344 205.6192 460.8 460.288 0 254.6688-206.3872 461.312-460.8 461.312-254.464 0-460.8-206.6432-460.8-461.312s206.336-460.288 460.8-460.288z m-0.6656 37.8368a422.0928 422.0928 0 0 0-422.2976 422.4512c0 233.6256 189.5936 422.5024 422.912 422.5024 232.7552 0 422.3488-188.928 421.376-422.5024a421.632 421.632 0 0 0-421.9904-422.4512z m0.3072 26.9824c55.296 0 107.9808 10.8544 155.6992 31.8976 7.5776 4.3008 17.408 11.8784 17.408 22.7328 0 20.992-29.2352 16.7424-65.1264 45.3632a133.9392 133.9392 0 0 0-51.0464 104.6528v579.4304c-18.432 2.6112-37.4784 4.2496-56.9344 4.2496-17.7664 0-35.5328-1.28-52.6336-3.584l-4.3008-0.6656V350.6688c0-42.1376-16.7936-79.9744-50.3296-106.6496-36.864-28.6208-65.1776-24.32-65.1776-45.3632 0-11.8784 10.1888-18.432 17.408-22.7328a399.3088 399.3088 0 0 1 155.0336-31.8976zM674.816 251.904v640.9216a351.0784 351.0784 0 0 1-74.752 27.648l-3.584 1.024V361.472c0-38.8608 13.4656-66.4576 40.448-87.552 9.5744-7.2192 20.4288-13.1584 28.9792-17.408l8.9088-4.608z m-345.6 0l6.2464 3.2768 2.9696 1.6384c8.5504 4.3008 19.0976 10.24 28.3136 17.1008 26.3168 20.736 39.7824 48.0256 40.448 85.5552v561.9712a436.224 436.224 0 0 1-74.3936-26.624l-3.9424-1.9968V251.9552h0.3584z m-36.864-46.08v308.2752c-44.4416-0.9728-61.2352-27.648-66.1504-38.4512-4.3008-8.6016-6.6048-17.7664-14.1824-17.7664-12.4928 0-23.3472 37.8368-23.3472 83.8656v6.2464c0.9728 43.4688 11.52 77.9776 23.3472 77.9776 7.2704 0 9.8816-8.192 13.5168-16.128l0.6656-1.6384c4.9152-9.8304 21.3504-37.1712 64.512-38.5024h1.6384v301.4144a393.216 393.216 0 0 1-182.6816-332.6464 391.168 391.168 0 0 1 179.3536-330.3424l3.328-2.304z m420.3008-0.6656a392.9088 392.9088 0 0 1 181.7088 308.9408c-42.8032-1.6384-58.624-28.6208-63.5392-38.4512l-0.6656-1.6896c-3.584-7.8848-6.2464-16.0768-13.5168-16.0768-13.1584 0-23.3472 36.864-23.3472 82.2272v1.6384c0 46.08 10.24 83.9168 23.3472 83.9168 7.2704 0 9.8816-8.5504 13.824-16.7936l1.024-1.6384 0.6656-1.3312c6.2464-11.1616 22.6816-34.2016 61.5424-37.1712-9.216 125.696-78.336 234.5984-178.0736 299.4176l-2.9696 1.9968V205.2096z" fill="#D7000F" /><path d="M1251.7376 130.4576h1.9968c19.2 1.28 44.3904 7.3728 64.256 33.5872a11.776 11.776 0 0 1 3.328 7.3216c0 1.5872-1.6384 4.8128-3.328 8.3456a37.5808 37.5808 0 0 0-3.2768 5.7344l-0.3584 1.28c-1.9968 5.4272-6.656 22.016-9.5744 80.5376l17.2032-2.2528c68.2496-8.6016 93.1328-13.7216 98.4064-15.6672l1.024-0.3072c1.3312-0.6656 10.24-4.4544 13.9264-4.8128h0.3072l4.3008 1.024c34.816 13.6704 59.3408 28.0576 73.5744 44.6976l1.024 1.28c0.6656 0.9728 4.9664 6.656 3.9424 9.5744-0.6656 3.2256-2.304 6.4-10.9056 14.08l-1.024 0.6144-6.656 5.7856-0.3072 0.6144c-6.2976 8.6528-21.504 43.776-50.3296 90.112 6.6048 9.9328 10.24 16.3328 12.544 21.4016l0.6656 1.6384c3.9936 8.6016 6.656 16.5888 0 21.4016-5.9392 4.096-26.112-0.6656-49.3568-0.9728h-4.9664c-19.5584 0-60.0064 0.9728-109.3632 4.1472 0.6656 10.5472 0.6656 21.76 1.024 33.8944v11.1616l-1.024 37.7344-0.3072 7.3216c-1.6896 31.0272-3.328 35.1744-5.632 56.576l-0.3584 3.5328c-4.9664 37.9904-10.5984 45.056-15.5648 53.0432-3.328 4.7616-7.6288 9.8816-10.9568 9.8816-2.6112 0.9728-4.9664-2.56-6.656-8.2944l-0.6144-2.56c-3.328-12.8-13.568-47.3088-11.264-197.1712l-3.6352 0.3072c-20.224 1.9456-74.24 6.4-86.1696 7.0656-4.9664 17.92-11.9296 25.2416-16.896 27.8016-6.9632 3.4816-11.264 0.9216-15.2576-2.2528l-2.6624-2.2528c-3.6352-3.1744-13.568-17.2544-19.8656-54.6304-9.2672-71.2704-31.488-137.4208-31.488-137.4208-3.9936-8.6016-7.2704-13.4144-5.9904-18.8416l0.3584-0.6656c2.6624-10.5472 29.7984-13.1072 70.2464 1.6384h0.6656c9.6256-1.28 100.096-8.96 114.688-10.5472v-12.8c0-11.2128-0.3584-24.9344-0.6656-38.0416l-0.3584-3.1744c-3.9936-43.776-9.6256-52.736-11.264-59.136l-0.3072-0.6144c-3.328-12.1856-7.68-17.92-7.68-22.0672v-1.5872c-1.28-4.1472 0.7168-7.68 20.5824-7.0656z m-1.6384 179.3024l-3.6864 0.6144c-21.8624 2.9184-85.504 10.24-99.072 10.9056V322.56c1.6896 16.896 4.9664 94.8736 6.656 109.2608l4.608-0.3072c20.5824-1.9456 77.2096-6.0928 89.4976-7.68V417.792c0.6656-23.6544 1.9968-93.3376 1.9968-108.032z m53.3504-6.4v5.7344c-0.3584 23.6544-2.3552 94.9248-2.3552 109.6192l9.984-1.28c59.9552-7.3216 78.4896-11.776 81.8176-13.4144 4.3008-4.7616 11.9296-41.8816 18.5856-69.632l0.6656-2.9184c1.9456-12.1344 2.9696-19.456 2.9696-24.9344 0-3.1744-1.024-5.7344-1.024-6.3488h-0.6656c-6.6048-1.9456-35.1232-4.1984-109.9776 3.1744z m1345.4336-127.8464c30.7712 4.1984 50.0224 15.0528 65.9456 30.0544l0.9728 0.9728 2.6624 4.7616c0 5.7856-5.9904 12.1856-10.9568 22.0672-4.608 8.6528-10.9056 15.6672-13.9264 23.9616l-0.6656 2.56c-0.9728 3.2256-2.6112 10.24-4.608 21.0944l-2.3552 11.2128c-4.9664 23.6032-9.216 43.776-13.8752 59.0848a101.9904 101.9904 0 0 1-16.896 30.3616c-3.328 4.8128-11.264 11.8272-17.2544 9.2672l-0.6656-0.3072c-1.6384-0.9728-7.6288-3.1744-10.24-5.7344h-0.7168c-6.2976 0.9216-45.056 3.1744-59.648 6.3488l-7.936 1.9456c-1.6384 0.3072-3.6352 0.9728-5.632 1.28l-1.3312 0.3072c2.9696 2.8672 6.2976 5.7344 10.24 8.96l5.0176 4.1472c12.5952 10.5472 56.9856 47.616 66.2528 54.016l2.3552-2.8672c28.16-36.1472 35.7888-54.9888 35.7888-57.856l1.024-14.08v-0.6144c-0.3584-1.9456-1.3824-2.2528 4.2496-6.0928 5.9904-4.096 22.2208-1.536 38.144 8.3456 8.6016 6.656 21.1968 18.8416 20.1728 27.8016 0 7.3216-7.5776 5.7344-14.5408 12.1344-7.68 6.656-16.2816 13.1072-22.8864 18.8416-10.24 8.96-22.8864 16.2816-40.7552 29.3888l17.2032 12.1344c34.1504 24.0128 56.0128 37.7344 106.0864 47.616l2.9696 0.6656c16.2304 3.5328 27.136 4.4544 29.4912 9.216 2.6624 5.7856-12.5952 14.7456-24.5248 23.04-72.2432 30.3616-90.7776 23.6544-119.6544-5.7344-28.16-27.8016-60.928-64.8704-84.1728-89.4976l-4.608-4.7616c-12.288-12.8-26.1632-27.4944-41.1136-42.8544v13.1072c0 35.1744-0.6656 96.2048-0.6656 117.6064v1.9456l7.68-3.2256c58.9312-23.9616 71.5264-24.576 72.8576-19.8144 1.6384 5.7856-12.5952 19.8144-45.7216 55.6032l-2.6624 2.8672c-19.5584 20.7872-37.4272 37.0688-44.032 45.7216l-2.3552 2.2528-1.3312 1.536c-9.2672 9.3184-18.8928 17.92-27.8528 16.0256-10.5984-3.2256-21.1968-36.096-24.1664-50.8416l-1.3312-7.3216c-1.024-4.8128 1.024-1.28 10.5984-11.2128l0.6656-0.9216c12.5952-14.08 12.5952-18.8928 15.2576-52.4288l-2.6624-235.2128-0.3072-3.4816c-3.328-33.28-8.2944-46.08-12.288-55.296-2.6624-7.3728-12.5952-23.6544-4.3008-29.3888 7.6288-4.1472 25.4976-4.1472 46.7456 4.096l3.584-1.2288c58.0096-21.76 101.7856-28.16 104.0896-29.696l2.6624-2.56c5.632-3.84 7.6288-7.68 11.264-8.96h0.6656l3.9936-0.3584z m-296.96-26.8288c8.6528 0.9728 27.1872 6.7072 43.4176 17.2544 11.9296 8.2944 19.5584 17.92 19.5584 23.6544 0 5.7344-4.3008 8.2944-9.2672 14.6944l-0.3584 0.3072c-3.2768 2.9184-9.5744 12.8-24.832 45.4144-1.6384 4.7616-4.3008 8.9088-5.9904 13.1072 1.024-1.024 1.6896-1.024 3.328-1.6384l10.24-3.84c16.896-6.0416 28.8768-9.5744 43.1104-11.1616 10.24-0.9728 19.5584 4.8128 27.136 12.1344 8.3456 7.0656 11.008 15.6672 9.6768 19.2v0.3072c-2.3552 6.4-13.6192 7.9872-22.2208 10.5472l-11.9296 3.5328c-53.0432 15.0016-68.608 16.2816-81.2032 13.056-9.2672 17.92-20.224 35.1744-29.7984 48.2816l2.304-0.6656c12.288-3.7888 26.5216-8.9088 48.6912-15.9744l4.6592-1.28c2.6624-0.6144 17.92-5.12 29.184-8.9088 18.5344-5.7856 28.8256 1.536 35.7888 8.2944l1.6384 1.5872c6.656 6.7072 10.24 11.2128 8.6016 16.64-2.304 6.4-12.9024 8.9088-18.8928 11.776l-0.6656 0.3584s-31.4368 12.1344-49.3568 16.2816l0.6656 0.3072c2.6624 1.28 10.24 6.4 6.9632 16.0256-1.6384 3.1744-2.6624 16.2816-4.3008 21.4016-2.3552 3.84-1.6896 5.4272-1.6896 7.0144v0.3072l12.5952-4.096 11.9296-4.5056c0.6656-0.3072 1.024-0.3072 1.6896-0.6656l1.024-0.6144c1.9456-0.9728 4.608-1.9456 6.6048-2.56l2.6112-0.6656a30.1056 30.1056 0 0 1 29.8496 6.7072c9.9328 8.6528 15.872 18.2272 15.2576 22.7328v0.3072c-0.6656 7.0144-9.6256 6.656-14.9504 7.9872l-25.1904 7.9872c-7.2704 2.2528-15.5648 4.8128-24.1664 7.3216l-8.96 2.56s-4.3008 1.024-8.6016 2.56v8.3456a3773.44 3773.44 0 0 1-1.6384 60.416l13.8752-6.144c57.7024-24.576 68.608-27.136 70.2976-22.6304 0.9728 4.096-3.328 7.3216-15.2576 14.0288l-1.6896 1.9456a451.1744 451.1744 0 0 1-31.4368 30.0032l-26.2144 24.32c-8.6016 7.9872-16.5376 15.0016-22.1696 20.1216-5.9904 5.7344-13.6192 12.1344-21.248 20.48l-1.6384 1.536c-10.5984 11.264-20.224 18.5856-29.184 14.7456l-0.6144-0.3584c-1.024-0.9216-3.6864-3.4816-6.2976-7.68-7.68-11.4688-12.5952-36.7104-13.6192-42.496 0-5.7344 1.6896-7.3216 1.6896-7.3216 1.6384-3.1744 6.6048-6.7072 14.5408-11.52 8.6528-5.7344 14.592-16.2816 18.5856-37.6832v-0.6656c0-2.56 1.024-9.216 1.024-9.216l0.3072-3.584c0.6656-9.5744 1.3312-22.3232 1.3312-32.256-6.2976 2.2528-17.92 4.5056-24.2176 7.0656l-1.024 0.3072c-5.632 2.2016-24.1664 7.0144-31.4368 7.9872h-0.6656c-9.2672 1.5872-20.224-5.7856-27.136-12.1344-10.3424-9.9328-13.6192-17.2544-12.6464-20.48 1.6896-6.656 14.592-6.656 23.8592-8.96l7.3216-1.28c25.8048-5.12 48.0256-10.5472 67.584-15.616 0-11.52-0.6656-26.5216-1.6384-33.28l-0.6656-6.0416a109.2096 109.2096 0 0 0-2.6624-14.08l-2.304 0.3584a70.4512 70.4512 0 0 1-17.2544 1.2288c-7.6288-1.536-11.9296-4.096-14.592-7.3216-26.1632 27.136-46.6944 37.6832-62.976 46.6432-10.24 5.7856-29.7984 11.52-35.7888 11.52-12.5952 0.9728 6.656-13.1072 16.2816-24.576 49.3568-56.576 88.1152-114.7392 111.9744-191.7952l1.024-2.8672c4.3008-13.7216 5.9392-22.016 7.6288-40.2432 0.9728-13.1072-1.024-29.3888 4.3008-32.9216 1.6384-0.9728 5.9392-1.9456 10.24-0.9728z m281.0368 154.0608l-0.6656 0.6144c-1.3312 1.5872-1.6384 1.8944-5.3248 3.1744-4.3008 2.56-71.2192 9.6256-91.7504 16.3328l-0.6656 0.3072v37.7344c14.5408-4.8128 55.9616-11.52 63.5904-12.1856 11.9296-0.9216 18.5856 1.024 26.2144 1.6384 3.2768-17.2544 5.9392-32.9216 8.6016-47.616z m7.6288-72.2432h-1.6896c-10.9056 0.3072-59.2896 3.1744-103.68 19.1488l-1.6896 0.6656v34.5088c0-0.6144 0.6656-0.9728 0.6656-0.9728 20.224-0.9216 73.8816-19.8144 73.8816-19.8144 10.2912 0.6656 17.92 7.3728 24.2176 13.4144l3.6352 3.584 2.6624-17.3056c1.6384-12.4416 1.6384-20.48 1.6384-25.856l0.3584-7.3728zM3395.072 309.4528l3.0208 1.8944c18.2272 12.1344 27.4944 27.8016 19.2 39.6288-4.9664 7.68-25.856 8.2944-35.1232 8.2944h-1.3312c-8.2944-0.6144-25.1904 0.6656-43.4176 0.9728h-1.6384c-27.136 0-51.0464 1.5872-78.848 4.8128a42.5472 42.5472 0 0 1 14.5408 18.8416 24.7296 24.7296 0 0 1-1.6384 21.4016l-1.3312 5.7344a99.1744 99.1744 0 0 0-2.9696 19.5072v37.7344c0 12.1344 0.3072 30.976 1.6384 54.272 1.6384 23.04 10.24 51.8144 8.6016 70.656-1.6384 12.1344-6.656 23.6544-14.5408 33.5872-10.9568 15.616-28.16 27.136-40.8064 31.9488-13.568 4.7616-16.896-8.96-25.4976-23.6544-8.6016-14.6944-15.2576-22.016-26.1632-36.096l-1.6896-2.2528c-13.8752-16.9472-29.7984-31.6416-31.488-37.0688-3.2768-12.1344 26.2144 3.1744 54.3744 9.8816l4.608 0.9728c8.96 1.8944 13.6192 3.1744 16.5888 3.1744l0.3584-0.9216c2.304-6.4 5.2736-22.6816 5.632-67.7888v-18.176l-0.3584-7.9872c-1.6384-48.2816-5.2736-84.0704-11.5712-105.1648l-14.592 2.2528c-36.4544 5.7344-45.4144 7.9872-50.688 10.24l-1.6896 0.6144-1.6384 0.9728-9.2672 2.2528c-6.656 1.536-12.288 2.56-17.2544 2.8672h-2.9696a88.064 88.064 0 0 1-37.7856-14.08l-1.024-0.6144c-4.9152-3.2256-10.9056-10.5472-8.6016-17.2544 2.6624-5.7856 14.592-6.7584 27.1872-8.3456l9.9328-1.5872c105.0624-17.5616 175.0016-34.5088 190.5664-39.3216l1.6384-0.6144c13.312-4.1472 39.1168-9.2672 44.0832-10.24 25.856-6.4 48.384 0 61.952 8.6528z m-372.48-42.1888c5.9904 2.56 26.5216 18.2272 36.8128 41.216l0.6656 1.28s2.6624 3.1744 0 7.3216l-0.6656 1.024a36.7616 36.7616 0 0 1-8.96 10.496c-7.6288 5.7344-16.896 14.08-26.1632 24.576-10.9568 13.1584-20.224 22.0672-27.1872 28.7744l2.304 2.9184c11.264 14.6944 17.2544 24.2688 17.2544 38.9632 0 4.8128-1.6384 13.1072-2.6624 21.4016-0.6656 7.3728-1.024 17.2544-1.024 23.3472v27.4944c0.3584 41.216 0.7168 60.416 0 85.2992 0 29.3888-8.6016 59.136-15.2064 60.7232-6.656 1.5872-12.5952-4.1472-18.5344-9.8816a209.5104 209.5104 0 0 1-18.5856-27.8016 52.224 52.224 0 0 1-6.656-23.6544c0-3.2256 1.6896-6.7072 2.6624-9.9328 1.024-0.9216 2.6624-6.656 4.9664-14.0288 10.9568-32 7.68-73.8304 7.68-109.9264 0-10.5472-1.024-21.4528-1.6896-32.9216l-4.9664 5.12c-29.4912 29.3888-35.1232 29.0304-55.3472 37.376-26.1632 11.4688-62.976 18.8416-67.9424 15.6672-6.656-4.1984 12.288-14.3872 34.4576-31.3344l1.024-0.6656c41.728-30.976 50.9952-45.9776 85.8112-85.2992l2.304-2.8672c32.8192-43.1616 36.1472-65.8432 36.1472-65.8432 1.6384-5.7344 5.9392-15.6672 11.9296-18.8416 5.632-3.84 11.5712-1.5872 11.5712 0z m1.6896-132.608l1.3312 0.3072c11.9296 2.8672 30.8224 10.5472 48.6912 36.7616l0.3584 0.9216a22.016 22.016 0 0 1 0.6656 6.7072v0.3584c-1.024 3.1744 0 13.056-15.2576 23.6032-14.592 9.9328-26.2144 21.4528-37.4784 31.0272l-6.9632 6.4c-39.424 35.4816-61.952 52.736-77.2096 59.7504l-0.6656 0.3072c-22.8352 10.5472-58.624 19.8144-61.952 14.6944-3.328-4.7616 25.5488-26.2144 38.0928-36.7616l6.2976-6.0416c16.2816-15.9744 48.0768-47.9232 70.9632-78.9504l4.3008-6.656c9.9328-15.7184 11.9296-20.48 10.9056-26.2656-1.6384-9.8816 1.024-21.4016 4.3008-23.6544 2.3552-2.56 7.68-4.096 13.6192-2.56z m288.6144 59.7504l3.6352 2.8672c6.656 5.4272 17.2544 14.6944 15.9232 20.7872-1.024 4.096-5.9392 6.656-5.9392 6.656-9.3184 7.3728-132.608 36.7616-157.0816 41.8816-36.4544 8.3456-54.3744-3.1744-61.952-8.2944l-1.3824-0.9728c-6.2976-4.7616-12.2368-10.24-11.264-16.896 0-6.7584 15.2576-8.3456 31.488-11.52l4.9664-1.28c35.84-8.96 84.1728-23.6544 99.1232-29.3888l1.28-0.6656h1.024l2.9696-1.28c13.6192-5.7344 21.1968-7.9872 26.8288-9.5744l1.024-0.3072c6.9632-1.28 30.8224-4.5056 49.3568 7.9872zM2022.5536 481.3824l2.6624 0.9216c46.6944 17.2544 71.2192 40.2944 69.5808 49.2544-1.6896 8.9088-12.5952 15.616-20.224 24.576l-1.6384 1.9456c-5.9904 6.3488-6.2976 8.9088-21.9136 30.6688l2.048 2.8672c5.9392 9.5744 10.5472 18.8416 9.216 23.3472l-0.3072 0.9216c-1.9968 6.7072-8.96 9.2672-50.0224 11.52l-3.9936 0.3072c-23.8592 1.5872-83.5072 4.1472-125.952 7.9872-5.9392 9.9328-6.6048 15.6672-10.24 18.8928-3.328 3.1744-6.2976 5.4272-10.24 5.12h-0.7168l-4.9664-2.56c-7.6288-6.7584-13.568-17.3056-17.92-36.1472l-4.9152-19.456c-10.6496-41.2672-14.9504-55.6544-17.2544-62.3616l-1.6384-4.096-4.352-9.0112c-1.6384-3.7888-6.6048-9.5744-0.6144-15.616l0.6144-0.6656h1.024c3.328-3.1744 12.5952-4.1472 35.7888-0.9728l1.9968 0.3584c6.9632 0.6144 9.9328 1.28 11.5712 1.28l3.328-0.3584c53.0432-2.8672 136.8576-20.48 136.8576-20.48l6.9632-2.5088c8.2944-2.8672 12.5952-4.8128 15.2576-5.4272v-0.3072z m-294.912-317.952c33.1264 8.2944 56.9856 23.6032 63.5904 49.8176a23.04 23.04 0 0 1 1.024 4.8128v0.9216c-0.7168 4.1472-2.048 5.4272-9.984 16.3328-9.2672 12.1344-17.92 24.576-27.136 36.7104l-5.632 8.3456c-5.3248 7.68-11.6224 17.2544-20.224 28.416l-1.3312 1.5872s-1.024 1.024-1.024 1.6384c13.9264 14.336 20.8896 27.136 21.248 38.9632v1.8944l-1.024 8.96v2.2528c-1.024 6.7072-2.304 44.7488-4.608 204.8l-0.3584 15.7184v0.9216c-1.6384 28.7744-7.6288 40.6016-12.5952 48.64l-1.024 1.536c-1.28 1.9456-8.9088 12.8-14.2336 11.2128-7.5776-1.5872-29.184-27.8016-32.1024-61.3888v-2.56l1.6384-7.3216c8.6016-31.9488 14.592-67.072 16.2304-98.0992l0.3584-4.5056c0.6656-7.68 1.28-15.9744 1.28-25.2416v-11.776c0-9.9328 0-20.48-0.9728-30.4128 0-19.456-1.6384-36.7104-3.328-51.456l-3.584 4.1984c-32.2048 37.376-56.7296 58.4704-79.5648 73.472-31.488 19.456-54.3744 23.04-56.0128 19.456-3.328-3.1744 3.6352-7.936 8.96-12.7488l6.9632-6.4c3.2768-3.1744 7.2704-7.0144 14.5408-15.0016l5.3248-6.0928c32.1536-35.1232 64.6144-82.7392 84.8384-116.2752 22.8352-36.7616 39.7824-87.552 40.7552-94.9248 1.6384-6.4 1.024-13.1072 1.024-13.1072l-0.3584-3.2256c-0.6656-7.68-1.3312-10.8544-1.3312-13.056-0.6656-8.6528 8.6016-7.0656 8.6016-7.0656z m171.3152 378.9824l-8.2944 1.5872a127.3856 127.3856 0 0 1-14.2848 1.8944l2.6624 18.2272c1.9968 12.8 3.9936 28.16 4.9664 35.84l3.6352-0.3584c39.1168-4.8128 95.488-8.6528 112.0256-11.1616 6.656-14.08 7.6288-33.5872 11.9296-54.9888h-1.3312c-10.5984-0.6144-56.6784 0-111.3088 8.96z m145.7664-120.4736l1.3312 1.28 2.6624 2.8672c4.608 5.12 9.2672 11.52 9.2672 17.5616 0 7.0144-5.9392 7.3728-14.5408 8.6528l-1.6896 0.3072-7.6288 1.5872c-24.1664 5.4272-104.0384 11.8272-152.7296 16.64l-6.9632 0.6144h-1.024c-15.5648 0.6656-22.528-0.6144-32.768-6.7072l-1.024-0.6144-1.6384-1.6384c-3.0208-2.8672-6.9632-6.0416-8.96-9.5744l-0.3584-0.9728a15.3088 15.3088 0 0 1-1.6384-5.7344c1.024-8.2944 11.9296-6.7072 28.16-8.96h0.6656c2.6624-0.3072 11.264-1.536 40.0896-8.9088l4.9664-1.28a758.9376 758.9376 0 0 1 107.0592-16.0256c20.8896-3.4816 30.1568 4.1984 36.7616 10.9056z m-34.0992-84.992c17.92 0 29.7984 8.2944 38.0928 17.2032 6.656 7.3728 12.5952 17.92 8.6016 22.0672-4.9664 4.8128-16.2304 4.1472-27.4944 6.4l-1.6384 0.3072-19.5584 2.56-4.9664 0.6656a2412.032 2412.032 0 0 1-130.9184 13.1072c-27.136 0.9216-40.7552-12.1856-40.7552-12.1856-6.656-6.656-9.2672-14.6944-7.6288-17.2544 3.328-4.7616 16.2304-6.656 22.2208-7.3216h1.9968c16.2304-0.9728 49.3568-5.12 76.8512-12.1344l3.0208-0.6656c28.16-6.4 70.5536-11.776 82.176-12.8z m112.64-66.2016c6.656 6.7072 14.592 17.2544 10.2912 25.2416-5.632 10.24-17.2544 9.2672-25.856 8.96h-2.6624c-9.216-0.3072-29.184-2.56-29.184-2.56h-5.9392c-84.1728-1.8944-117.6064 2.8672-169.3184 13.4144l-23.1936 4.8128s-22.8864 2.56-33.1264 5.7344c-9.6256 2.2528-17.2544 5.4784-30.5152 7.0656l-1.9968 0.3072h-3.2768c-19.5584-4.8128-44.0832-26.2144-44.0832-26.2144-8.6528-8.2944-2.6624-12.1344 1.024-15.6672 2.56-2.56 11.8784-3.1744 23.808-4.096l9.6256-1.024a2640.384 2640.384 0 0 0 219.6992-31.2832l17.92-3.84c5.2736-0.9728 8.6016-1.5872 16.896-2.8672l4.3008-0.6656c27.4944-3.4816 56.32 13.4144 65.5872 22.6816z m-198.8096-107.3664c18.5344 1.5872 32.1536 5.7856 39.7824 12.1344 12.288 9.6256 19.2 21.4528 20.1728 34.56v2.2016c0 23.3472-12.288 30.72-19.8656 32.6144h-6.2976c-33.4848-16.64-54.3232-34.5088-78.848-63.2832l-3.6864-4.1472c-0.9728-1.28-3.584-5.7344 5.3248-8.6528l2.9696-0.6144a217.088 217.088 0 0 1 40.448-4.8128z m-751.616 580.6592c8.2944 0 17.6128 1.5872 26.2144 4.1472 4.3008 1.024 12.5952 4.1472 13.568 4.1472 1.6896 0 2.6624-0.9216 4.3008-1.536a10.496 10.496 0 0 0 4.352-4.8128v-1.024h9.216v1.6384l1.6896 45.056v1.5872h-9.9328v-0.9216a49.152 49.152 0 0 0-16.896-26.2144 40.2944 40.2944 0 0 0-26.8288-8.96 45.568 45.568 0 0 0-37.12 17.2544c-9.3184 11.52-14.2848 26.8288-14.2848 46.6432 0 18.8928 4.3008 33.5872 14.2848 45.056a48.8448 48.8448 0 0 0 38.7584 17.3056c9.2672 0 17.5616-2.56 25.1904-6.4 7.6288-4.8128 15.2576-11.52 21.8624-21.4016l1.024-1.024 0.9728 1.024 9.2672 4.7616 1.024 0.9728-1.024 0.9728a69.632 69.632 0 0 1-26.1632 26.8288 77.3632 77.3632 0 0 1-37.12 8.96c-9.9328 0-19.2512-1.024-27.8528-4.1984a68.096 68.096 0 0 1-22.8352-13.056 72.2432 72.2432 0 0 1-20.224-25.2416c-4.3008-9.9328-6.656-20.48-6.656-32 0-8.9088 1.024-17.92 4.3008-26.8288 3.328-8.2944 7.68-16.2816 13.6192-23.6544a82.944 82.944 0 0 1 26.1632-21.4016c9.2672-5.12 20.224-7.68 31.1808-7.68z m398.336 3.5328l1.024 0.9728 85.504 103.8336v-77.6704c0-5.7344-1.6896-9.8816-4.3008-12.1344-2.6624-2.56-6.656-4.096-13.312-4.096h-1.6384v-10.5984h53.7088v9.9328h-1.6896c-6.6048 0-10.9056 1.536-13.2096 4.096a16.9984 16.9984 0 0 0-4.352 12.1856v124.3136h-10.9056l-1.024-0.9728-97.7408-118.528v90.7264c0 4.8128 1.6384 8.96 4.3008 11.52 2.6624 2.56 6.656 3.1744 12.5952 3.1744h3.328v10.5472h-54.3744v-10.5472h2.6624c5.9904 0 9.9328-0.9216 12.5952-3.1744 2.6624-1.5872 4.3008-5.7856 4.3008-11.52v-103.8336a11.776 11.776 0 0 0-6.656-4.8128 18.944 18.944 0 0 0-9.8816-2.56h-1.6896v-10.5472h40.7552v-0.3072z m-248.832 0v10.5472h-1.6896c-6.9632 0-11.9296 0.9728-14.592 3.1744-2.6112 1.5872-4.3008 5.7856-4.3008 10.5472v38.4h73.5744v-38.4c0-4.7616-1.6384-8.2944-4.3008-10.5472a29.2864 29.2864 0 0 0-14.592-3.1744h-1.6384V747.52h64.9216v10.5472h-1.6384c-6.9632 0-11.264 0.9728-13.568 3.1744-1.6896 1.5872-3.328 5.7856-3.328 10.5472v97.792c0 4.8128 1.024 8.2944 3.328 10.5472a25.9072 25.9072 0 0 0 13.568 3.2256h1.6384v10.496h-64.9216v-10.496h1.6384c6.9632 0 11.9296-1.024 14.592-3.2256 3.328-2.56 4.3008-6.4 4.3008-11.52v-44.6976h-73.5744v44.6976c0 5.7856 1.6896 8.96 4.3008 11.52a29.2864 29.2864 0 0 0 14.592 3.2256h1.6896v10.496h-65.6384v-10.496h1.6384c6.9632 0 11.264-1.024 13.6192-3.2256 2.6624-1.5872 3.328-5.7344 3.328-10.5472v-97.792c0-4.7616-1.024-8.2944-3.328-10.5472a27.8528 27.8528 0 0 0-13.6192-3.1744h-1.6384V747.52h65.6384z m184.2176 0v9.8816h-1.6384c-6.656 0-11.6224 1.024-14.2336 3.2256-2.6624 1.5872-4.352 5.7344-4.352 10.5472v97.792c0 5.7344 1.6896 9.8816 4.352 11.4688a28.7744 28.7744 0 0 0 14.2336 3.2256h1.6384v10.5472H1441.28v-10.5472h1.6896c6.6048 0 11.5712-0.9728 14.2336-3.2256 2.6624-1.536 4.3008-4.7616 4.3008-10.5472v-97.792c0-4.7616-1.6384-8.2944-4.3008-10.5472a28.7744 28.7744 0 0 0-14.2336-3.1744h-1.6896v-10.5472h65.28v-0.3072z m285.3376 0v0.9728l55.6544 118.528a31.232 31.232 0 0 0 9.3184 13.1072 26.8288 26.8288 0 0 0 13.2096 3.84h3.0208v10.5472H1803.776v-10.5472h1.6384c5.9904 0 10.2912-0.9728 12.5952-2.56 2.6624-1.5872 3.328-4.1472 3.328-6.4a27.7504 27.7504 0 0 0-2.6624-9.5744l-7.936-16.64-0.6656-0.9216h-60.0064l-7.5776 17.92a23.8592 23.8592 0 0 0-2.6624 8.9088c0 2.56 1.024 4.1472 2.6624 5.7344 1.6384 1.6384 5.2736 3.2256 11.5712 3.84h2.6624v9.5744h-54.6816v-10.496h1.6384a15.872 15.872 0 0 0 10.9568-4.1984 44.3392 44.3392 0 0 0 7.936-11.1616l0.6656-0.9728 57.344-118.528v-1.024h11.264z m-13.9264 34.816l-24.832 48.896h47.0528l-22.2208-48.896z m275.712-38.3488c8.2944 0 17.5616 1.5872 26.1632 4.1472 4.352 1.6384 12.5952 4.1472 13.6192 4.1472 1.6384 0 2.6624-0.9216 4.3008-1.536 1.6384-1.6384 3.328-2.56 4.3008-4.8128v-1.024h9.2672v1.6384l1.6896 45.056v1.5872h-9.9328v-0.9216a49.152 49.152 0 0 0-16.896-26.2144 40.2944 40.2944 0 0 0-26.88-8.96 45.568 45.568 0 0 0-37.12 17.2544c-9.2672 11.52-14.2336 26.8288-14.2336 46.6432 0 18.8928 4.9664 33.5872 15.2576 45.056 10.24 11.52 22.8352 17.3056 38.7584 17.3056 9.2672 0 17.5616-2.56 25.1904-6.4 7.6288-4.8128 15.2576-11.52 21.8624-21.4016l1.024-1.024h1.6384l7.6288 5.7856 1.024 0.9728-1.024 0.9728c-6.656 12.1344-15.9232 21.4016-26.2144 26.8288a74.5984 74.5984 0 0 1-37.12 8.96c-9.9328 0-19.2-1.024-27.8016-4.1984a68.096 68.096 0 0 1-22.8864-13.056 66.9696 66.9696 0 0 1-20.224-25.2416c-4.3008-9.9328-6.656-20.48-6.656-32 0-8.9088 1.024-17.92 4.352-26.8288 3.328-8.2944 7.6288-16.2816 13.568-23.6544a82.944 82.944 0 0 1 26.2144-21.4016c9.2672-5.12 20.224-7.68 31.1296-7.68z m489.472 0c8.2944 0 17.5616 1.5872 26.1632 4.1472 3.328 1.024 12.5952 4.1472 13.6192 4.1472 1.6384 0 2.6112-0.9216 4.3008-1.536 1.6384-1.024 2.6112-2.56 4.3008-4.8128v-1.024h8.2944v1.6384l1.6384 45.056v1.5872h-9.9328v-0.9216a49.152 49.152 0 0 0-16.896-26.2144 40.2944 40.2944 0 0 0-26.88-8.96 45.568 45.568 0 0 0-37.0688 17.2544c-9.3184 11.52-14.2848 26.8288-14.2848 46.6432 0 18.8928 4.9664 33.5872 15.2576 45.056 10.24 11.52 22.8864 17.3056 38.7584 17.3056 9.2672 0 17.5616-2.56 25.1904-6.4 7.6288-4.8128 15.2576-11.52 21.8624-21.4016l1.024-1.024 10.9056 6.4512-1.024 0.9216a69.632 69.632 0 0 1-26.112 26.88 74.5984 74.5984 0 0 1-37.12 8.9088c-9.9328 0-19.2512-0.9216-27.8528-4.096a67.84 67.84 0 0 1-23.552-13.1584 71.0144 71.0144 0 0 1-19.2-25.2416 83.6608 83.6608 0 0 1-2.304-58.7776c3.2768-8.2944 7.6288-16.3328 13.568-23.6544a82.944 82.944 0 0 1 26.1632-21.4016 68.608 68.608 0 0 1 31.1808-7.3728z m-336.6912 3.5328v9.8816h-1.6384c-6.656 0-11.6224 1.024-14.2848 3.2256-2.6624 1.5872-4.3008 5.7344-4.3008 10.5472v97.792c0 5.7344 1.6384 8.9088 4.3008 11.4688a28.7744 28.7744 0 0 0 14.2848 3.2256h1.6384v10.5472H2141.184v-10.5472h1.6384c6.656 0 11.6224-0.9728 14.2848-3.2256 2.6112-1.536 4.3008-5.7344 4.3008-10.5472v-97.792c0-4.7616-1.6896-8.2944-4.3008-10.5472a28.7744 28.7744 0 0 0-14.2848-3.1744h-1.6384v-10.5472h65.28v-0.3072z m151.4496 0v1.5872l1.024 34.816v1.6384h-10.2912v-1.024c-1.6896-8.9088-5.0176-15.3088-9.3184-18.4832-4.3008-3.2256-11.9296-4.8128-22.1696-4.8128h-13.9264v109.0048c0 4.7616 1.6384 7.9872 4.3008 10.5472a29.2864 29.2864 0 0 0 14.592 3.1744h1.6384v10.5472h-66.2528v-10.5472h1.6384c6.9632 0 11.9296-0.9728 14.592-3.1744a15.1552 15.1552 0 0 0 4.3008-11.2128v-108.032h-14.592c-10.24 0-17.92 1.6384-22.1696 4.8128-4.352 3.2256-7.68 9.5744-9.3184 18.5344v0.9728h-10.9056v-1.5872l1.6384-34.816v-1.6384h135.168v-0.3072z m84.1728 0v9.8816h-1.6896c-6.6048 0-11.5712 1.024-13.8752 3.2256-3.328 1.5872-3.9936 5.7344-3.9936 10.5472v97.792c0 5.7344 0.6656 8.9088 3.328 11.4688a26.368 26.368 0 0 0 13.8752 3.2256h1.6896v10.5472h-64.3072v-10.5472h1.6896c6.6048 0 11.5712-0.9728 13.8752-3.2256 2.3552-1.536 3.9936-5.7344 3.9936-10.5472v-97.792a14.2336 14.2336 0 0 0-3.9936-10.5472 26.368 26.368 0 0 0-13.8752-3.1744h-1.6896v-10.5472h64.9728v-0.3072z m644.864 0v0.9728l86.1696 103.8336v-77.6704c0-5.7344-1.6384-9.8816-4.3008-12.1344-2.6624-2.56-6.656-4.096-13.6192-4.096h-1.6384v-10.5984h53.3504v9.9328h-1.6384c-5.9904 0-10.2912 1.536-12.5952 4.096-2.6624 2.56-4.3008 6.4512-4.3008 12.1856v124.3136h-10.9568v-0.9728l-98.7648-118.528v90.7264c0 4.8128 1.6896 8.96 4.3008 11.52 2.6624 2.56 6.656 3.1744 12.5952 3.1744h3.328v10.5472h-54.9888v-10.5472h2.6112c5.9904 0 10.2912-0.9216 12.5952-3.1744 2.6624-1.5872 4.352-5.7856 4.352-11.52v-103.8336a11.776 11.776 0 0 0-6.656-4.8128 19.3536 19.3536 0 0 0-10.24-2.56h-1.6896v-10.5472h42.0864v-0.3072z m-296.2432 0c17.92 0 30.464 2.56 39.7312 8.96a29.5424 29.5424 0 0 1 14.592 26.1632 29.5424 29.5424 0 0 1-9.2672 22.0672 41.3696 41.3696 0 0 1-20.224 11.52c10.9568 2.56 19.5584 5.7344 25.5488 11.4688a31.4368 31.4368 0 0 1 10.9056 25.6c0 11.52-4.9664 22.016-16.2304 29.3888a67.6352 67.6352 0 0 1-38.0928 11.52h-80.2304v-10.5472h1.6896c6.656 0 10.9056-0.9728 13.568-3.2256 1.6384-1.536 3.328-5.12 3.328-9.8816v-99.3792c0-4.8128-1.024-8.3456-3.328-10.5472a23.6544 23.6544 0 0 0-12.5952-3.2256h-2.6624v-9.8816h73.216z m161.6896 0l1.024 0.9728 56.0128 118.528a31.232 31.232 0 0 0 9.216 13.1072 24.6784 24.6784 0 0 0 11.6224 3.84l1.024 0.3072h1.6384v10.5472h-69.632v-10.5472h1.6896c5.9904 0 10.24-0.9216 12.5952-2.56 2.6624-0.9216 3.328-3.1744 3.328-5.7344 0-1.5872-1.024-3.1744-1.024-4.8128a10.5984 10.5984 0 0 0-1.28-5.12l-0.3584-0.6144-8.6016-17.92h-60.3136l-7.6288 17.92a9.2672 9.2672 0 0 0-1.6384 4.8128c-1.024 0.9216-1.024 2.56-1.024 4.096 0 2.56 1.024 4.1984 2.6624 5.7856a26.9312 26.9312 0 0 0 12.288 3.84h2.9696v9.5744h-55.04v-10.5472h1.6896a15.2576 15.2576 0 0 0 10.9056-4.096 37.376 37.376 0 0 0 7.9872-11.264l0.6656-0.9216 57.6512-118.5792v-0.9216h11.5712v0.3072z m339.6608 0v10.5472h-1.6384c-6.656 0-10.9056 0.9728-13.568 3.1744-2.6624 1.5872-3.328 5.7856-3.328 10.5472v50.176l52.3776-45.3632c3.2768-3.2256 4.9664-5.7856 6.656-7.3728a9.5744 9.5744 0 0 0 1.5872-4.096c0-2.56-0.9728-4.1984-2.6112-4.8128-1.6896-1.024-4.9664-1.6384-13.6192-2.56h-1.6384v-10.5472h66.56v10.5472h-0.9728c-4.9664 0.9216-9.216 1.536-13.568 4.096a52.224 52.224 0 0 0-13.568 8.96l-39.7824 34.2016 39.7824 58.5216c5.9392 7.9872 10.24 13.7216 14.2336 16.2816 3.328 2.56 8.2944 4.1472 13.568 4.1472h1.6896v10.5472h-69.2736v-10.5472h1.6384a46.336 46.336 0 0 0 10.9568-1.5872c2.9696-1.28 3.328-2.2528 3.328-2.8672v-0.3584c0-0.9216 0-2.56-1.024-4.096-1.024-1.6384-1.6384-4.1984-4.9664-8.0384l-30.464-44.7488-21.8624 19.5072v27.4944c0 4.8128 0.9728 7.9872 3.2768 10.5472 2.6624 1.5872 6.656 3.1744 13.6192 3.1744h1.6384v10.5472h-63.2832v-10.5472h1.6384c6.656 0 10.9568-0.9216 13.6192-3.1744 2.6112-1.5872 3.2768-5.7344 3.2768-10.5472v-97.4848c0-4.7616-1.024-7.9872-3.2768-10.5472a27.8528 27.8528 0 0 0-13.6192-3.1744h-1.6384V747.52h64.256zM2790.4 824.576h-25.4976v41.8816c0 7.3216 1.6384 10.5472 3.328 11.4688 2.6112 1.6384 7.5776 2.56 16.2304 2.56 13.568 0 24.832-2.56 31.7952-7.3216a23.0912 23.0912 0 0 0 10.24-20.48 25.7024 25.7024 0 0 0-9.216-20.48c-5.9904-4.7616-15.616-7.6288-26.88-7.6288z m151.4496-42.1888l-24.832 48.896h47.0528l-22.2208-48.896z m-156.0576-20.7872H2764.8v48.896h18.5344c11.6224 0 20.8896-2.2016 26.88-6.3488a23.4496 23.4496 0 0 0 9.216-18.8928c0-7.68-2.56-13.4144-8.2432-17.2544a46.0288 46.0288 0 0 0-25.4976-6.4z" fill="#140700" /></svg>