<?xml version="1.0" encoding="UTF-8"?>
<svg width="165px" height="129px" viewBox="0 0 165 129" version="1.1" xmlns="http://www.w3.org/2000/svg" xmlns:xlink="http://www.w3.org/1999/xlink">
    <title>读卡器</title>
    <g id="页面-1" stroke="none" stroke-width="1" fill="none" fill-rule="evenodd" opacity="0.20363072">
        <g id="读取身份证3" transform="translate(-878.000000, -493.000000)" fill-rule="nonzero">
            <g id="读卡器" transform="translate(878.000000, 493.000000)">
                <rect id="矩形" fill="#000000" opacity="0" x="0" y="0" width="165" height="129"></rect>
                <path d="M139.21875,123.994855 L25.78125,123.994855 C11.34375,123.994855 0,112.636105 0,98.1679476 L0,25.8320524 C0,11.3690393 11.34375,0 25.78125,0 L139.21875,0 C153.65625,0 165,11.3690393 165,25.8320524 L165,98.1628029 C165,112.630961 153.65625,124 139.21875,124 L139.21875,123.994855 Z M23.0148452,7.33583249 C13.7444121,7.33583249 6.65525749,14.4218166 6.65525749,23.6818418 L6.65525749,99.9845287 C6.65525749,109.255408 13.7444121,116.335832 23.0148452,116.335832 L142.985155,116.335832 C152.255588,116.335832 159.344742,109.249981 159.344742,99.9845287 L159.344742,23.6818418 C159.344742,14.4165221 152.255588,7.33583249 142.985155,7.33583249 L23.0148452,7.33583249 L23.0148452,7.33583249 Z" id="形状" fill="#8A8A8A"></path>
                <path d="M28.7222222,62.0127021 C28.7222222,51.194763 32.3418803,40.8842688 39.0641026,32.6349721 L33.8931624,28.0001252 C26.1367521,37.279958 22,49.1285585 22,62.0179593 C22,74.3842688 26.1367521,85.7201672 33.3760684,95 L38.5470085,90.360021 C32.3418803,82.6336905 28.7222222,72.8358984 28.7222222,62.0178341 L28.7222222,62.0127021 Z M135.760684,62.0127021 C135.771329,72.2034427 132.511533,82.1332522 126.452991,90.3652782 L131.623932,95 C138.863248,85.7201672 143,74.3892756 143,62.0178341 C143,49.1285585 138.346154,37.274826 131.106838,28 L125.935897,32.6349721 C131.623932,40.8842688 135.760684,50.6769289 135.760684,62.0127021 Z" id="形状" fill="#8A8A8A"></path>
                <path d="M43.2361502,62.5189665 C43.2361502,55.2163073 45.8203785,48.4325513 49.438298,42.6920504 L44.2698415,38 C38.8751697,45.0242305 35.9653656,53.6535607 36.0003111,62.5241619 C36.0003111,71.3892328 38.5845394,79.216244 43.2361502,86 L48.4046067,81.3026275 C45.3035328,75.5674487 43.2361502,69.3027226 43.2361502,62.5241619 L43.2361502,62.5189665 Z M121.279843,62.5189665 C121.279843,69.3027226 119.212461,76.0864786 115.594541,81.3079496 L120.762998,86 C125.534216,79.1143659 128.062217,70.9125614 127.998837,62.5241619 C127.998837,53.1297971 124.897763,44.7785607 119.729306,38 L114.56085,42.6973725 C118.695615,48.4325513 121.279843,55.2163073 121.279843,62.5241619 L121.279843,62.5189665 Z M57.1909828,62.5189665 C57.1909828,58.870298 58.2246741,55.7405326 59.775211,52.6055718 L54.6067545,47.3892962 C52.0225263,51.5623167 49.9551437,56.7837877 49.9551437,62.5242886 C49.9551437,67.7352422 51.5056806,72.4376833 54.0899089,76.6107038 L59.2583654,71.3892328 C58.2246741,68.7836927 57.1909828,65.6487319 57.1909828,62.5241619 L57.1909828,62.5189665 Z M107.325011,62.5189665 C107.325011,65.6488586 106.291319,68.7838194 105.257628,71.3944282 L110.426085,76.6107038 C113.010313,72.4324879 114.56085,67.7352422 114.56085,62.5241619 C114.56085,56.7837877 113.010313,52.0865419 109.909239,47.3892962 L104.740783,52.6055718 C106.291319,55.2163073 107.325011,58.870298 107.325011,62.5189665 Z M69.7969188,53.5606324 L83.7567987,46.7768764 L94.0833647,68.3892249 L80.1131378,75.188567 L69.7916191,53.5657011 L69.7969188,53.5606324 Z" id="形状" fill="#8A8A8A"></path>
            </g>
        </g>
    </g>
</svg>